<?xml version="1.0" encoding="utf-8"?>
<!-- Generator: Adobe Illustrator 15.0.0, SVG Export Plug-In . SVG Version: 6.00 Build 0)  -->
<!DOCTYPE svg PUBLIC "-//W3C//DTD SVG 1.1//EN" "http://www.w3.org/Graphics/SVG/1.1/DTD/svg11.dtd">
<svg version="1.1" id="Layer_1" xmlns="http://www.w3.org/2000/svg" xmlns:xlink="http://www.w3.org/1999/xlink" x="0px" y="0px"
	 width="595.279px" height="841.891px" viewBox="0 0 595.279 841.891" enable-background="new 0 0 595.279 841.891"
	 xml:space="preserve">
<path id="XMLID_223_" fill="#4A6EE2" d="M589.764,523.961c0.236-0.287,0.44-0.593,0.663-0.888c0.255-0.339,0.518-0.672,0.753-1.025
	c0.234-0.351,0.438-0.715,0.651-1.073c0.191-0.321,0.395-0.636,0.571-0.967c0.196-0.365,0.361-0.743,0.538-1.116
	c0.164-0.346,0.336-0.687,0.483-1.043c0.149-0.361,0.271-0.731,0.402-1.1c0.138-0.381,0.284-0.758,0.402-1.148
	c0.11-0.366,0.191-0.736,0.285-1.107c0.101-0.399,0.213-0.795,0.294-1.202c0.084-0.424,0.133-0.851,0.194-1.278
	c0.053-0.358,0.12-0.712,0.156-1.077c0.078-0.786,0.118-1.578,0.12-2.368c0-0.011,0.001-0.021,0.001-0.032
	c0-0.013-0.001-0.027-0.001-0.041c0-0.788-0.041-1.574-0.118-2.359c-0.036-0.365-0.104-0.717-0.156-1.077
	c-0.062-0.427-0.11-0.854-0.194-1.276c-0.081-0.411-0.195-0.81-0.296-1.212c-0.092-0.366-0.173-0.735-0.282-1.099
	c-0.118-0.393-0.266-0.771-0.405-1.156c-0.131-0.365-0.251-0.733-0.398-1.092c-0.149-0.358-0.323-0.7-0.487-1.049
	c-0.175-0.372-0.339-0.745-0.533-1.108c-0.179-0.334-0.383-0.65-0.576-0.973c-0.212-0.358-0.415-0.719-0.648-1.067
	c-0.238-0.355-0.503-0.688-0.758-1.03c-0.221-0.295-0.425-0.597-0.66-0.882c-0.485-0.593-0.999-1.158-1.537-1.702
	c-0.026-0.025-0.048-0.055-0.073-0.081l-60.824-60.827c-9.5-9.5-24.906-9.502-34.408-0.002c-9.502,9.502-9.502,24.906,0,34.408
	l19.292,19.294l-74.269,0.003V356.708c0.005-0.216,0.032-0.427,0.032-0.643c0-5.849-2.087-11.197-5.526-15.393
	c-0.034-0.042-0.067-0.086-0.104-0.128c-0.447-0.539-0.92-1.054-1.413-1.554c-0.069-0.072-0.141-0.145-0.212-0.216
	c-0.214-0.212-0.414-0.441-0.638-0.646L252.402,160.443c-0.009-0.006-0.017-0.015-0.024-0.023c-0.498-0.496-1.018-0.962-1.55-1.408
	c-0.168-0.141-0.344-0.274-0.516-0.411c-0.389-0.308-0.783-0.606-1.188-0.889c-0.203-0.143-0.407-0.282-0.615-0.418
	c-0.427-0.279-0.859-0.54-1.301-0.79c-0.182-0.102-0.356-0.214-0.542-0.313c-0.589-0.314-1.188-0.604-1.799-0.866
	c-0.249-0.108-0.504-0.201-0.757-0.302c-0.405-0.161-0.813-0.312-1.227-0.449c-0.284-0.094-0.567-0.185-0.854-0.269
	c-0.469-0.136-0.942-0.256-1.42-0.365c-0.212-0.047-0.42-0.107-0.636-0.151c-0.681-0.136-1.368-0.237-2.06-0.313
	c-0.211-0.024-0.425-0.037-0.638-0.057c-0.572-0.05-1.145-0.078-1.719-0.087c-0.124-0.003-0.24-0.02-0.363-0.02H24.33
	c-13.437,0-24.33,10.894-24.33,24.33v486.606c0,13.437,10.894,24.33,24.33,24.33h389.285c13.437,0,24.33-10.894,24.33-24.33V532.867
	l74.266,0.002l-19.29,19.29c-9.502,9.502-9.502,24.906,0,34.408c4.751,4.751,10.978,7.127,17.203,7.127
	c6.225,0,12.453-2.374,17.203-7.127l60.824-60.824c0.013-0.013,0.022-0.026,0.034-0.037
	C588.741,525.147,589.267,524.565,589.764,523.961z M259.524,236.381l95.354,95.354h-95.354V236.381z M389.285,639.919H48.66
	V201.973h162.202v154.092c0,13.437,10.894,24.331,24.331,24.331h154.092v103.811l-105.434-0.001c-13.437,0-24.33,10.894-24.33,24.33
	s10.894,24.33,24.33,24.33l105.434,0.002V639.919z"/>
</svg>
