<?xml version="1.0" encoding="utf-8"?>
<!-- Generator: Adobe Illustrator 15.0.0, SVG Export Plug-In . SVG Version: 6.00 Build 0)  -->
<!DOCTYPE svg PUBLIC "-//W3C//DTD SVG 1.1//EN" "http://www.w3.org/Graphics/SVG/1.1/DTD/svg11.dtd">
<svg version="1.1" id="Layer_1" xmlns="http://www.w3.org/2000/svg" xmlns:xlink="http://www.w3.org/1999/xlink" x="0px" y="0px"
	 width="595.279px" height="841.891px" viewBox="0 0 595.279 841.891" enable-background="new 0 0 595.279 841.891"
	 xml:space="preserve">
<path fill="#4A6EE2" d="M539.473,644.175H55.808C24.986,644.175,0,619.189,0,588.367V253.522c0-30.822,24.985-55.808,55.808-55.808
	h483.665c30.821,0,55.807,24.985,55.807,55.808v334.845C595.28,619.189,570.294,644.175,539.473,644.175z M130.218,262.824
	c-35.959,0-65.109,29.15-65.109,65.109c0,35.958,29.15,65.109,65.109,65.109c35.958,0,65.108-29.15,65.108-65.109
	C195.326,291.974,166.176,262.824,130.218,262.824z M74.41,569.766h446.46V439.548l-101.75-101.75
	c-5.448-5.448-14.282-5.448-19.731,0L241.832,495.355l-64.545-64.545c-5.448-5.448-14.281-5.448-19.731,0L74.41,513.958V569.766z"/>
</svg>
