<?xml version="1.0" standalone="no"?>
<!DOCTYPE svg PUBLIC "-//W3C//DTD SVG 20010904//EN"
 "http://www.w3.org/TR/2001/REC-SVG-20010904/DTD/svg10.dtd">
<svg version="1.0" xmlns="http://www.w3.org/2000/svg"
 width="62.000000pt" height="34.000000pt" viewBox="0 0 62.000000 34.000000"
 preserveAspectRatio="xMidYMid meet">

<g transform="translate(0.000000,34.000000) scale(0.100000,-0.100000)"
fill="#000000" stroke="none">
<path d="M21 203 l2 -48 6 40 6 40 23 -37 c13 -21 28 -38 33 -38 5 0 8 21 8
48 l-2 47 -6 -40 -6 -40 -22 38 c-30 50 -43 47 -42 -10z"/>
<path d="M230 205 c0 -25 5 -45 10 -45 6 0 10 20 10 45 0 25 -4 45 -10 45 -5
0 -10 -20 -10 -45z"/>
<path d="M124 216 c-11 -29 0 -51 26 -51 21 0 25 5 25 30 0 24 -5 31 -23 33
-13 2 -24 -3 -28 -12z m46 -21 c0 -25 -23 -35 -35 -15 -10 16 2 40 20 40 9 0
15 -9 15 -25z"/>
<path d="M271 191 c1 -36 1 -36 8 -6 3 17 13 30 21 30 8 0 18 -13 21 -30 l7
-30 1 33 c1 21 6 32 15 32 9 0 17 -13 19 -32 l5 -33 -2 35 c-1 35 -1 35 -48
36 l-48 1 1 -36z"/>
<path d="M396 221 c-3 -5 3 -7 14 -4 11 3 20 1 20 -5 0 -5 -9 -12 -20 -15 -30
-8 -25 -37 6 -37 23 0 25 3 22 32 -3 32 -29 50 -42 29z m29 -41 c-3 -5 -10
-10 -16 -10 -5 0 -9 5 -9 10 0 6 7 10 16 10 8 0 12 -4 9 -10z"/>
<path d="M467 223 c-3 -5 -7 -26 -8 -48 -4 -37 -2 -40 21 -40 33 0 42 35 8 36
-22 0 -23 0 -2 9 12 4 24 18 27 29 4 17 1 21 -18 21 -13 0 -26 -3 -28 -7z m31
-15 c-6 -18 -28 -21 -28 -4 0 9 7 16 16 16 9 0 14 -5 12 -12z m2 -58 c0 -5 -7
-10 -15 -10 -8 0 -15 5 -15 10 0 6 7 10 15 10 8 0 15 -4 15 -10z"/>
<path d="M534 216 c-11 -30 0 -51 29 -52 25 -1 25 -1 2 3 -33 6 -32 23 1 23
19 0 25 5 22 18 -4 22 -46 29 -54 8z m46 -6 c0 -5 -9 -10 -21 -10 -11 0 -17 5
-14 10 3 6 13 10 21 10 8 0 14 -4 14 -10z"/>
</g>
</svg>
