<?xml version="1.0" encoding="utf-8"?>
<!-- Generator: Adobe Illustrator 15.0.0, SVG Export Plug-In . SVG Version: 6.00 Build 0)  -->
<!DOCTYPE svg PUBLIC "-//W3C//DTD SVG 1.1//EN" "http://www.w3.org/Graphics/SVG/1.1/DTD/svg11.dtd">
<svg version="1.1" id="Capa_1" xmlns="http://www.w3.org/2000/svg" xmlns:xlink="http://www.w3.org/1999/xlink" x="0px" y="0px"
	 width="485.213px" height="485.211px" viewBox="0 0 485.213 485.211" enable-background="new 0 0 485.213 485.211"
	 xml:space="preserve">
<g>
	<g>
		<rect x="151.636" y="363.907" fill="#4A6EE2" width="151.617" height="30.33"/>
		<path fill="#4A6EE2" d="M121.312,30.327h242.595v60.651h30.321V30.327C394.229,13.595,380.666,0,363.907,0H121.312
			c-16.748,0-30.327,13.595-30.327,30.327v60.651h30.327V30.327z"/>
		<rect x="151.636" y="303.256" fill="#4A6EE2" width="181.938" height="30.328"/>
		<path fill="#4A6EE2" d="M454.883,121.304H30.334c-16.748,0-30.327,13.591-30.327,30.324v181.957
			c0,16.758,13.579,30.32,30.327,30.32h60.651v90.98c0,16.764,13.579,30.326,30.327,30.326h242.595
			c16.759,0,30.321-13.563,30.321-30.326v-90.98h60.653c16.76,0,30.321-13.563,30.321-30.32V151.628
			C485.204,134.895,471.642,121.304,454.883,121.304z M363.907,454.885H121.312V272.93h242.595V454.885L363.907,454.885z
			 M424.552,212.282c-16.761,0-30.322-13.564-30.322-30.327c0-16.731,13.563-30.327,30.322-30.327
			c16.765,0,30.331,13.595,30.331,30.327C454.883,198.717,441.315,212.282,424.552,212.282z"/>
	</g>
</g>
</svg>
