<?xml version="1.0" encoding="utf-8"?>
<!-- Generator: Adobe Illustrator 22.1.0, SVG Export Plug-In . SVG Version: 6.00 Build 0)  -->
<svg version="1.1" id="Layer_1" xmlns="http://www.w3.org/2000/svg" xmlns:xlink="http://www.w3.org/1999/xlink" x="0px" y="0px"
	 viewBox="0 0 448 512" style="enable-background:new 0 0 448 512;" xml:space="preserve">
<style type="text/css">
	.st0{fill:#4A90E2;}
</style>
<path class="st0" d="M436,160c6.6,0,12-5.4,12-12v-40c0-6.6-5.4-12-12-12h-20V48c0-26.5-21.5-48-48-48H48C21.5,0,0,21.5,0,48v416
	c0,26.5,21.5,48,48,48h320c26.5,0,48-21.5,48-48v-48h20c6.6,0,12-5.4,12-12v-40c0-6.6-5.4-12-12-12h-20v-64h20c6.6,0,12-5.4,12-12
	v-40c0-6.6-5.4-12-12-12h-20v-64H436z M368,464H48V48h320V464z M208,256c35.3,0,64-28.7,64-64s-28.7-64-64-64s-64,28.7-64,64
	S172.7,256,208,256z M118.4,384h179.2c12.4,0,22.4-8.6,22.4-19.2v-19.2c0-31.8-30.1-57.6-67.2-57.6c-10.8,0-18.7,8-44.8,8
	c-26.9,0-33.4-8-44.8-8c-37.1,0-67.2,25.8-67.2,57.6v19.2C96,375.4,106,384,118.4,384z"/>
</svg>
