<svg id="Layer_1" data-name="Layer 1" xmlns="http://www.w3.org/2000/svg" viewBox="0 0 24 24"><defs><style>.cls-1{fill:#d0d4e3;}.cls-2{fill:none;}</style></defs><title>Artboard 11</title><path class="cls-1" d="M19.59,3.94H4.41a.92.92,0,0,0-.91.92V19.14a.92.92,0,0,0,.91.92H19.59a.92.92,0,0,0,.91-.92V4.86A.92.92,0,0,0,19.59,3.94Zm-1.81,1.4A.76.76,0,1,1,17,6.1.76.76,0,0,1,17.78,5.34Zm-2.57,0a.76.76,0,1,1-.76.76A.76.76,0,0,1,15.21,5.34Zm-9.39.37h3a.39.39,0,1,1,0,.78h-3a.39.39,0,0,1,0-.78ZM19.05,18.47a.12.12,0,0,1-.12.12H5.07A.12.12,0,0,1,5,18.47V8.63h14.1Z"/><path class="cls-1" d="M13,11l1.61,1.62-4.09,4.09L8.88,15.05Zm2.84-.39-.72-.72a.71.71,0,0,0-1,0l-.69.69L15,12.16l.81-.81A.56.56,0,0,0,15.81,10.57ZM8,17.32a.19.19,0,0,0,.23.22l1.8-.44L8.44,15.49Z"/><rect class="cls-2" width="24" height="24"/></svg>