<svg id="Layer_1" data-name="Layer 1" xmlns="http://www.w3.org/2000/svg" viewBox="0 0 24 24"><defs><style>.cls-1{fill:#d0d4e3;}.cls-2{fill:none;}</style></defs><title>Artboard 31</title><path class="cls-1" d="M16.72,4H7.28A3.28,3.28,0,0,0,4,7.28v9.44A3.28,3.28,0,0,0,7.28,20h9.44A3.28,3.28,0,0,0,20,16.72V7.28A3.28,3.28,0,0,0,16.72,4ZM8.93,16.33a.79.79,0,0,1-.68.39.7.7,0,0,1-.39-.11.78.78,0,0,1-.29-1.06l.16-.27h1.8ZM7.45,14.66a.79.79,0,0,1,0-1.57H9L11.1,9.44l-.57-1a.77.77,0,0,1,.28-1.06h0a.78.78,0,0,1,1.07.28l.12.21.12-.21a.78.78,0,0,1,1.07-.28.74.74,0,0,1,.36.47.72.72,0,0,1-.08.59l-2.68,4.64h1.69l.91,1.57Zm9.1,0h-.64l.52.89a.78.78,0,0,1-.29,1.06.77.77,0,0,1-.39.11.69.69,0,0,1-.2,0,.79.79,0,0,1-.48-.36l-2.71-4.7.9-1.56,1.75,3h1.54a.79.79,0,0,1,0,1.57Z"/><rect class="cls-2" width="24" height="24"/></svg>