<svg id="Layer_1" data-name="Layer 1" xmlns="http://www.w3.org/2000/svg" viewBox="0 0 24 24"><defs><style>.cls-1{fill:#d0d4e3;}.cls-2{fill:none;}</style></defs><title>Artboard 15</title><path class="cls-1" d="M7.46,10.31V11H5.72A1.22,1.22,0,0,0,4.5,12.24v1.68a.36.36,0,0,0,.36.36.37.37,0,0,0,.37-.36V12.24a.5.5,0,0,1,.49-.5H7.46v3.17H6.11a1.22,1.22,0,0,0-1.22,1.22v1.68a.37.37,0,0,0,.36.37.38.38,0,0,0,.37-.37V16.13a.5.5,0,0,1,.49-.5H7.46v0a4,4,0,0,0,1.11,2.76H8.18A1.22,1.22,0,0,0,7,19.65v.7a.36.36,0,1,0,.72,0v-.7a.5.5,0,0,1,.5-.5H9.5a4,4,0,0,0,1.92.5h.18V9.76H8A.54.54,0,0,0,7.46,10.31Z"/><path class="cls-1" d="M9.42,6.84A3.63,3.63,0,0,0,8.44,9h7.12a3.63,3.63,0,0,0-1-2.12l1.73-3a.37.37,0,1,0-.63-.37L14,6.37a3.56,3.56,0,0,0-4,0L8.32,3.46a.37.37,0,1,0-.63.37Z"/><path class="cls-1" d="M18.28,11H16.54v-.71A.54.54,0,0,0,16,9.76H12.4v9.88h.18a4,4,0,0,0,1.92-.5h1.32a.5.5,0,0,1,.5.5v.7a.36.36,0,1,0,.72,0v-.7a1.22,1.22,0,0,0-1.22-1.22h-.39a4,4,0,0,0,1.11-2.76v0h1.35a.5.5,0,0,1,.49.5v1.68a.38.38,0,0,0,.37.37.37.37,0,0,0,.36-.37V16.13a1.22,1.22,0,0,0-1.22-1.22H16.54V11.74h1.74a.5.5,0,0,1,.49.5v1.68a.37.37,0,0,0,.37.36.36.36,0,0,0,.36-.36V12.24A1.22,1.22,0,0,0,18.28,11Z"/><rect class="cls-2" width="24" height="24"/></svg>