<svg id="Layer_1" data-name="Layer 1" xmlns="http://www.w3.org/2000/svg" viewBox="0 0 24 24"><defs><style>.cls-1{fill:#d0d4e3;}.cls-2{fill:none;}</style></defs><title>Artboard 43</title><path class="cls-1" d="M17.58,4H6.42A2.43,2.43,0,0,0,4,6.42V17.58A2.43,2.43,0,0,0,6.42,20H17.58A2.43,2.43,0,0,0,20,17.58V6.42A2.43,2.43,0,0,0,17.58,4Zm.71,7.71a.29.29,0,0,1-.58,0V9.83l-4,3.95a1.43,1.43,0,1,1-2.38,0L8.5,10.9a1.44,1.44,0,0,1-.79.24,1.38,1.38,0,0,1-.78-.24L5.06,12.77l-.4-.4L6.52,10.5a1.43,1.43,0,1,1,2.38,0l2.88,2.88a1.42,1.42,0,0,1,1.58,0l3.95-4H15.43a.29.29,0,0,1-.29-.29.28.28,0,0,1,.29-.28h2.86Z"/><rect class="cls-2" width="24" height="24"/></svg>