<svg id="Layer_1" data-name="Layer 1" xmlns="http://www.w3.org/2000/svg" viewBox="0 0 24 24"><defs><style>.cls-1{fill:#d0d4e3;}.cls-2{fill:none;}</style></defs><title>Artboard 34</title><path class="cls-1" d="M3.5,17.67V18a.85.85,0,0,0,.85.85h1.7v1.13H5.48a.29.29,0,0,0,0,.57h3.4a.29.29,0,1,0,0-.57H8.32V18.8H10a.85.85,0,0,0,.85-.85v-.28Zm4.25,2.26H6.62V18.8H7.75Z"/><path class="cls-1" d="M8.32,8v.29a.85.85,0,0,0,.85.85h1.7V10.3H10.3a.29.29,0,0,0,0,.57h3.4a.29.29,0,0,0,0-.57h-.57V9.17h1.7a.85.85,0,0,0,.85-.85V8Zm4.25,2.27H11.43V9.17h1.14Z"/><path class="cls-1" d="M14.83,3.5H9.17a.85.85,0,0,0-.85.85V7.47h7.36V4.35A.85.85,0,0,0,14.83,3.5Z"/><path class="cls-1" d="M13.13,17.67V18a.85.85,0,0,0,.85.85h1.7v1.13h-.56a.29.29,0,1,0,0,.57h3.4a.29.29,0,0,0,0-.57H18V18.8h1.7A.85.85,0,0,0,20.5,18v-.28Zm4.25,2.26H16.25V18.8h1.13Z"/><path class="cls-1" d="M19.65,13.13H17.1v-.85a.29.29,0,0,0-.28-.28H12.28v-.57a.28.28,0,0,0-.56,0V12H7.18a.29.29,0,0,0-.28.28v.85H4.35A.85.85,0,0,0,3.5,14V17.1h7.37V14a.85.85,0,0,0-.85-.85H7.47v-.56h9.06v.56H14a.85.85,0,0,0-.85.85V17.1H20.5V14A.85.85,0,0,0,19.65,13.13Z"/><rect class="cls-2" width="24" height="24"/></svg>