<svg id="Layer_1" data-name="Layer 1" xmlns="http://www.w3.org/2000/svg" viewBox="0 0 24 24"><defs><style>.cls-1{fill:#d0d4e3;}.cls-2{fill:none;}</style></defs><title>Artboard 36</title><polygon class="cls-1" points="15.97 3.5 15.97 8.03 20.5 8.03 15.97 3.5"/><path class="cls-1" d="M9.15,19.8l-.87-3.49a2.83,2.83,0,1,0-3.9,0L3.52,19.8a.56.56,0,0,0,.19.58.58.58,0,0,0,.61.06l2-1,2,1a.54.54,0,0,0,.25.06A.6.6,0,0,0,9,20.38.58.58,0,0,0,9.15,19.8ZM6.33,16A1.7,1.7,0,1,1,8,14.27,1.71,1.71,0,0,1,6.33,16Z"/><path class="cls-1" d="M16,9.17A1.14,1.14,0,0,1,14.83,8V3.5H8A1.14,1.14,0,0,0,6.9,4.63v5.73a4,4,0,0,1,3.4,3.91,3.91,3.91,0,0,1-.77,2.34l.68,2.76h9.16a1.14,1.14,0,0,0,1.13-1.14V9.17ZM9.73,8a.57.57,0,0,1,0-1.13h3.4a.57.57,0,1,1,0,1.13Zm7.94,6.8H12a.57.57,0,1,1,0-1.13h5.67a.57.57,0,0,1,0,1.13Zm0-3.4h-6.8a.57.57,0,1,1,0-1.13h6.8a.57.57,0,0,1,0,1.13Z"/><rect class="cls-2" width="24" height="24"/></svg>