<svg id="Layer_1" data-name="Layer 1" xmlns="http://www.w3.org/2000/svg" viewBox="0 0 24 24"><defs><style>.cls-1{fill:#d0d4e3;}.cls-2{fill:none;}</style></defs><title>Artboard 42</title><path class="cls-1" d="M3,5.07V18.93H21V5.07ZM19.83,17.83H4.17V6.17H19.83Z"/><path class="cls-1" d="M5.26,7.06V16.8h13.5V7.06Zm1.79,6a.32.32,0,0,1-.21-.08.27.27,0,0,1,0-.4l2-2a.32.32,0,0,1,.32-.07l3.33,1.15,2.91-3-.72-.57a.08.08,0,0,1,0-.07.06.06,0,0,1,0,0,.1.1,0,0,1,.09-.07l1.74-.15a.12.12,0,0,1,.13.1l.15,1.63a.1.1,0,0,1-.06.11.11.11,0,0,1-.12,0L15.89,9l-3.07,3.15a.31.31,0,0,1-.32.07L9.17,11.07,7.26,12.93A.27.27,0,0,1,7.05,13Zm2.81,3a.14.14,0,0,1-.15.14h-2A.15.15,0,0,1,7.54,16V13.23L9.21,11.6H9.4l.46.16Zm3.62,0a.15.15,0,0,1-.15.14h-2a.14.14,0,0,1-.15-.14V13a.14.14,0,0,1,.15-.14h2a.15.15,0,0,1,.15.14Zm3.41,0a.14.14,0,0,1-.15.14h-2a.15.15,0,0,1-.15-.14V10.93L15.9,9.57l.37.29a.55.55,0,0,0,.35.12.57.57,0,0,0,.25-.06h0Z"/><rect class="cls-2" width="24" height="24"/></svg>