<svg id="Layer_1" data-name="Layer 1" xmlns="http://www.w3.org/2000/svg" viewBox="0 0 24 24"><defs><style>.cls-1,.cls-3{fill:none;}.cls-2{fill:#d0d4e3;}.cls-3{stroke:#d0d4e3;stroke-linecap:round;stroke-miterlimit:10;stroke-width:0.5px;}</style></defs><title>Artboard 12</title><rect class="cls-1" width="24" height="24"/><circle class="cls-2" cx="5.66" cy="9.73" r="1.97"/><path class="cls-2" d="M6.42,12.16H4.92a2.73,2.73,0,0,0-2.67,2.78v.45c0,.21.08.44.32.44H8.75c.24,0,.31-.23.31-.44V15A2.73,2.73,0,0,0,6.42,12.16Z"/><circle class="cls-2" cx="18.34" cy="9.73" r="1.97"/><path class="cls-2" d="M19.1,12.16H17.61a2.72,2.72,0,0,0-2.67,2.78v.45c0,.21.07.44.31.44h6.18c.24,0,.32-.23.32-.44V15A2.73,2.73,0,0,0,19.1,12.16Z"/><path class="cls-3" d="M7.44,7.23a4.49,4.49,0,0,1,9,0"/><polyline class="cls-3" points="15.42 7.07 16.45 7.64 17.27 6.69"/><path class="cls-3" d="M16.27,16.77a4.49,4.49,0,1,1-9,0"/><polyline class="cls-3" points="8.29 16.93 7.26 16.36 6.45 17.31"/></svg>