<svg id="Layer_1" data-name="Layer 1" xmlns="http://www.w3.org/2000/svg" viewBox="0 0 24 24"><defs><style>.cls-1{fill:#d0d4e3;}.cls-2{fill:none;}</style></defs><title>Artboard 38</title><polygon class="cls-1" points="9.63 4 9.63 4.67 18.75 4.67 18.75 16 19.63 16 19.63 4 9.63 4"/><polygon class="cls-1" points="7.88 6 17 6 17 17.34 17.88 17.34 17.88 5.33 7.88 5.33 7.88 6"/><polygon class="cls-1" points="6.12 7.33 15.25 7.33 15.25 18.67 16.13 18.67 16.13 6.67 6.12 6.67 6.12 7.33"/><path class="cls-1" d="M4.37,20h10V8h-10Zm2.15-9h5.15v.42H6.52Zm0,1.87h4v.42h-4Zm0,1.87h4v.42h-4Zm0,1.87h5.15V17H6.52Z"/><rect class="cls-2" width="24" height="24"/></svg>