<svg id="Layer_1" data-name="Layer 1" xmlns="http://www.w3.org/2000/svg" viewBox="0 0 24 24"><defs><style>.cls-1{fill:#d0d4e3;}.cls-2{fill:none;}</style></defs><title>Artboard 40</title><path class="cls-1" d="M20.37,10.87H20S18.1,7.21,18.08,7.19a.54.54,0,0,0-.47-.27H13.09V4.81a.67.67,0,0,0-.66-.69h-.88a.71.71,0,0,0-.71.69V6.92H6.43A.55.55,0,0,0,6,7.19L4,10.87H3.74a.71.71,0,0,0-.74.65V12a3.38,3.38,0,0,0,6.75,0v-.45a.61.61,0,0,0-.63-.65H8.76L7.27,8h3.57v9.62H7.05a.7.7,0,0,0-.71.68v.88a.71.71,0,0,0,.71.69h9.88a.67.67,0,0,0,.66-.69v-.88a.66.66,0,0,0-.66-.68H13.09V8h3.68l-1.49,2.86H15a.71.71,0,0,0-.74.65V12A3.38,3.38,0,0,0,21,12v-.45a.61.61,0,0,0-.63-.65Zm-12.84,0H5.26L6.4,8.7Zm9,0L17.65,8.7l1.13,2.17Z"/><rect class="cls-2" width="24" height="24"/></svg>