<svg id="Layer_1" data-name="Layer 1" xmlns="http://www.w3.org/2000/svg" viewBox="0 0 24 24"><defs><style>.cls-1{fill:#d0d4e3;}.cls-2{fill:none;}</style></defs><title>Artboard 16</title><path class="cls-1" d="M12,3.92A8.08,8.08,0,1,0,20.08,12,8.08,8.08,0,0,0,12,3.92Zm3,6.58L9.26,17.33a.18.18,0,0,1-.14.06.15.15,0,0,1-.09,0A.18.18,0,0,1,9,17.14l2-4.78H9.12A.16.16,0,0,1,9,12.27a.17.17,0,0,1,0-.17l2.7-5.39a.16.16,0,0,1,.16-.1H14.7a.16.16,0,0,1,.15.09.17.17,0,0,1,0,.18l-2.1,3.32h2.13a.18.18,0,0,1,.13.3Z"/><rect class="cls-2" width="24" height="24"/></svg>