<svg id="Layer_1" data-name="Layer 1" xmlns="http://www.w3.org/2000/svg" viewBox="0 0 24 24"><defs><style>.cls-1{fill:#d0d4e3;}.cls-2{fill:none;}</style></defs><title>Artboard 21</title><path class="cls-1" d="M18.77,5.45,16.9,3.29A1,1,0,0,0,16.27,3H7A2,2,0,0,0,5,5V19a2,2,0,0,0,2,2H17a2,2,0,0,0,2-2V6.12A1.24,1.24,0,0,0,18.77,5.45Zm-3.32,7.64h-3v3a.49.49,0,0,1-1,0v-3h-3a.49.49,0,1,1,0-1h3v-3a.49.49,0,0,1,1,0v3h3a.49.49,0,1,1,0,1Zm2.38-6.75H16.14a.43.43,0,0,1-.43-.43V4c0-.24.13-.29.29-.11L18,6C18.13,6.2,18.06,6.34,17.83,6.34Z"/><rect class="cls-2" width="24" height="24"/></svg>