<svg id="Layer_1" data-name="Layer 1" xmlns="http://www.w3.org/2000/svg" viewBox="0 0 24 24"><defs><style>.cls-1{fill:#d0d4e3;}.cls-2{fill:none;}</style></defs><title>Artboard 23</title><path class="cls-1" d="M18.77,5.45,16.9,3.29A1,1,0,0,0,16.27,3H7A2,2,0,0,0,5,5V19a2,2,0,0,0,2,2H17a2,2,0,0,0,2-2V6.12A1.24,1.24,0,0,0,18.77,5.45Zm-3.7,6.43h0a.37.37,0,0,1-.36-.34c-.05-.49-.11-1.2-.15-1.66l-1.1,1.42,1.33,3.78-4.12-1,.82,4.15-3.7-.6a.39.39,0,0,1-.32-.44.39.39,0,0,1,.45-.32l2.6.42L9.64,13l3.9,1-1-2.83L13.76,9.6c-.61-.11-1.16-.2-1.3-.2a.41.41,0,0,1-.41-.27.4.4,0,0,1,.25-.49c.1,0,.2-.06,2.23.31l.63.11-.06.07a.49.49,0,0,1,.11.24.23.23,0,0,0,0,.07c0,.06,0,.15,0,.25s0,.46.07.73c0,.53.09,1.06.09,1.06A.37.37,0,0,1,15.07,11.88Zm2.76-5.54H16.14a.43.43,0,0,1-.43-.43V4c0-.24.13-.29.29-.11L18,6C18.13,6.2,18.06,6.34,17.83,6.34Z"/><rect class="cls-2" width="24" height="24"/></svg>