<svg id="Layer_1" data-name="Layer 1" xmlns="http://www.w3.org/2000/svg" viewBox="0 0 24 24"><defs><style>.cls-1{fill:#d0d4e3;}.cls-2{fill:none;}</style></defs><title>Artboard 7</title><path class="cls-1" d="M18.59,4H12.47V6.43a2.42,2.42,0,0,1,.47,0,1.88,1.88,0,0,1,0,3.75,2.42,2.42,0,0,1-.47-.06v1.46H14.7a.47.47,0,0,1,.35.78,1,1,0,0,0-.24.63.94.94,0,1,0,1.88,0,1,1,0,0,0-.24-.63.47.47,0,0,1,.35-.78H20V5.41A1.41,1.41,0,0,0,18.59,4Z"/><path class="cls-1" d="M12.94,7.31a1,1,0,0,0-.63.24.47.47,0,0,1-.78-.35V4H5.41A1.41,1.41,0,0,0,4,5.41v6.12H6.43a2.42,2.42,0,0,1,0-.47,1.88,1.88,0,0,1,3.75,0,2.42,2.42,0,0,1-.06.47h1.46V9.3A.47.47,0,0,1,12.31,9a1,1,0,0,0,.63.24.94.94,0,1,0,0-1.88Z"/><path class="cls-1" d="M11.06,13.88a2.42,2.42,0,0,1,.47,0V12.47H9.3A.47.47,0,0,1,9,11.69a1,1,0,0,0,.24-.63.94.94,0,0,0-1.88,0,1,1,0,0,0,.24.63.47.47,0,0,1-.35.78H4v6.12A1.41,1.41,0,0,0,5.41,20h6.12V17.57a2.42,2.42,0,0,1-.47.06,1.88,1.88,0,0,1,0-3.75Z"/><path class="cls-1" d="M17.57,12.47a2.42,2.42,0,0,1,.06.47,1.88,1.88,0,0,1-3.75,0,2.42,2.42,0,0,1,0-.47H12.47V14.7a.47.47,0,0,1-.78.35,1,1,0,0,0-.63-.24.94.94,0,0,0,0,1.88,1,1,0,0,0,.63-.24.47.47,0,0,1,.78.35V20h6.12A1.41,1.41,0,0,0,20,18.59V12.47Z"/><rect class="cls-2" width="24" height="24"/></svg>