<svg id="Layer_1" data-name="Layer 1" xmlns="http://www.w3.org/2000/svg" viewBox="0 0 24 24"><defs><style>.cls-1{fill:#d0d4e3;}.cls-2{fill:none;}</style></defs><title>Artboard 19</title><path class="cls-1" d="M10.71,11.09a.44.44,0,0,0,.88,0,.44.44,0,0,0-.88,0Z"/><path class="cls-1" d="M13.79,15.93a5.73,5.73,0,0,0,5.55-4.4H17.66a1.31,1.31,0,0,1-2.55-.44,1.18,1.18,0,0,1,.13-.56l-.89-.89a1.18,1.18,0,0,1-.56.13,1.22,1.22,0,0,1-.57-.13l-.88.89a1.32,1.32,0,1,1-2.38,0L8.25,8.82a5.69,5.69,0,0,0,5.54,7.11Z"/><path class="cls-1" d="M13.35,8.46a.43.43,0,0,0,.44.43.44.44,0,1,0-.44-.43Z"/><path class="cls-1" d="M13.79,4.5A5.71,5.71,0,0,0,8.58,7.89l2,2a1.19,1.19,0,0,1,1.12,0L12.6,9a1.18,1.18,0,0,1-.13-.56,1.32,1.32,0,1,1,2.64,0A1.19,1.19,0,0,1,15,9l.89.89a1.19,1.19,0,0,1,.56-.14,1.3,1.3,0,0,1,1.24.88h1.82c0-.14,0-.29,0-.44A5.73,5.73,0,0,0,13.79,4.5Z"/><path class="cls-1" d="M8.07,6.7a1.31,1.31,0,0,0-2.55-.44h-1v.88h1A1.3,1.3,0,0,0,6.76,8a1.19,1.19,0,0,0,.56-.14l.93.94a4.48,4.48,0,0,1,.33-.93l-.64-.63A1.18,1.18,0,0,0,8.07,6.7Z"/><path class="cls-1" d="M6.75,19.11l3.41-3.4a6.66,6.66,0,0,1-1.87-1.87l-3.4,3.41a1.32,1.32,0,0,0,1.86,1.86Z"/><rect class="cls-2" width="24" height="24"/></svg>