<svg id="Layer_1" data-name="Layer 1" xmlns="http://www.w3.org/2000/svg" viewBox="0 0 24 24"><defs><style>.cls-1{fill:#d0d4e3;}.cls-2{fill:none;}</style></defs><title>Artboard 51</title><path class="cls-1" d="M16.21,4.52v2H7.79v-2H5.29v16H18.71v-16ZM10.09,18.21l-.71.71-.7-.71L8,18.92l-.7-.71.7-.7-.7-.71.7-.7.71.7.7-.7.71.7-.71.71Zm0-4-.71.7-.7-.7-.71.7-.7-.7.7-.71-.7-.7.7-.71.71.71.7-.71.71.71-.71.7Zm0-4-.71.7-.7-.7-.71.7-.7-.7L8,9.53l-.7-.7L8,8.12l.71.71.7-.71.71.71-.71.7ZM16.71,19H11.09V18h5.62v1Zm0-2H11.09V16h5.62v1Zm0-2H11.09V14h5.62v1Zm0-2H11.09V12h5.62v1Zm0-2H11.09V10h5.62v1Zm0-2H11.09V8h5.62V9Z"/><rect class="cls-1" x="8.78" y="3.5" width="6.44" height="2.05"/><rect class="cls-2" width="24" height="24"/></svg>