<svg id="Layer_1" data-name="Layer 1" xmlns="http://www.w3.org/2000/svg" viewBox="0 0 24 24"><defs><style>.cls-1{fill:#d0d4e3;}.cls-2{fill:none;}</style></defs><title>Artboard 29</title><path class="cls-1" d="M14.08,7A3.25,3.25,0,0,1,15.6,9.46a2.78,2.78,0,0,0,1.12.25A2.64,2.64,0,1,0,14.08,7Z"/><path class="cls-1" d="M12.1,12.43A2.64,2.64,0,1,0,9.46,9.79,2.64,2.64,0,0,0,12.1,12.43Z"/><path class="cls-1" d="M13.22,12.61H11A3.39,3.39,0,0,0,7.6,16v2.78l.19.06a15.23,15.23,0,0,0,4.59.74,9.41,9.41,0,0,0,4-.75l.17-.09h0V16A3.38,3.38,0,0,0,13.22,12.61Z"/><path class="cls-1" d="M17.84,9.89H15.62a3.26,3.26,0,0,1-1,2.26A4,4,0,0,1,17.48,16v.84A9.09,9.09,0,0,0,21,16.1L21.2,16h0V13.27A3.38,3.38,0,0,0,17.84,9.89Z"/><path class="cls-1" d="M7.28,9.71A2.62,2.62,0,0,0,8.69,9.3,3.3,3.3,0,0,1,9.91,7.21a.61.61,0,0,0,0-.14A2.64,2.64,0,1,0,7.28,9.71Z"/><path class="cls-1" d="M9.65,12.15a3.29,3.29,0,0,1-1-2.25H6.16a3.38,3.38,0,0,0-3.38,3.38v2.78l.19.06a15.8,15.8,0,0,0,3.8.71V16A4,4,0,0,1,9.65,12.15Z"/><rect class="cls-2" width="24" height="24"/></svg>