<svg id="Layer_1" data-name="Layer 1" xmlns="http://www.w3.org/2000/svg" viewBox="0 0 24 24"><defs><style>.cls-1{fill:#d0d4e3;}.cls-2{fill:none;}</style></defs><title>Artboard 5</title><g id="surface1"><path class="cls-1" d="M5.37,6.22a.29.29,0,0,1,.14.08l4.59,4.58.83-.83L6.34,5.47a.28.28,0,0,1-.08-.15L6,4.17,4.06,3.08,3.12,4l1.1,1.91Z"/><path class="cls-1" d="M9.44,16.67,16.71,9.4A.35.35,0,0,1,17,9.31a3.19,3.19,0,0,0,4-3.1A1.28,1.28,0,0,0,21,6L19.3,7.72a.33.33,0,0,1-.33.07l-1.92-.64a.29.29,0,0,1-.2-.2L16.21,5a.33.33,0,0,1,.07-.33L18,3a3.19,3.19,0,0,0-3.29,4,.35.35,0,0,1-.09.31L7.33,14.56a.32.32,0,0,1-.31.08,3.32,3.32,0,0,0-.77-.1A3.23,3.23,0,1,0,9.36,17,.32.32,0,0,1,9.44,16.67ZM7,19H5.47L4.7,17.75l.77-1.28H7l.77,1.28Zm1.24-3.75,7.05-7.06.46.46L8.72,15.73Z"/><path class="cls-1" d="M18.37,20.83a1.94,1.94,0,0,0,2.5-2.5Z"/><path class="cls-1" d="M20.43,17.63,16.83,14A1,1,0,0,1,15.48,14a1,1,0,0,1-.06-1.35l-.51-.51-2.76,2.75.52.52a1,1,0,0,1,1.41,1.41l3.6,3.6.12.11,2.74-2.74A.69.69,0,0,0,20.43,17.63Zm-1.9,1.31-3.21-3.21.46-.45L19,18.49Z"/></g><rect class="cls-2" width="24" height="24"/></svg>