<svg id="Layer_1" data-name="Layer 1" xmlns="http://www.w3.org/2000/svg" viewBox="0 0 24 24"><defs><style>.cls-1{fill:#d0d4e3;}.cls-2{fill:none;}</style></defs><title>Artboard 25</title><path class="cls-1" d="M11.33,4.24a.56.56,0,0,1-.57-.57V3H9.32v.67a.57.57,0,0,1-.57.57h-1V5.43H12.3V4.24Z"/><path class="cls-1" d="M20.09,7.18a.92.92,0,0,0-1.3.17l-.22.27L20,8.76l.22-.28A.93.93,0,0,0,20.09,7.18Z"/><path class="cls-1" d="M6.81,12.43h6.45a.41.41,0,0,1,.16,0l3.1-4V5.81A1.54,1.54,0,0,0,15,4.27H13.43V6a.56.56,0,0,1-.57.56H7.21A.57.57,0,0,1,6.64,6V4.27H5.1A1.55,1.55,0,0,0,3.55,5.81V19.45A1.55,1.55,0,0,0,5.1,21H15a1.54,1.54,0,0,0,1.54-1.55V15.19l-.52.69a.65.65,0,0,1-.33.21l-2.28.5h-.12a.55.55,0,0,1-.57-.54l-.09-2.33a.49.49,0,0,1,0-.17H6.81a.57.57,0,0,1,0-1.13Zm0,3h3.74a.57.57,0,1,1,0,1.13H6.81a.57.57,0,0,1,0-1.13Zm0-6.08h6.45a.57.57,0,1,1,0,1.13H6.81a.57.57,0,0,1,0-1.13Z"/><polygon class="cls-1" points="17.88 8.52 13.75 13.89 13.81 15.33 15.22 15.02 19.35 9.66 17.88 8.52"/><rect class="cls-2" width="24" height="24"/></svg>