<svg id="Layer_1" data-name="Layer 1" xmlns="http://www.w3.org/2000/svg" viewBox="0 0 24 24"><defs><style>.cls-1{fill:#d0d4e3;}.cls-2{fill:none;}</style></defs><title>Artboard 8</title><path class="cls-1" d="M20.68,15.66H9a.32.32,0,0,1-.31-.32V8A.31.31,0,0,1,9,7.72H20.68A.32.32,0,0,1,21,8v7.3A.32.32,0,0,1,20.68,15.66ZM17.46,18H16.28V16.54H13.44V18H12.26a.45.45,0,0,0,0,.89h5.2a.45.45,0,0,0,0-.89ZM10.07,6.84H4.34a.44.44,0,0,0-.45.44.45.45,0,0,0,.45.44H7.88a1.13,1.13,0,0,0,0,.32v.82H4.34a.45.45,0,1,0,0,.89H7.83v1.14H4.34a.44.44,0,0,0-.45.44.45.45,0,0,0,.45.44H7.83v3.57A1.2,1.2,0,0,0,9,16.54h1V18.4a.45.45,0,0,1-.44.45H3.44A.45.45,0,0,1,3,18.4V5.6a.45.45,0,0,1,.44-.45H9.63a.45.45,0,0,1,.44.45ZM5.85,15.58a.69.69,0,1,0,.68-.69A.69.69,0,0,0,5.85,15.58Z"/><rect class="cls-2" width="24" height="24"/></svg>