<svg id="Layer_1" data-name="Layer 1" xmlns="http://www.w3.org/2000/svg" viewBox="0 0 24 24"><defs><style>.cls-1{fill:#d0d4e3;}.cls-2{fill:none;}</style></defs><title>Artboard 27</title><path class="cls-1" d="M8.23,13.36a9.85,9.85,0,0,0,1.46-.1V7.86a9.85,9.85,0,0,0-1.46-.1C5.34,7.76,3,8.89,3,10.29v.54C3,12.23,5.34,13.36,8.23,13.36Z"/><path class="cls-1" d="M8.23,16.19a11.41,11.41,0,0,0,1.46-.1V14.5a9.85,9.85,0,0,1-1.46.1c-2.52,0-4.63-.86-5.12-2a1.35,1.35,0,0,0-.11.52v.55C3,15.05,5.34,16.19,8.23,16.19Z"/><path class="cls-1" d="M9.69,17.45v-.12a11.41,11.41,0,0,1-1.46.1c-2.52,0-4.63-.87-5.12-2a1.39,1.39,0,0,0-.11.52v.55C3,17.88,5.34,19,8.23,19a10.82,10.82,0,0,0,1.65-.13A2.08,2.08,0,0,1,9.69,18Z"/><path class="cls-1" d="M15.77,3.47c-2.89,0-5.23,1.14-5.23,2.53v.55c0,1.4,2.34,2.53,5.23,2.53S21,8,21,6.55V6C21,4.61,18.66,3.47,15.77,3.47Z"/><path class="cls-1" d="M15.77,10.32c-2.52,0-4.63-.86-5.12-2a1.35,1.35,0,0,0-.11.52v.54c0,1.4,2.34,2.53,5.23,2.53S21,10.77,21,9.37V8.83a1.35,1.35,0,0,0-.11-.52C20.4,9.46,18.29,10.32,15.77,10.32Z"/><path class="cls-1" d="M15.77,13.14c-2.52,0-4.63-.86-5.12-2a1.35,1.35,0,0,0-.11.52v.55c0,1.39,2.34,2.53,5.23,2.53S21,13.59,21,12.2v-.55a1.35,1.35,0,0,0-.11-.52C20.4,12.28,18.29,13.14,15.77,13.14Z"/><path class="cls-1" d="M15.77,16.12c-2.52,0-4.63-.86-5.12-2a1.31,1.31,0,0,0-.11.52v.54c0,1.4,2.34,2.53,5.23,2.53S21,16.57,21,15.17v-.54a1.31,1.31,0,0,0-.11-.52C20.4,15.26,18.29,16.12,15.77,16.12Z"/><path class="cls-1" d="M15.77,18.94c-2.52,0-4.63-.86-5.12-2a1.35,1.35,0,0,0-.11.52V18c0,1.39,2.34,2.53,5.23,2.53S21,19.39,21,18v-.55a1.35,1.35,0,0,0-.11-.52C20.4,18.08,18.29,18.94,15.77,18.94Z"/><rect class="cls-2" width="24" height="24"/></svg>