<svg id="Layer_1" data-name="Layer 1" xmlns="http://www.w3.org/2000/svg" viewBox="0 0 24 24"><defs><style>.cls-1{fill:#d0d4e3;}.cls-2{fill:none;}</style></defs><title>Artboard 54</title><path class="cls-1" d="M20.28,9.35a.88.88,0,0,0-.64-.28H4.36A.86.86,0,0,0,3.5,10l.82,8.76a.86.86,0,0,0,.85.78H18.83a.86.86,0,0,0,.85-.78L20.5,10A.89.89,0,0,0,20.28,9.35Zm-5.42,8.4H9.14a.87.87,0,0,1-.86-.86,2.12,2.12,0,0,1,2.12-2.11H11a2.05,2.05,0,1,1,2,0h.61a2.12,2.12,0,0,1,2.12,2v.07A.86.86,0,0,1,14.86,17.75Zm4-10.28a.65.65,0,0,1-.64.65H5.79a.65.65,0,0,1,0-1.29H18.21A.64.64,0,0,1,18.85,7.47ZM17.15,5.1a.64.64,0,0,1-.64.64h-9a.65.65,0,0,1,0-1.29h9A.65.65,0,0,1,17.15,5.1Z"/><rect class="cls-2" width="24" height="24"/></svg>