<svg id="Layer_1" data-name="Layer 1" xmlns="http://www.w3.org/2000/svg" viewBox="0 0 24 24"><defs><style>.cls-1{fill:#d0d4e3;}.cls-2{fill:none;}</style></defs><title>Artboard 55</title><path class="cls-1" d="M9.49,14.68l.26,0a1.24,1.24,0,0,1,1.19-.86h1a1.27,1.27,0,0,1,.69.21,1.43,1.43,0,0,1,.16-.48l.61-1.05a1.37,1.37,0,0,1,.82-.63,1.45,1.45,0,0,1,.35,0,1.37,1.37,0,0,1,.49.09,1.34,1.34,0,0,1,.64-.95H10.44a.54.54,0,0,1-.54-.54V5.16a.54.54,0,0,0-.18-.41.51.51,0,0,0-.41-.13A6.4,6.4,0,0,0,7.79,17a1.21,1.21,0,0,1,.13-.89l.48-.84a1.23,1.23,0,0,1,.76-.58A1.24,1.24,0,0,1,9.49,14.68Z"/><path class="cls-1" d="M11.56,9.88h5.29a.55.55,0,0,0,.4-.18.57.57,0,0,0,.14-.42A6.4,6.4,0,0,0,11.61,3.5a.58.58,0,0,0-.42.14A.55.55,0,0,0,11,4V9.33A.55.55,0,0,0,11.56,9.88Z"/><path class="cls-1" d="M17,14a1.28,1.28,0,1,0,1.28,1.27A1.27,1.27,0,0,0,17,14Z"/><path class="cls-1" d="M20.25,15.93l-.46-.27a1.6,1.6,0,0,0,0-.71l.46-.27a.44.44,0,0,0,.23-.3.46.46,0,0,0-.05-.38L19.83,13a.51.51,0,0,0-.44-.25.47.47,0,0,0-.25.07l-.45.26a3.5,3.5,0,0,0-.62-.37v-.51a.5.5,0,0,0-.5-.5H16.36a.5.5,0,0,0-.5.5v.51a3.18,3.18,0,0,0-.62.37l-.46-.26a.43.43,0,0,0-.25-.07l-.13,0a.52.52,0,0,0-.3.23L13.49,14a.5.5,0,0,0,.19.68l.24.14.1.06.12.07v0a1.18,1.18,0,0,1,.3.33l.48.84a1.26,1.26,0,0,1,.13.95,1.41,1.41,0,0,1-.28.51,1.18,1.18,0,0,1,.13.18l.35-.2a3.18,3.18,0,0,0,.62.37v.51a.5.5,0,0,0,.5.5h1.21a.5.5,0,0,0,.5-.5V18a3.5,3.5,0,0,0,.62-.37l.45.26a.59.59,0,0,0,.25.07l.13,0a.52.52,0,0,0,.31-.23l.6-1.05A.49.49,0,0,0,20.25,15.93ZM17,17.15a1.85,1.85,0,1,1,1.85-1.85A1.85,1.85,0,0,1,17,17.15Z"/><path class="cls-1" d="M14,18.09l-.37-.21a2.4,2.4,0,0,0,0-.28,2.4,2.4,0,0,0,0-.28l.37-.21a.42.42,0,0,0,.18-.25.4.4,0,0,0,0-.3l-.48-.83a.4.4,0,0,0-.34-.2.36.36,0,0,0-.2.06l-.36.2a3.1,3.1,0,0,0-.5-.29v-.41a.38.38,0,0,0-.39-.39h-1a.39.39,0,0,0-.39.39v.41a2.64,2.64,0,0,0-.49.29l-.37-.2a.33.33,0,0,0-.19-.06l-.11,0a.39.39,0,0,0-.24.18l-.48.83a.41.41,0,0,0,.15.55l.36.21a2.4,2.4,0,0,0,0,.28,2.4,2.4,0,0,0,0,.28l-.36.21a.4.4,0,0,0-.15.54l.48.84a.43.43,0,0,0,.24.18h.11a.32.32,0,0,0,.19-.05l.37-.21a2.22,2.22,0,0,0,.49.3v.4a.4.4,0,0,0,.39.4h1a.39.39,0,0,0,.39-.4v-.4a2.55,2.55,0,0,0,.5-.3l.36.21a.35.35,0,0,0,.2.05h.1a.4.4,0,0,0,.24-.18l.48-.84A.4.4,0,0,0,14,18.09Zm-2.61.6a1.09,1.09,0,1,1,1.09-1.09A1.09,1.09,0,0,1,11.42,18.69Z"/><rect class="cls-2" width="24" height="24"/></svg>