<?xml version="1.0" encoding="utf-8"?>
<!-- Generator: Adobe Illustrator 24.0.2, SVG Export Plug-In . SVG Version: 6.00 Build 0)  -->
<svg version="1.1" id="Layer_1" xmlns="http://www.w3.org/2000/svg" xmlns:xlink="http://www.w3.org/1999/xlink" x="0px" y="0px"
	 viewBox="0 0 24 24" style="enable-background:new 0 0 24 24;" xml:space="preserve">
<style type="text/css">
	.st0{fill:#4A6EE2;}
	.st1{fill:none;}
</style>
<title>Artboard 11</title>
<path class="st0" d="M19.6,3.9H4.4c-0.5,0-0.9,0.4-0.9,0.9v14.3c0,0.5,0.4,0.9,0.9,0.9h15.2c0.5,0,0.9-0.4,0.9-0.9V4.9
	C20.5,4.4,20.1,3.9,19.6,3.9z M17.8,5.3c0.4,0,0.8,0.4,0.7,0.8c0,0.4-0.4,0.8-0.8,0.7c-0.4,0-0.7-0.3-0.7-0.8
	C17,5.7,17.3,5.3,17.8,5.3C17.8,5.3,17.8,5.3,17.8,5.3z M15.2,5.3c0.4,0,0.8,0.3,0.8,0.8c0,0.4-0.3,0.8-0.8,0.8
	c-0.4,0-0.8-0.3-0.8-0.8S14.8,5.3,15.2,5.3z M5.8,5.7h3c0.2,0,0.4,0.2,0.4,0.4c0,0.2-0.2,0.4-0.4,0.4c0,0,0,0,0,0h-3
	c-0.2,0-0.4-0.2-0.4-0.4C5.4,5.9,5.6,5.7,5.8,5.7z M19,18.5c0,0.1-0.1,0.1-0.1,0.1h0H5.1c0,0-0.1-0.1-0.1-0.1V8.6h14.1L19,18.5z"/>
<path class="st0" d="M13,11l1.6,1.6l-4.1,4.1l-1.6-1.7L13,11z M15.8,10.6l-0.7-0.7c-0.3-0.3-0.7-0.3-1,0l-0.7,0.7l1.6,1.6l0.8-0.8
	C16,11.1,16,10.8,15.8,10.6L15.8,10.6z M8,17.3c0,0.1,0,0.2,0.2,0.2c0,0,0.1,0,0.1,0l1.8-0.4l-1.6-1.6L8,17.3z"/>
<rect class="st1" width="24" height="24"/>
</svg>
