<?xml version="1.0" encoding="utf-8"?>
<!-- Generator: Adobe Illustrator 24.0.2, SVG Export Plug-In . SVG Version: 6.00 Build 0)  -->
<svg version="1.1" id="Layer_1" xmlns="http://www.w3.org/2000/svg" xmlns:xlink="http://www.w3.org/1999/xlink" x="0px" y="0px"
	 viewBox="0 0 24 24" style="enable-background:new 0 0 24 24;" xml:space="preserve">
<style type="text/css">
	.st0{fill:#4A6EE2;}
	.st1{fill:none;}
</style>
<title>Artboard 31</title>
<path class="st0" d="M16.7,4H7.3C5.5,4,4,5.5,4,7.3l0,0v9.4C4,18.5,5.5,20,7.3,20c0,0,0,0,0,0h9.4c1.8,0,3.3-1.5,3.3-3.3
	c0,0,0,0,0,0V7.3C20,5.5,18.5,4,16.7,4L16.7,4z M8.9,16.3c-0.1,0.2-0.4,0.4-0.7,0.4c-0.1,0-0.3,0-0.4-0.1c-0.4-0.2-0.5-0.7-0.3-1.1
	l0.2-0.3h1.8L8.9,16.3z M7.4,14.7c-0.4,0-0.7-0.4-0.7-0.9c0-0.4,0.3-0.7,0.7-0.7H9l2.1-3.7l-0.6-1c-0.2-0.4-0.1-0.8,0.3-1.1
	c0,0,0,0,0,0l0,0c0.4-0.2,0.8-0.1,1.1,0.3c0,0,0,0,0,0L12,7.9l0.1-0.2c0.2-0.4,0.7-0.5,1.1-0.3c0,0,0,0,0,0c0.2,0.1,0.3,0.3,0.4,0.5
	c0.1,0.2,0,0.4-0.1,0.6l-2.7,4.6h1.7l0.9,1.6L7.4,14.7z M16.5,14.7h-0.6l0.5,0.9c0.2,0.4,0.1,0.8-0.3,1.1c-0.1,0.1-0.3,0.1-0.4,0.1
	c-0.1,0-0.1,0-0.2,0c-0.2-0.1-0.4-0.2-0.5-0.4l-2.7-4.7l0.9-1.6l1.8,3h1.5c0.4,0,0.7,0.4,0.7,0.9C17.2,14.3,16.9,14.6,16.5,14.7
	L16.5,14.7z"/>
<rect class="st1" width="24" height="24"/>
</svg>
