<?xml version="1.0" encoding="utf-8"?>
<!-- Generator: Adobe Illustrator 24.0.2, SVG Export Plug-In . SVG Version: 6.00 Build 0)  -->
<svg version="1.1" id="Layer_1" xmlns="http://www.w3.org/2000/svg" xmlns:xlink="http://www.w3.org/1999/xlink" x="0px" y="0px"
	 viewBox="0 0 24 24" style="enable-background:new 0 0 24 24;" xml:space="preserve">
<style type="text/css">
	.st0{fill:#4A6EE2;}
	.st1{fill:none;}
</style>
<title>Artboard 15</title>
<path class="st0" d="M7.5,10.3V11H5.7c-0.7,0-1.2,0.5-1.2,1.2c0,0,0,0,0,0v1.7c0,0.2,0.2,0.4,0.4,0.4c0.2,0,0.4-0.2,0.4-0.4v-1.7
	c0-0.3,0.2-0.5,0.5-0.5h1.7v3.2H6.1c-0.7,0-1.2,0.5-1.2,1.2v1.7c0,0.2,0.2,0.4,0.4,0.4c0.2,0,0.4-0.2,0.4-0.4v-1.7
	c0-0.3,0.2-0.5,0.5-0.5h1.3l0,0c0,1,0.4,2,1.1,2.8H8.2C7.5,18.4,7,19,7,19.6c0,0,0,0,0,0v0.7c0,0.2,0.2,0.4,0.4,0.4s0.4-0.2,0.4-0.4
	v-0.7c0-0.3,0.2-0.5,0.5-0.5h1.3c0.6,0.3,1.2,0.5,1.9,0.5h0.2V9.8H8C7.7,9.8,7.5,10,7.5,10.3C7.5,10.3,7.5,10.3,7.5,10.3z"/>
<path class="st0" d="M9.4,6.8C8.9,7.4,8.5,8.2,8.4,9h7.1c-0.1-0.8-0.4-1.5-1-2.1l1.7-3c0.1-0.2,0.1-0.4,0-0.5
	c-0.2-0.1-0.4-0.1-0.5,0c0,0,0,0.1-0.1,0.1L14,6.4c-1.2-0.8-2.8-0.8-4,0L8.3,3.5C8.2,3.3,8,3.2,7.8,3.2S7.6,3.5,7.6,3.7
	c0,0,0,0.1,0.1,0.1L9.4,6.8z"/>
<path class="st0" d="M18.3,11h-1.7v-0.7c0-0.3-0.2-0.5-0.5-0.5h-3.6v9.9h0.2c0.7,0,1.3-0.2,1.9-0.5h1.3c0.3,0,0.5,0.2,0.5,0.5v0.7
	c0,0.2,0.2,0.4,0.4,0.4s0.4-0.2,0.4-0.4c0,0,0,0,0,0v-0.7c0-0.7-0.5-1.2-1.2-1.2h-0.4c0.7-0.7,1.1-1.7,1.1-2.8l0,0h1.4
	c0.3,0,0.5,0.2,0.5,0.5v1.7c0,0.2,0.2,0.4,0.4,0.4c0.2,0,0.4-0.2,0.4-0.4v-1.7c0-0.7-0.5-1.2-1.2-1.2h-1.4v-3.2h1.7
	c0.3,0,0.5,0.2,0.5,0.5v1.7c0,0.2,0.2,0.4,0.4,0.4c0.2,0,0.4-0.2,0.4-0.4l0,0v-1.7C19.5,11.6,19,11,18.3,11C18.3,11,18.3,11,18.3,11
	z"/>
<rect class="st1" width="24" height="24"/>
</svg>
