<?xml version="1.0" encoding="utf-8"?>
<!-- Generator: Adobe Illustrator 24.0.2, SVG Export Plug-In . SVG Version: 6.00 Build 0)  -->
<svg version="1.1" id="Layer_1" xmlns="http://www.w3.org/2000/svg" xmlns:xlink="http://www.w3.org/1999/xlink" x="0px" y="0px"
	 viewBox="0 0 24 24" style="enable-background:new 0 0 24 24;" xml:space="preserve">
<style type="text/css">
	.st0{fill:#4A6EE2;}
	.st1{fill:none;}
</style>
<title>Artboard 43</title>
<path class="st0" d="M17.6,4H6.4C5.1,4,4,5.1,4,6.4v11.2C4,18.9,5.1,20,6.4,20h11.2c1.3,0,2.4-1.1,2.4-2.4V6.4C20,5.1,18.9,4,17.6,4
	z M18.3,11.7c0,0.2-0.1,0.3-0.3,0.3c-0.2,0-0.3-0.1-0.3-0.3V9.8l-4,3.9c0.4,0.7,0.3,1.5-0.4,2c-0.7,0.4-1.5,0.3-2-0.4
	c-0.3-0.5-0.3-1.1,0-1.6l-2.8-2.9c-0.2,0.2-0.5,0.2-0.8,0.2c-0.3,0-0.6-0.1-0.8-0.2l-1.9,1.9l-0.4-0.4l1.9-1.9
	C6.1,9.8,6.3,9,6.9,8.5c0.7-0.4,1.5-0.3,2,0.4c0.3,0.5,0.3,1.1,0,1.6l2.9,2.9c0.5-0.3,1.1-0.3,1.6,0l3.9-4h-1.9
	c-0.2,0-0.3-0.1-0.3-0.3c0-0.2,0.1-0.3,0.3-0.3c0,0,0,0,0,0h2.9L18.3,11.7z"/>
<rect class="st1" width="24" height="24"/>
</svg>
