<?xml version="1.0" encoding="utf-8"?>
<!-- Generator: Adobe Illustrator 24.0.2, SVG Export Plug-In . SVG Version: 6.00 Build 0)  -->
<svg version="1.1" id="Layer_1" xmlns="http://www.w3.org/2000/svg" xmlns:xlink="http://www.w3.org/1999/xlink" x="0px" y="0px"
	 viewBox="0 0 24 24" style="enable-background:new 0 0 24 24;" xml:space="preserve">
<style type="text/css">
	.st0{fill:#4A6EE2;}
	.st1{fill:none;}
</style>
<title>Artboard 34</title>
<path class="st0" d="M3.5,17.7V18c0,0.5,0.4,0.9,0.8,0.9c0,0,0,0,0,0h1.7V20H5.5c-0.2,0-0.3,0.2-0.2,0.3c0,0.1,0.1,0.2,0.2,0.2h3.4
	c0.2,0,0.3-0.1,0.3-0.2C9.2,20.2,9.1,20,9,20c0,0-0.1,0-0.1,0H8.3v-1.2H10c0.5,0,0.9-0.4,0.9-0.9l0,0v-0.3L3.5,17.7z M7.8,19.9H6.6
	v-1.1h1.1V19.9z"/>
<path class="st0" d="M8.3,8v0.3c0,0.5,0.4,0.9,0.8,0.9h0h1.7v1.2h-0.6c-0.2,0-0.3,0.2-0.2,0.3c0,0.1,0.1,0.2,0.2,0.2h3.4
	c0.2,0,0.3-0.2,0.2-0.3c0-0.1-0.1-0.2-0.2-0.2h-0.6V9.2h1.7c0.5,0,0.9-0.4,0.9-0.8v0V8H8.3z M12.6,10.3h-1.1V9.2h1.1L12.6,10.3z"/>
<path class="st0" d="M14.8,3.5H9.2c-0.5,0-0.9,0.4-0.9,0.8c0,0,0,0,0,0v3.1h7.4V4.3C15.7,3.9,15.3,3.5,14.8,3.5L14.8,3.5z"/>
<path class="st0" d="M13.1,17.7V18c0,0.5,0.4,0.9,0.8,0.9h0h1.7V20h-0.6c-0.2,0-0.3,0.1-0.3,0.2c0,0.2,0.1,0.3,0.2,0.3
	c0,0,0.1,0,0.1,0h3.4c0.2,0,0.3-0.2,0.2-0.3c0-0.1-0.1-0.2-0.2-0.2H18v-1.2h1.7c0.4,0,0.8-0.4,0.8-0.8v-0.3L13.1,17.7z M17.4,19.9
	h-1.1v-1.1h1.1L17.4,19.9z"/>
<path class="st0" d="M19.6,13.1h-2.5v-0.9c0-0.2-0.1-0.3-0.3-0.3h-4.5v-0.6c0-0.2-0.1-0.3-0.3-0.3c-0.2,0-0.3,0.1-0.3,0.3V12H7.2
	c-0.2,0-0.3,0.1-0.3,0.3v0.9H4.3c-0.5,0-0.9,0.4-0.9,0.8c0,0,0,0,0,0v3.1h7.4V14c0-0.5-0.4-0.9-0.8-0.9h0H7.5v-0.6h9.1v0.6H14
	c-0.5,0-0.9,0.4-0.9,0.8v0v3.1h7.4V14C20.5,13.5,20.1,13.1,19.6,13.1C19.7,13.1,19.7,13.1,19.6,13.1z"/>
<rect class="st1" width="24" height="24"/>
</svg>
