<?xml version="1.0" encoding="utf-8"?>
<!-- Generator: Adobe Illustrator 24.0.2, SVG Export Plug-In . SVG Version: 6.00 Build 0)  -->
<svg version="1.1" id="Layer_1" xmlns="http://www.w3.org/2000/svg" xmlns:xlink="http://www.w3.org/1999/xlink" x="0px" y="0px"
	 viewBox="0 0 24 24" style="enable-background:new 0 0 24 24;" xml:space="preserve">
<style type="text/css">
	.st0{fill:#4A6EE2;}
	.st1{fill:none;}
</style>
<title>Artboard 36</title>
<polygon class="st0" points="16.1,3.5 16.1,7.9 20.5,7.9 "/>
<path class="st0" d="M9.1,19.8l-0.9-3.5c1.1-1.1,1.2-2.9,0.1-4s-2.9-1.2-4-0.1s-1.2,2.9-0.1,4c0,0,0.1,0.1,0.1,0.1l-0.9,3.5
	c-0.1,0.2,0,0.4,0.2,0.6c0.2,0.1,0.4,0.2,0.6,0.1l2-1l2,1c0.1,0,0.2,0.1,0.3,0.1c0.2,0,0.3,0,0.4-0.1C9.2,20.2,9.2,20,9.1,19.8z
	 M6.3,16c-0.9,0-1.7-0.7-1.7-1.7s0.7-1.7,1.7-1.7c0.9,0,1.7,0.7,1.7,1.7C8,15.2,7.3,16,6.3,16z"/>
<path class="st0" d="M16.2,9c-0.6,0-1.1-0.5-1.1-1.1c0,0,0,0,0-0.1V3.5H8.5C7.9,3.5,7.4,4,7.4,4.6v5.5c1.9,0.3,3.3,1.9,3.3,3.8
	c0,0.8-0.3,1.6-0.7,2.3l0.7,2.7h8.8c0.6,0,1.1-0.5,1.1-1.1V9H16.2z M10.1,7.8c-0.3,0-0.5-0.3-0.5-0.6c0-0.2,0.2-0.4,0.5-0.5h3.3
	c0.3,0,0.6,0.2,0.6,0.5c0,0.3-0.2,0.6-0.5,0.6c0,0-0.1,0-0.1,0H10.1z M17.8,14.4h-5.5c-0.3,0-0.6-0.2-0.6-0.5c0-0.3,0.2-0.6,0.5-0.6
	c0,0,0.1,0,0.1,0h5.5c0.3,0,0.5,0.3,0.5,0.6C18.2,14.2,18,14.4,17.8,14.4z M17.8,11.1h-6.6c-0.3,0-0.6-0.2-0.6-0.5s0.2-0.6,0.5-0.6
	c0,0,0.1,0,0.1,0h6.6c0.3,0,0.5,0.3,0.5,0.6C18.2,10.9,18,11.1,17.8,11.1z"/>
<rect class="st1" width="24" height="24"/>
</svg>
