<?xml version="1.0" encoding="utf-8"?>
<!-- Generator: Adobe Illustrator 24.0.2, SVG Export Plug-In . SVG Version: 6.00 Build 0)  -->
<svg version="1.1" id="Layer_1" xmlns="http://www.w3.org/2000/svg" xmlns:xlink="http://www.w3.org/1999/xlink" x="0px" y="0px"
	 viewBox="0 0 24 24" style="enable-background:new 0 0 24 24;" xml:space="preserve">
<style type="text/css">
	.st0{fill:none;}
	.st1{fill:#4A6EE2;}
	.st2{fill:none;stroke:#4A6EE2;stroke-width:0.5;stroke-linecap:round;stroke-miterlimit:10;}
</style>
<title>Artboard 12</title>
<rect class="st0" width="24" height="24"/>
<circle class="st1" cx="5.7" cy="9.7" r="2"/>
<path class="st1" d="M6.4,12.2H4.9c-1.5,0-2.7,1.3-2.7,2.8v0.4c0,0.2,0.1,0.4,0.3,0.4h6.2c0.2,0,0.3-0.2,0.3-0.4V15
	C9.1,13.5,8,12.2,6.4,12.2C6.4,12.2,6.4,12.2,6.4,12.2z"/>
<circle class="st1" cx="18.3" cy="9.7" r="2"/>
<path class="st1" d="M19.1,12.2h-1.5c-1.5,0-2.7,1.3-2.7,2.8c0,0,0,0,0,0v0.4c0,0.2,0.1,0.4,0.3,0.4h6.2c0.2,0,0.3-0.2,0.3-0.4V15
	C21.8,13.5,20.6,12.2,19.1,12.2C19.1,12.2,19.1,12.2,19.1,12.2z"/>
<path class="st2" d="M7.4,7.2c0-2.5,2-4.5,4.5-4.5s4.5,2,4.5,4.5"/>
<polyline class="st2" points="15.4,7.1 16.5,7.6 17.3,6.7 "/>
<path class="st2" d="M16.3,16.8c0,2.5-2,4.5-4.5,4.5s-4.5-2-4.5-4.5"/>
<polyline class="st2" points="8.3,16.9 7.3,16.4 6.4,17.3 "/>
</svg>
