<?xml version="1.0" encoding="utf-8"?>
<!-- Generator: Adobe Illustrator 24.0.2, SVG Export Plug-In . SVG Version: 6.00 Build 0)  -->
<svg version="1.1" id="Layer_1" xmlns="http://www.w3.org/2000/svg" xmlns:xlink="http://www.w3.org/1999/xlink" x="0px" y="0px"
	 viewBox="0 0 24 24" style="enable-background:new 0 0 24 24;" xml:space="preserve">
<style type="text/css">
	.st0{fill:#4A6EE2;}
	.st1{fill:none;}
</style>
<title>Artboard 38</title>
<polygon class="st0" points="9.6,4 9.6,4.7 18.8,4.7 18.8,16 19.6,16 19.6,4 "/>
<polygon class="st0" points="7.9,6 17,6 17,17.3 17.9,17.3 17.9,5.3 7.9,5.3 "/>
<polygon class="st0" points="6.1,7.3 15.3,7.3 15.3,18.7 16.1,18.7 16.1,6.7 6.1,6.7 "/>
<path class="st0" d="M4.4,20h10V8h-10V20z M6.5,11h5.2v0.4H6.5V11z M6.5,12.9h4v0.4h-4L6.5,12.9z M6.5,14.7h4v0.4h-4L6.5,14.7z
	 M6.5,16.6h5.2V17H6.5V16.6z"/>
<rect class="st1" width="24" height="24"/>
</svg>
