<?xml version="1.0" encoding="utf-8"?>
<!-- Generator: Adobe Illustrator 24.0.2, SVG Export Plug-In . SVG Version: 6.00 Build 0)  -->
<svg version="1.1" id="Layer_1" xmlns="http://www.w3.org/2000/svg" xmlns:xlink="http://www.w3.org/1999/xlink" x="0px" y="0px"
	 viewBox="0 0 24 24" style="enable-background:new 0 0 24 24;" xml:space="preserve">
<style type="text/css">
	.st0{fill:#4A6EE2;}
	.st1{fill:none;}
</style>
<title>Artboard 40</title>
<path class="st0" d="M20.4,10.9H20c0,0-1.9-3.7-1.9-3.7C18,7,17.8,6.9,17.6,6.9h-4.5V4.8c0-0.4-0.3-0.7-0.6-0.7c0,0,0,0,0,0h-0.9
	c-0.4,0-0.7,0.3-0.7,0.7v2.1H6.4C6.3,6.9,6.1,7,6,7.2l-2,3.7H3.7c-0.4,0-0.7,0.3-0.7,0.6V12c0.1,1.9,1.7,3.3,3.6,3.2
	c1.7-0.1,3.1-1.5,3.2-3.2v-0.4c0-0.3-0.2-0.6-0.6-0.6c0,0,0,0-0.1,0H8.8L7.3,8h3.6v9.6H7.1c-0.4,0-0.7,0.3-0.7,0.7v0.9
	c0,0.4,0.3,0.7,0.7,0.7h9.9c0.4,0,0.7-0.3,0.7-0.7c0,0,0,0,0,0v-0.9c0-0.4-0.3-0.7-0.6-0.7c0,0,0,0,0,0h-3.8V8h3.7l-1.5,2.9H15
	c-0.4,0-0.7,0.3-0.7,0.6V12c0.1,1.9,1.8,3.3,3.6,3.1c1.7-0.1,3-1.4,3.1-3.1v-0.4C21,11.2,20.8,10.9,20.4,10.9
	C20.4,10.9,20.4,10.9,20.4,10.9L20.4,10.9z M7.5,10.9H5.3l1.1-2.2L7.5,10.9z M16.5,10.9l1.1-2.2l1.1,2.2H16.5z"/>
<rect class="st1" width="24" height="24"/>
</svg>
