<?xml version="1.0" encoding="utf-8"?>
<!-- Generator: Adobe Illustrator 24.0.2, SVG Export Plug-In . SVG Version: 6.00 Build 0)  -->
<svg version="1.1" id="Layer_1" xmlns="http://www.w3.org/2000/svg" xmlns:xlink="http://www.w3.org/1999/xlink" x="0px" y="0px"
	 viewBox="0 0 24 24" style="enable-background:new 0 0 24 24;" xml:space="preserve">
<style type="text/css">
	.st0{fill:#4A6EE2;}
	.st1{fill:none;}
</style>
<title>Artboard 16</title>
<path class="st0" d="M12,3.9c-4.5,0-8.1,3.6-8.1,8.1s3.6,8.1,8.1,8.1s8.1-3.6,8.1-8.1l0,0C20.1,7.5,16.5,3.9,12,3.9z M15,10.5
	l-5.7,6.8c0,0-0.1,0.1-0.1,0.1c0,0-0.1,0-0.1,0c-0.1-0.1-0.1-0.2,0-0.3l2-4.8H9.1c-0.1,0-0.1,0-0.1-0.1c0-0.1,0-0.1,0-0.2l2.7-5.4
	c0-0.1,0.1-0.1,0.2-0.1h2.8c0.1,0,0.1,0,0.1,0.1c0,0.1,0,0.1,0,0.2l-2.1,3.3h2.1c0.1,0,0.2,0.1,0.2,0.2C15.1,10.4,15,10.5,15,10.5
	L15,10.5z"/>
<rect class="st1" width="24" height="24"/>
</svg>
