<?xml version="1.0" encoding="utf-8"?>
<!-- Generator: Adobe Illustrator 24.0.2, SVG Export Plug-In . SVG Version: 6.00 Build 0)  -->
<svg version="1.1" id="Layer_1" xmlns="http://www.w3.org/2000/svg" xmlns:xlink="http://www.w3.org/1999/xlink" x="0px" y="0px"
	 viewBox="0 0 24 24" style="enable-background:new 0 0 24 24;" xml:space="preserve">
<style type="text/css">
	.st0{fill:#4A6EE2;}
	.st1{fill:none;}
</style>
<title>Artboard 23</title>
<path class="st0" d="M18.8,5.4l-1.9-2.2C16.7,3.1,16.5,3,16.3,3H7C5.9,3,5,3.9,5,5v14c0,1.1,0.9,2,2,2h10c1.1,0,2-0.9,2-2V6.1
	C19,5.9,18.9,5.6,18.8,5.4z M15.1,11.9L15.1,11.9c-0.2,0-0.3-0.2-0.4-0.3c-0.1-0.5-0.1-1.2-0.1-1.7l-1.1,1.4l1.3,3.8l-4.1-1l0.8,4.2
	l-3.7-0.6c-0.2,0-0.4-0.2-0.3-0.4c0-0.2,0.2-0.4,0.4-0.3c0,0,0,0,0,0l2.6,0.4L9.6,13l3.9,1l-1-2.8l1.2-1.6c-0.6-0.1-1.2-0.2-1.3-0.2
	c-0.2,0-0.3-0.1-0.4-0.3c-0.1-0.2,0-0.4,0.3-0.5c0.1,0,0.2-0.1,2.2,0.3l0.6,0.1l-0.1,0.1c0.1,0.1,0.1,0.2,0.1,0.2c0,0,0,0,0,0.1
	c0,0.1,0,0.1,0,0.3s0,0.5,0.1,0.7c0,0.5,0.1,1.1,0.1,1.1C15.4,11.7,15.3,11.8,15.1,11.9z M17.8,6.3h-1.7c-0.2,0-0.4-0.2-0.4-0.4l0,0
	V4c0-0.2,0.1-0.3,0.3-0.1L18,6C18.1,6.2,18.1,6.3,17.8,6.3z"/>
<rect class="st1" width="24" height="24"/>
</svg>
