<?xml version="1.0" encoding="utf-8"?>
<!-- Generator: Adobe Illustrator 24.0.2, SVG Export Plug-In . SVG Version: 6.00 Build 0)  -->
<svg version="1.1" id="Layer_1" xmlns="http://www.w3.org/2000/svg" xmlns:xlink="http://www.w3.org/1999/xlink" x="0px" y="0px"
	 viewBox="0 0 24 24" style="enable-background:new 0 0 24 24;" xml:space="preserve">
<style type="text/css">
	.st0{fill:#4A6EE2;}
	.st1{fill:none;}
</style>
<title>Artboard 7</title>
<path class="st0" d="M18.6,4h-6.1v2.4c0.2,0,0.3,0,0.5,0c1,0.1,1.8,1,1.7,2c-0.1,0.9-0.8,1.7-1.7,1.7c-0.2,0-0.3,0-0.5-0.1v1.5h2.2
	c0.3,0,0.5,0.2,0.5,0.5c0,0.1,0,0.2-0.1,0.3c-0.2,0.2-0.2,0.4-0.2,0.6c0,0.5,0.4,0.9,0.9,0.9c0.5,0,0.9-0.4,0.9-0.9
	c0-0.2-0.1-0.5-0.2-0.6c-0.2-0.2-0.2-0.5,0-0.7c0.1-0.1,0.2-0.1,0.3-0.1H20V5.4C20,4.6,19.4,4,18.6,4z"/>
<path class="st0" d="M12.9,7.3c-0.2,0-0.5,0.1-0.6,0.2c-0.2,0.2-0.5,0.2-0.7,0c-0.1-0.1-0.1-0.2-0.1-0.3V4H5.4C4.6,4,4,4.6,4,5.4
	v6.1h2.4c0-0.2,0-0.3,0-0.5c0.1-1,1-1.8,2-1.7c0.9,0.1,1.7,0.8,1.7,1.7c0,0.2,0,0.3-0.1,0.5h1.5V9.3c0-0.3,0.3-0.4,0.5-0.4
	c0.1,0,0.1,0,0.2,0.1c0.2,0.2,0.4,0.2,0.6,0.2c0.5,0,0.9-0.4,0.9-0.9S13.5,7.4,12.9,7.3L12.9,7.3z"/>
<path class="st0" d="M11.1,13.9c0.2,0,0.3,0,0.5,0v-1.4H9.3c-0.3,0-0.4-0.3-0.4-0.5c0-0.1,0.1-0.2,0.1-0.3c0.2-0.2,0.2-0.4,0.2-0.6
	c0-0.5-0.4-0.9-0.9-0.9c-0.5,0-0.9,0.4-0.9,0.9l0,0c0,0.2,0.1,0.5,0.2,0.6c0.2,0.2,0.2,0.5,0,0.7c-0.1,0.1-0.2,0.1-0.3,0.1H4v6.1
	C4,19.4,4.6,20,5.4,20h6.1v-2.4c-0.2,0-0.3,0.1-0.5,0.1c-1-0.1-1.8-1-1.7-2C9.4,14.7,10.1,13.9,11.1,13.9z"/>
<path class="st0" d="M17.6,12.5c0,0.2,0.1,0.3,0.1,0.5c-0.1,1-1,1.8-2,1.7c-0.9-0.1-1.7-0.8-1.7-1.7c0-0.2,0-0.3,0-0.5h-1.4v2.2
	c0,0.3-0.2,0.5-0.5,0.5c-0.1,0-0.2,0-0.3-0.1c-0.2-0.2-0.4-0.2-0.6-0.2c-0.5,0-0.9,0.4-0.9,0.9c0,0.5,0.4,0.9,0.9,0.9
	c0.2,0,0.5-0.1,0.6-0.2c0.2-0.2,0.5-0.2,0.7,0c0.1,0.1,0.1,0.2,0.1,0.3V20h6.1c0.8,0,1.4-0.6,1.4-1.4v-6.1H17.6z"/>
<rect class="st1" width="24" height="24"/>
</svg>
