<?xml version="1.0" encoding="utf-8"?>
<!-- Generator: Adobe Illustrator 24.0.2, SVG Export Plug-In . SVG Version: 6.00 Build 0)  -->
<svg version="1.1" id="Layer_1" xmlns="http://www.w3.org/2000/svg" xmlns:xlink="http://www.w3.org/1999/xlink" x="0px" y="0px"
	 viewBox="0 0 24 24" style="enable-background:new 0 0 24 24;" xml:space="preserve">
<style type="text/css">
	.st0{fill:#4A6EE2;}
	.st1{fill:none;}
</style>
<title>Artboard 19</title>
<path class="st0" d="M10.7,11.1c0,0.2,0.2,0.4,0.4,0.4c0.2,0,0.4-0.2,0.4-0.4l0,0c0-0.2-0.2-0.4-0.4-0.4
	C10.9,10.7,10.7,10.8,10.7,11.1z"/>
<path class="st0" d="M13.8,15.9c2.6,0,4.9-1.8,5.6-4.4h-1.7c-0.2,0.7-1,1.1-1.7,0.8c-0.5-0.2-0.9-0.7-0.9-1.3c0-0.2,0-0.4,0.1-0.6
	l-0.9-0.9c-0.2,0.1-0.4,0.1-0.6,0.1c-0.2,0-0.4,0-0.6-0.1l-0.9,0.9c0.3,0.7,0,1.4-0.6,1.8c-0.7,0.3-1.4,0-1.8-0.6
	c-0.2-0.4-0.2-0.8,0-1.1L8.3,8.8c-0.8,3,1,6.1,4.1,6.9C12.8,15.9,13.3,15.9,13.8,15.9z"/>
<path class="st0" d="M13.4,8.5c0,0.2,0.2,0.4,0.4,0.4c0,0,0,0,0,0c0.2,0,0.4-0.2,0.4-0.4C14.2,8.2,14,8,13.8,8
	C13.5,8,13.3,8.2,13.4,8.5C13.3,8.5,13.3,8.5,13.4,8.5z"/>
<path class="st0" d="M16,11.1c0,0.2,0.2,0.4,0.4,0.4c0,0,0,0,0,0c0.2,0,0.4-0.2,0.4-0.4c0-0.2-0.2-0.4-0.4-0.4
	C16.2,10.7,16,10.8,16,11.1C16,11.1,16,11.1,16,11.1z"/>
<path class="st0" d="M13.8,4.5c-2.3,0-4.3,1.3-5.2,3.4l2,2c0.4-0.2,0.8-0.2,1.1,0L12.6,9c-0.1-0.2-0.1-0.4-0.1-0.6
	c0-0.7,0.6-1.3,1.3-1.3c0.7,0,1.3,0.6,1.3,1.3c0,0.2,0,0.4-0.1,0.6l0.9,0.9c0.2-0.1,0.4-0.1,0.6-0.1c0.6,0,1.1,0.4,1.2,0.9h1.8
	c0-0.1,0-0.3,0-0.4C19.5,7,16.9,4.5,13.8,4.5z"/>
<path class="st0" d="M8.1,6.7c0-0.7-0.6-1.3-1.3-1.3c-0.6,0-1.1,0.4-1.3,0.9h-1v0.9h1C5.7,7.7,6.2,8,6.8,8C7,8,7.1,8,7.3,7.9
	l0.9,0.9c0.1-0.3,0.2-0.6,0.3-0.9L7.9,7.2C8,7.1,8.1,6.9,8.1,6.7z"/>
<path class="st0" d="M6.8,19.1l3.4-3.4c-0.7-0.5-1.4-1.1-1.9-1.9l-3.4,3.4c-0.5,0.6-0.4,1.4,0.2,1.9C5.5,19.5,6.3,19.5,6.8,19.1z"/>
<rect class="st1" width="24" height="24"/>
</svg>
