<?xml version="1.0" encoding="utf-8"?>
<!-- Generator: Adobe Illustrator 24.0.2, SVG Export Plug-In . SVG Version: 6.00 Build 0)  -->
<svg version="1.1" id="Layer_1" xmlns="http://www.w3.org/2000/svg" xmlns:xlink="http://www.w3.org/1999/xlink" x="0px" y="0px"
	 viewBox="0 0 24 24" style="enable-background:new 0 0 24 24;" xml:space="preserve">
<style type="text/css">
	.st0{fill:#4A6EE2;}
	.st1{fill:none;}
</style>
<title>Artboard 51</title>
<path class="st0" d="M16.2,4.5v2H7.8v-2H5.3v16h13.4v-16L16.2,4.5z M10.1,18.2l-0.7,0.7l-0.7-0.7L8,18.9l-0.7-0.7L8,17.5l-0.7-0.7
	L8,16.1l0.7,0.7l0.7-0.7l0.7,0.7l-0.7,0.7L10.1,18.2z M10.1,14.2l-0.7,0.7l-0.7-0.7L8,14.9l-0.7-0.7L8,13.5l-0.7-0.7L8,12.1l0.7,0.7
	l0.7-0.7l0.7,0.7l-0.7,0.7L10.1,14.2z M10.1,10.2l-0.7,0.7l-0.7-0.7L8,10.9l-0.7-0.7L8,9.5L7.3,8.8L8,8.1l0.7,0.7l0.7-0.7l0.7,0.7
	L9.4,9.5L10.1,10.2z M16.7,19h-5.6v-1h5.6V19z M16.7,17h-5.6v-1h5.6V17z M16.7,15h-5.6v-1h5.6V15z M16.7,13h-5.6v-1h5.6V13z
	 M16.7,11h-5.6v-1h5.6V11z M16.7,9h-5.6V8h5.6V9z"/>
<rect x="8.8" y="3.5" class="st0" width="6.4" height="2.1"/>
<rect class="st1" width="24" height="24"/>
</svg>
