<?xml version="1.0" encoding="utf-8"?>
<!-- Generator: Adobe Illustrator 24.0.2, SVG Export Plug-In . SVG Version: 6.00 Build 0)  -->
<svg version="1.1" id="Layer_1" xmlns="http://www.w3.org/2000/svg" xmlns:xlink="http://www.w3.org/1999/xlink" x="0px" y="0px"
	 viewBox="0 0 24 24" style="enable-background:new 0 0 24 24;" xml:space="preserve">
<style type="text/css">
	.st0{fill:#4A6EE2;}
	.st1{fill:none;}
</style>
<title>Artboard 29</title>
<path class="st0" d="M14.1,7c0.9,0.5,1.4,1.4,1.5,2.5c0.4,0.2,0.7,0.2,1.1,0.3c1.5,0,2.6-1.2,2.6-2.6s-1.2-2.6-2.6-2.6
	C15.3,4.4,14.1,5.6,14.1,7z"/>
<path class="st0" d="M12.1,12.4c1.5,0,2.6-1.2,2.6-2.6c0-1.5-1.2-2.6-2.6-2.6S9.5,8.3,9.5,9.8S10.6,12.4,12.1,12.4L12.1,12.4z"/>
<path class="st0" d="M13.2,12.6H11c-1.9,0-3.4,1.5-3.4,3.4c0,0,0,0,0,0v2.8l0.2,0.1c1.5,0.5,3,0.7,4.6,0.7c1.4,0,2.7-0.2,4-0.8
	l0.2-0.1l0,0V16C16.6,14.1,15.1,12.6,13.2,12.6z"/>
<path class="st0" d="M17.8,9.9h-2.2c0,0.9-0.4,1.7-1,2.3c1.7,0.5,2.9,2.1,2.9,3.8v0.8c1.2,0,2.4-0.3,3.5-0.7l0.2-0.1l0,0v-2.7
	C21.2,11.4,19.7,9.9,17.8,9.9z"/>
<path class="st0" d="M7.3,9.7c0.5,0,1-0.1,1.4-0.4c0.1-0.8,0.6-1.6,1.2-2.1c0,0,0-0.1,0-0.1c0-1.5-1.2-2.6-2.6-2.6
	c-1.5,0-2.6,1.2-2.6,2.6S5.8,9.7,7.3,9.7C7.3,9.7,7.3,9.7,7.3,9.7z"/>
<path class="st0" d="M9.6,12.1c-0.6-0.6-1-1.4-1-2.3H6.2c-1.9,0-3.4,1.5-3.4,3.4l0,0v2.8L3,16.1c1.2,0.4,2.5,0.6,3.8,0.7V16
	C6.8,14.2,7.9,12.6,9.6,12.1z"/>
<rect class="st1" width="24" height="24"/>
</svg>
