<?xml version="1.0" encoding="utf-8"?>
<!-- Generator: Adobe Illustrator 24.0.2, SVG Export Plug-In . SVG Version: 6.00 Build 0)  -->
<svg version="1.1" id="Layer_1" xmlns="http://www.w3.org/2000/svg" xmlns:xlink="http://www.w3.org/1999/xlink" x="0px" y="0px"
	 viewBox="0 0 24 24" style="enable-background:new 0 0 24 24;" xml:space="preserve">
<style type="text/css">
	.st0{fill:#4A6EE2;}
	.st1{fill:none;}
</style>
<title>Artboard 5</title>
<g id="surface1">
	<path class="st0" d="M5.4,6.2c0.1,0,0.1,0,0.1,0.1l4.6,4.6l0.8-0.8L6.3,5.5c0,0-0.1-0.1-0.1-0.2L6,4.2L4.1,3.1L3.1,4l1.1,1.9
		L5.4,6.2z"/>
	<path class="st0" d="M9.4,16.7l7.3-7.3c0.1-0.1,0.2-0.1,0.3-0.1c1.7,0.4,3.4-0.6,3.9-2.3C21,6.8,21,6.5,21,6.2c0-0.1,0-0.1,0-0.2
		l-1.7,1.7c-0.1,0.1-0.2,0.1-0.3,0.1L17,7.2C17,7.1,16.9,7,16.8,7l-0.6-2c0-0.1,0-0.2,0.1-0.3L18,3c-1.8-0.1-3.3,1.2-3.4,3
		c0,0.3,0,0.7,0.1,1c0,0.1,0,0.2-0.1,0.3l-7.3,7.3c-0.1,0.1-0.2,0.1-0.3,0.1c-0.3-0.1-0.5-0.1-0.8-0.1C4.5,14.5,3,16,3,17.7
		S4.4,21,6.2,21c1.8,0,3.2-1.4,3.3-3.2c0-0.3,0-0.5-0.1-0.8C9.3,16.9,9.4,16.8,9.4,16.7z M7,19H5.5l-0.8-1.3l0.8-1.3H7l0.8,1.3L7,19
		z M8.2,15.3l7.1-7.1l0.5,0.5l-7,7.1L8.2,15.3z"/>
	<path class="st0" d="M18.4,20.8c1,0.4,2.1-0.1,2.5-1.1c0.2-0.4,0.2-0.9,0-1.4L18.4,20.8z"/>
	<path class="st0" d="M20.4,17.6L16.8,14c-0.4,0.3-1,0.3-1.4,0c-0.4-0.4-0.4-1-0.1-1.4l-0.5-0.5l-2.8,2.8l0.5,0.5
		c0.4-0.4,1.1-0.3,1.4,0.1c0.3,0.4,0.3,0.9,0,1.3l3.6,3.6l0.1,0.1l2.7-2.7C20.5,17.7,20.5,17.7,20.4,17.6z M18.5,18.9l-3.2-3.2
		l0.5-0.4l3.2,3.2L18.5,18.9z"/>
</g>
<rect class="st1" width="24" height="24"/>
</svg>
