<?xml version="1.0" encoding="utf-8"?>
<!-- Generator: Adobe Illustrator 24.0.2, SVG Export Plug-In . SVG Version: 6.00 Build 0)  -->
<svg version="1.1" id="Layer_1" xmlns="http://www.w3.org/2000/svg" xmlns:xlink="http://www.w3.org/1999/xlink" x="0px" y="0px"
	 viewBox="0 0 24 24" style="enable-background:new 0 0 24 24;" xml:space="preserve">
<style type="text/css">
	.st0{fill:#4A6EE2;}
	.st1{fill:none;}
</style>
<title>Artboard 25</title>
<path class="st0" d="M11.3,4.2c-0.3,0-0.6-0.2-0.6-0.5c0,0,0,0,0,0V3H9.3v0.7c0,0.3-0.3,0.6-0.6,0.6h-1v1.2h4.6V4.2H11.3z"/>
<path class="st0" d="M20.1,7.2c-0.4-0.3-1-0.2-1.3,0.2c0,0,0,0,0,0l-0.2,0.3L20,8.8l0.2-0.3C20.5,8.1,20.5,7.5,20.1,7.2z"/>
<path class="st0" d="M6.8,12.4h6.5c0.1,0,0.1,0,0.2,0l3.1-4V5.8c0-0.8-0.7-1.5-1.5-1.5h-1.6V6c0,0.3-0.3,0.6-0.6,0.6c0,0,0,0,0,0
	H7.2C6.9,6.6,6.6,6.3,6.6,6V4.3H5.1C4.2,4.3,3.6,5,3.5,5.8v13.6c0,0.9,0.7,1.5,1.5,1.5H15c0.9,0,1.5-0.7,1.5-1.5c0,0,0,0,0,0v-4.3
	L16,15.9c-0.1,0.1-0.2,0.2-0.3,0.2l-2.3,0.5h-0.1c-0.3,0-0.6-0.2-0.6-0.5c0,0,0,0,0,0l-0.1-2.3c0-0.1,0-0.1,0-0.2H6.8
	c-0.3,0-0.5-0.3-0.5-0.6C6.4,12.7,6.6,12.5,6.8,12.4L6.8,12.4z M6.8,15.4h3.7c0.3,0,0.6,0.2,0.6,0.5c0,0.3-0.2,0.6-0.5,0.6
	c-0.1,0-0.1,0-0.2,0H6.8c-0.3,0-0.5-0.3-0.5-0.6C6.4,15.7,6.6,15.5,6.8,15.4z M6.8,9.4h6.5c0.3,0,0.6,0.2,0.6,0.5s-0.2,0.6-0.5,0.6
	c-0.1,0-0.1,0-0.2,0H6.8c-0.3,0-0.5-0.3-0.5-0.6C6.4,9.6,6.6,9.4,6.8,9.4z"/>
<polygon class="st0" points="17.9,8.5 13.8,13.9 13.8,15.3 15.2,15 19.4,9.7 "/>
<rect class="st1" width="24" height="24"/>
</svg>
