<?xml version="1.0" encoding="utf-8"?>
<!-- Generator: Adobe Illustrator 24.0.2, SVG Export Plug-In . SVG Version: 6.00 Build 0)  -->
<svg version="1.1" id="Layer_1" xmlns="http://www.w3.org/2000/svg" xmlns:xlink="http://www.w3.org/1999/xlink" x="0px" y="0px"
	 viewBox="0 0 24 24" style="enable-background:new 0 0 24 24;" xml:space="preserve">
<style type="text/css">
	.st0{fill:#4A6EE2;}
	.st1{fill:none;}
</style>
<title>Artboard 8</title>
<path class="st0" d="M20.7,15.7H9c-0.2,0-0.3-0.1-0.3-0.3V8c0-0.2,0.1-0.3,0.3-0.3h11.7C20.8,7.7,21,7.8,21,8v7.3
	C21,15.5,20.9,15.6,20.7,15.7C20.7,15.7,20.7,15.7,20.7,15.7z M17.5,18h-1.2v-1.5h-2.8V18h-1.2c-0.2,0-0.4,0.3-0.4,0.5
	c0,0.2,0.2,0.3,0.4,0.4h5.2c0.2,0,0.4-0.3,0.4-0.5C17.8,18.2,17.7,18,17.5,18z M10.1,6.8H4.3C4.1,6.8,3.9,7,3.9,7.3c0,0,0,0,0,0
	c0,0.2,0.2,0.4,0.5,0.4h3.5c0,0.1,0,0.2,0,0.3v0.8H4.3C4.1,8.8,3.9,9,3.8,9.2S4,9.7,4.2,9.8c0,0,0.1,0,0.1,0h3.5v1.1H4.3
	c-0.2,0-0.4,0.2-0.4,0.4c0,0,0,0,0,0c0,0.2,0.2,0.4,0.5,0.4h3.5v3.6c0,0.7,0.5,1.2,1.2,1.2h1v1.9c0,0.2-0.2,0.4-0.4,0.5H3.4
	c-0.2,0-0.4-0.2-0.4-0.5V5.6c0-0.2,0.2-0.4,0.4-0.4h6.2c0.2,0,0.4,0.2,0.4,0.4V6.8z M5.8,15.6c0,0.4,0.3,0.7,0.7,0.7
	s0.7-0.3,0.7-0.7c0-0.4-0.3-0.7-0.7-0.7c0,0,0,0,0,0C6.2,14.9,5.8,15.2,5.8,15.6z"/>
<rect class="st1" width="24" height="24"/>
</svg>
