<?xml version="1.0" encoding="utf-8"?>
<!-- Generator: Adobe Illustrator 24.0.2, SVG Export Plug-In . SVG Version: 6.00 Build 0)  -->
<svg version="1.1" id="Layer_1" xmlns="http://www.w3.org/2000/svg" xmlns:xlink="http://www.w3.org/1999/xlink" x="0px" y="0px"
	 viewBox="0 0 24 24" style="enable-background:new 0 0 24 24;" xml:space="preserve">
<style type="text/css">
	.st0{fill:#4A6EE2;}
	.st1{fill:none;}
</style>
<title>Artboard 27</title>
<path class="st0" d="M8.2,13.4c0.5,0,1,0,1.5-0.1V7.9c-0.5-0.1-1-0.1-1.5-0.1C5.3,7.8,3,8.9,3,10.3v0.5C3,12.2,5.3,13.4,8.2,13.4z"
	/>
<path class="st0" d="M8.2,16.2c0.5,0,1,0,1.5-0.1v-1.6c-0.5,0.1-1,0.1-1.5,0.1c-2.5,0-4.6-0.9-5.1-2C3,12.8,3,12.9,3,13.1v0.6
	C3,15.1,5.3,16.2,8.2,16.2z"/>
<path class="st0" d="M9.7,17.5v-0.1c-0.5,0.1-1,0.1-1.5,0.1c-2.5,0-4.6-0.9-5.1-2C3,15.6,3,15.8,3,16v0.5C3,17.9,5.3,19,8.2,19
	c0.6,0,1.1,0,1.6-0.1c-0.1-0.3-0.2-0.6-0.2-0.9V17.5z"/>
<path class="st0" d="M15.8,3.5c-2.9,0-5.2,1.1-5.2,2.5v0.6c0,1.4,2.3,2.5,5.2,2.5S21,8,21,6.6V6C21,4.6,18.7,3.5,15.8,3.5z"/>
<path class="st0" d="M15.8,10.3c-2.5,0-4.6-0.9-5.1-2c-0.1,0.2-0.1,0.3-0.1,0.5v0.5c0,1.4,2.3,2.5,5.2,2.5S21,10.8,21,9.4V8.8
	c0-0.2,0-0.4-0.1-0.5C20.4,9.5,18.3,10.3,15.8,10.3z"/>
<path class="st0" d="M15.8,13.1c-2.5,0-4.6-0.9-5.1-2c-0.1,0.2-0.1,0.3-0.1,0.5v0.6c0,1.4,2.3,2.5,5.2,2.5s5.2-1.1,5.2-2.5v-0.6
	c0-0.2,0-0.4-0.1-0.5C20.4,12.3,18.3,13.1,15.8,13.1z"/>
<path class="st0" d="M15.8,16.1c-2.5,0-4.6-0.9-5.1-2c-0.1,0.2-0.1,0.3-0.1,0.5v0.5c0,1.4,2.3,2.5,5.2,2.5s5.2-1.1,5.2-2.5v-0.5
	c0-0.2,0-0.4-0.1-0.5C20.4,15.3,18.3,16.1,15.8,16.1z"/>
<path class="st0" d="M15.8,18.9c-2.5,0-4.6-0.9-5.1-2c-0.1,0.2-0.1,0.3-0.1,0.5V18c0,1.4,2.3,2.5,5.2,2.5S21,19.4,21,18v-0.5
	c0-0.2,0-0.4-0.1-0.5C20.4,18.1,18.3,18.9,15.8,18.9z"/>
<rect class="st1" width="24" height="24"/>
</svg>
