<?xml version="1.0" encoding="utf-8"?>
<!-- Generator: Adobe Illustrator 24.0.2, SVG Export Plug-In . SVG Version: 6.00 Build 0)  -->
<svg version="1.1" id="Layer_1" xmlns="http://www.w3.org/2000/svg" xmlns:xlink="http://www.w3.org/1999/xlink" x="0px" y="0px"
	 viewBox="0 0 24 24" style="enable-background:new 0 0 24 24;" xml:space="preserve">
<style type="text/css">
	.st0{fill:#4A6EE2;}
	.st1{fill:none;}
</style>
<title>Artboard 54</title>
<path class="st0" d="M20.3,9.4c-0.2-0.2-0.4-0.3-0.6-0.3H4.4c-0.5,0-0.9,0.4-0.9,0.9c0,0,0,0,0,0.1l0.8,8.8c0,0.4,0.4,0.8,0.8,0.8
	h13.7c0.4,0,0.8-0.3,0.9-0.8l0.8-8.8C20.5,9.8,20.4,9.5,20.3,9.4z M14.9,17.8H9.1c-0.5,0-0.9-0.4-0.9-0.9c0-1.2,1-2.1,2.1-2.1H11
	c-1-0.6-1.3-1.8-0.8-2.8c0.6-1,1.8-1.3,2.8-0.8c1,0.6,1.3,1.8,0.8,2.8c-0.2,0.3-0.5,0.6-0.8,0.8h0.6c1.1,0,2.1,0.9,2.1,2v0.1
	C15.8,17.3,15.4,17.7,14.9,17.8C14.9,17.7,14.9,17.8,14.9,17.8z M18.9,7.5c0,0.4-0.3,0.6-0.6,0.6H5.8c-0.4,0-0.6-0.4-0.6-0.7
	c0-0.3,0.3-0.5,0.6-0.6h12.4C18.6,6.8,18.9,7.1,18.9,7.5C18.9,7.5,18.9,7.5,18.9,7.5L18.9,7.5z M17.1,5.1c0,0.4-0.3,0.6-0.6,0.6h-9
	C7.2,5.7,6.9,5.4,6.9,5c0-0.3,0.3-0.5,0.6-0.6h9C16.9,4.5,17.2,4.7,17.1,5.1z"/>
<rect class="st1" width="24" height="24"/>
</svg>
