<?xml version="1.0" encoding="utf-8"?>
<!-- Generator: Adobe Illustrator 24.0.2, SVG Export Plug-In . SVG Version: 6.00 Build 0)  -->
<svg version="1.1" id="Layer_1" xmlns="http://www.w3.org/2000/svg" xmlns:xlink="http://www.w3.org/1999/xlink" x="0px" y="0px"
	 viewBox="0 0 24 24" style="enable-background:new 0 0 24 24;" xml:space="preserve">
<style type="text/css">
	.st0{fill:#4A6EE2;}
	.st1{fill:#D0D4E3;}
	.st2{fill:none;}
</style>
<title>Artboard 55</title>
<path class="st0" d="M9.5,14.7h0.3c0.2-0.5,0.6-0.9,1.2-0.9h1c0.2,0,0.5,0.1,0.7,0.2c0-0.2,0.1-0.3,0.2-0.5l0.6-1.1
	c0.2-0.3,0.5-0.5,0.8-0.6c0.1,0,0.2,0,0.4,0c0.2,0,0.3,0,0.5,0.1c0.1-0.4,0.3-0.7,0.6-0.9h-5.3c-0.3,0-0.5-0.2-0.5-0.5V5.2
	c0-0.2-0.1-0.3-0.2-0.4C9.6,4.6,9.5,4.6,9.3,4.6c-3.5,0.4-6.1,3.5-5.7,7c0.3,2.4,1.9,4.5,4.2,5.3c-0.1-0.3,0-0.6,0.1-0.9l0.5-0.8
	c0.2-0.3,0.4-0.5,0.8-0.6C9.3,14.7,9.4,14.7,9.5,14.7z"/>
<path class="st0" d="M11.6,9.9h5.3c0.2,0,0.3-0.1,0.4-0.2c0.1-0.1,0.2-0.3,0.1-0.4c-0.3-3.1-2.7-5.5-5.8-5.8c-0.2,0-0.3,0-0.4,0.1
	C11.1,3.7,11,3.9,11,4v5.3C11,9.6,11.2,9.9,11.6,9.9C11.6,9.9,11.6,9.9,11.6,9.9z"/>
<path class="st1" d="M17,14c-0.7,0-1.3,0.6-1.3,1.3s0.6,1.3,1.3,1.3c0.7,0,1.3-0.6,1.3-1.3c0,0,0,0,0,0C18.3,14.6,17.7,14,17,14
	C17,14,17,14,17,14z"/>
<path class="st0" d="M20.3,15.9l-0.5-0.3c0.1-0.2,0.1-0.5,0-0.7l0.5-0.3c0.1-0.1,0.2-0.2,0.2-0.3c0-0.1,0-0.3,0-0.4l-0.6-1
	c-0.1-0.2-0.3-0.3-0.4-0.3c-0.1,0-0.2,0-0.3,0.1l-0.5,0.3c-0.2-0.1-0.4-0.3-0.6-0.4v-0.5c0-0.3-0.2-0.5-0.5-0.5h-1.2
	c-0.3,0-0.5,0.2-0.5,0.5v0.5c-0.2,0.1-0.4,0.2-0.6,0.4l-0.5-0.3c-0.1,0-0.2-0.1-0.3-0.1h-0.1c-0.1,0-0.2,0.1-0.3,0.2l-0.6,1
	c-0.1,0.2,0,0.5,0.2,0.7l0.2,0.1l0.1,0.1l0.1,0.1l0,0c0.1,0.1,0.2,0.2,0.3,0.3l0.5,0.8c0.2,0.3,0.2,0.6,0.1,1
	c-0.1,0.2-0.2,0.4-0.3,0.5c0,0.1,0.1,0.1,0.1,0.2l0.4-0.2c0.2,0.1,0.4,0.3,0.6,0.4v0.5c0,0.3,0.2,0.5,0.5,0.5h1.2
	c0.3,0,0.5-0.2,0.5-0.5V18c0.2-0.1,0.4-0.2,0.6-0.4l0.5,0.3c0.1,0,0.2,0.1,0.3,0.1h0.1c0.1,0,0.2-0.1,0.3-0.2l0.6-1
	c0.2-0.2,0.1-0.5-0.1-0.7C20.3,16,20.3,15.9,20.3,15.9z M17,17.1c-1,0-1.8-0.8-1.8-1.9s0.8-1.8,1.8-1.8s1.9,0.8,1.9,1.8
	S18,17.1,17,17.1L17,17.1z"/>
<path class="st0" d="M14,18.1l-0.4-0.2c0-0.1,0-0.2,0-0.3c0-0.1,0-0.2,0-0.3l0.4-0.2c0.1-0.1,0.2-0.1,0.2-0.3c0-0.1,0-0.2,0-0.3
	l-0.5-0.8c-0.1-0.1-0.2-0.2-0.3-0.2c-0.1,0-0.1,0-0.2,0.1l-0.4,0.2c-0.2-0.1-0.3-0.2-0.5-0.3v-0.4c0-0.2-0.2-0.4-0.4-0.4
	c0,0,0,0,0,0h-1c-0.2,0-0.4,0.2-0.4,0.4v0v0.4c-0.2,0.1-0.3,0.2-0.5,0.3l-0.4-0.2c-0.1,0-0.1-0.1-0.2-0.1H9.4
	c-0.1,0-0.2,0.1-0.2,0.2l-0.5,0.8c-0.1,0.2,0,0.4,0.1,0.5l0.4,0.2c0,0.1,0,0.2,0,0.3c0,0.1,0,0.2,0,0.3l-0.4,0.2
	c-0.2,0.1-0.3,0.3-0.1,0.5l0.5,0.8c0.1,0.1,0.1,0.2,0.2,0.2h0.1c0.1,0,0.1,0,0.2,0l0.4-0.2c0.1,0.1,0.3,0.2,0.5,0.3v0.4
	c0,0.2,0.2,0.4,0.4,0.4h1c0.2,0,0.4-0.2,0.4-0.4c0,0,0,0,0,0v-0.4c0.2-0.1,0.3-0.2,0.5-0.3l0.4,0.2c0.1,0,0.1,0.1,0.2,0h0.1
	c0.1,0,0.2-0.1,0.2-0.2l0.5-0.8C14.3,18.4,14.2,18.2,14,18.1z M11.4,18.7c-0.6,0-1.1-0.5-1.1-1.1s0.5-1.1,1.1-1.1
	c0.6,0,1.1,0.5,1.1,1.1C12.5,18.2,12,18.7,11.4,18.7L11.4,18.7z"/>
<rect class="st2" width="24" height="24"/>
</svg>
