<?xml version="1.0" encoding="utf-8"?>
<!-- Generator: Adobe Illustrator 24.0.1, SVG Export Plug-In . SVG Version: 6.00 Build 0)  -->
<svg version="1.1" id="Layer_1" xmlns="http://www.w3.org/2000/svg" xmlns:xlink="http://www.w3.org/1999/xlink" x="0px" y="0px"
	 viewBox="0 0 310.8 57" style="enable-background:new 0 0 310.8 57;" xml:space="preserve">
<style type="text/css">
	.st0{enable-background:new    ;}
	.st1{fill:#F5F5F5;}
	.st2{fill:#4495D1;}
	.st3{fill:#A3CF62;}
</style>
<g class="st0">
	<path class="st1" d="M85.5,21c-0.7-0.7-1.5-1.4-2.6-1.8c-1.1-0.5-2.4-0.7-3.8-0.7c-2.1,0-3.6,0.4-4.5,1.2c-0.9,0.8-1.4,1.8-1.4,3.2
		c0,0.7,0.1,1.3,0.4,1.7c0.3,0.5,0.6,0.8,1.2,1.2c0.5,0.3,1.2,0.6,2,0.9c0.8,0.2,1.8,0.5,2.9,0.7c1.3,0.3,2.4,0.6,3.4,0.9
		c1,0.3,1.9,0.7,2.6,1.2s1.2,1.1,1.6,1.8c0.4,0.7,0.6,1.6,0.6,2.6c0,1.1-0.2,2-0.6,2.8c-0.4,0.8-1,1.5-1.7,2
		c-0.7,0.5-1.6,0.9-2.7,1.2s-2.2,0.4-3.4,0.4c-3.6,0-6.8-1.1-9.4-3.4l1.2-1.9c0.4,0.4,0.9,0.9,1.5,1.3c0.6,0.4,1.2,0.7,1.9,1
		c0.7,0.3,1.5,0.5,2.3,0.7c0.8,0.2,1.7,0.2,2.6,0.2c1.9,0,3.3-0.3,4.4-1s1.6-1.7,1.6-3.1c0-0.7-0.1-1.3-0.4-1.8s-0.7-0.9-1.3-1.3
		c-0.6-0.4-1.3-0.7-2.2-0.9c-0.9-0.3-1.9-0.5-3.1-0.8c-1.2-0.3-2.3-0.6-3.2-0.9c-0.9-0.3-1.7-0.7-2.3-1.2c-0.6-0.5-1.1-1-1.4-1.7
		c-0.3-0.6-0.5-1.4-0.5-2.4c0-1.1,0.2-2,0.6-2.9c0.4-0.8,1-1.6,1.7-2.1c0.7-0.6,1.6-1,2.6-1.3c1-0.3,2.1-0.4,3.4-0.4
		c1.6,0,3,0.2,4.2,0.7c1.2,0.5,2.3,1.1,3.3,2L85.5,21z"/>
	<path class="st1" d="M107.6,37.9v2H91.8V16.6h15.4v2H94.1v8.4h11.5V29H94.1v8.9H107.6z"/>
</g>
<g class="st0">
	<path class="st1" d="M111.9,40V16.6h9.9c1,0,1.9,0.2,2.8,0.6c0.8,0.4,1.6,1,2.2,1.7c0.6,0.7,1.1,1.5,1.4,2.4
		c0.3,0.9,0.5,1.8,0.5,2.7c0,0.9-0.1,1.7-0.4,2.5c-0.3,0.8-0.6,1.5-1.1,2.1c-0.5,0.6-1,1.2-1.6,1.6c-0.6,0.4-1.4,0.7-2.1,0.9l5.7,9
		h-2.6l-5.5-8.6h-6.9V40H111.9z M114.2,29.3h7.7c0.7,0,1.3-0.1,1.9-0.4s1-0.7,1.4-1.2s0.7-1.1,0.9-1.7c0.2-0.6,0.3-1.3,0.3-2
		c0-0.7-0.1-1.4-0.4-2c-0.3-0.6-0.6-1.2-1-1.7c-0.4-0.5-0.9-0.9-1.5-1.2c-0.6-0.3-1.2-0.4-1.8-0.4h-7.5V29.3z"/>
</g>
<g class="st0">
	<path class="st1" d="M132.7,16.6l8.4,20.6l8.3-20.6h2.4L142.1,40h-2l-9.8-23.4H132.7z"/>
	<path class="st1" d="M155.2,40V16.6h2.3V40H155.2z"/>
	<path class="st1" d="M161.8,28.1c0-1.4,0.2-2.8,0.7-4.2c0.5-1.4,1.2-2.6,2.2-3.7c0.9-1.1,2.1-2,3.5-2.7s3-1,4.7-1
		c2.1,0,3.9,0.5,5.4,1.4c1.5,0.9,2.6,2.2,3.3,3.7l-1.8,1.1c-0.4-0.8-0.8-1.4-1.4-1.9c-0.5-0.5-1.1-1-1.7-1.3
		c-0.6-0.3-1.3-0.6-1.9-0.7c-0.7-0.1-1.3-0.2-1.9-0.2c-1.4,0-2.7,0.3-3.7,0.9c-1.1,0.6-2,1.3-2.7,2.2c-0.7,0.9-1.3,2-1.7,3.1
		s-0.6,2.3-0.6,3.5c0,1.3,0.2,2.5,0.7,3.7c0.5,1.2,1.1,2.2,1.8,3.2c0.8,0.9,1.7,1.6,2.8,2.2c1.1,0.5,2.2,0.8,3.5,0.8
		c0.7,0,1.3-0.1,2-0.2c0.7-0.2,1.4-0.4,2-0.8c0.6-0.4,1.2-0.8,1.8-1.4c0.5-0.5,1-1.2,1.4-2l1.9,1c-0.4,0.9-0.9,1.7-1.6,2.3
		c-0.7,0.7-1.4,1.2-2.3,1.7s-1.7,0.8-2.7,1.1c-0.9,0.2-1.9,0.4-2.8,0.4c-1.6,0-3.1-0.4-4.4-1.1c-1.3-0.7-2.5-1.6-3.5-2.8
		s-1.7-2.4-2.3-3.9C162.1,31.1,161.8,29.6,161.8,28.1z"/>
	<path class="st1" d="M201.8,37.9v2H186V16.6h15.4v2h-13.1v8.4h11.5V29h-11.5v8.9H201.8z"/>
	<path class="st1" d="M214.5,40V16.6h9.7c1,0,1.9,0.2,2.8,0.6c0.8,0.4,1.6,1,2.2,1.7s1.1,1.5,1.5,2.4c0.4,0.9,0.5,1.8,0.5,2.7
		c0,1-0.2,1.9-0.5,2.8c-0.3,0.9-0.8,1.7-1.4,2.4c-0.6,0.7-1.3,1.2-2.1,1.6c-0.8,0.4-1.7,0.6-2.8,0.6h-7.6V40H214.5z M216.8,29.3h7.5
		c0.7,0,1.3-0.1,1.9-0.4c0.6-0.3,1-0.7,1.4-1.2c0.4-0.5,0.7-1.1,0.9-1.7c0.2-0.6,0.3-1.3,0.3-2c0-0.7-0.1-1.4-0.4-2.1
		c-0.3-0.6-0.6-1.2-1-1.7c-0.4-0.5-0.9-0.9-1.5-1.1c-0.6-0.3-1.2-0.4-1.8-0.4h-7.3V29.3z"/>
	<path class="st1" d="M235.1,40V16.6h9.9c1,0,1.9,0.2,2.8,0.6c0.8,0.4,1.6,1,2.2,1.7s1.1,1.5,1.4,2.4s0.5,1.8,0.5,2.7
		c0,0.9-0.1,1.7-0.4,2.5c-0.3,0.8-0.6,1.5-1.1,2.1c-0.5,0.6-1,1.2-1.6,1.6c-0.6,0.4-1.4,0.7-2.1,0.9l5.7,9h-2.6l-5.5-8.6h-6.9V40
		H235.1z M237.4,29.3h7.7c0.7,0,1.3-0.1,1.9-0.4c0.6-0.3,1-0.7,1.4-1.2c0.4-0.5,0.7-1.1,0.9-1.7c0.2-0.6,0.3-1.3,0.3-2
		c0-0.7-0.1-1.4-0.4-2c-0.3-0.6-0.6-1.2-1-1.7c-0.4-0.5-0.9-0.9-1.5-1.2c-0.6-0.3-1.2-0.4-1.8-0.4h-7.5V29.3z"/>
	<path class="st1" d="M256.6,40V16.6h2.3V40H256.6z"/>
	<path class="st1" d="M285.6,40V20.8L277,35.6h-1.4l-8.5-14.9V40h-2.3V16.6h2.4l9.1,16l9.2-16h2.3V40H285.6z"/>
	<path class="st1" d="M309.5,37.9v2h-15.7V16.6h15.4v2H296v8.4h11.5V29H296v8.9H309.5z"/>
</g>
<g id="Group_48338" transform="translate(280 19)">
	<path id="Path_1162" class="st2" d="M-263.2,17.9L-275,1.5l11.8-16.4h24.4l10.9,15.2l2.6-3.3l-11.5-16h-28.6L-280,1.5l14.7,20.5
		h27.5l-4.3-4.1C-242.1,17.9-263.2,17.9-263.2,17.9z"/>
	<path id="Path_1163" class="st2" d="M-236.8-2.9h-27.5l4.3,4.1h21.1l11.8,16.4l-11.8,16.4h-24.4l-10.9-15.2l-2.8,3.2l11.6,16.1
		h28.5l14.7-20.5L-236.8-2.9z"/>
	<path id="Path_1164" class="st3" d="M-235.2,14.5h-24.7L-267,4.1h24.7L-235.2,14.5z"/>
</g>
</svg>
