<?xml version="1.0" encoding="utf-8"?>
<!-- Generator: Adobe Illustrator 24.0.1, SVG Export Plug-In . SVG Version: 6.00 Build 0)  -->
<svg version="1.1" id="Layer_1" xmlns="http://www.w3.org/2000/svg" xmlns:xlink="http://www.w3.org/1999/xlink" x="0px" y="0px"
	 viewBox="0 0 543.9 541.1" style="enable-background:new 0 0 543.9 541.1;" xml:space="preserve">
<style type="text/css">
	.st0{fill:#FDFDFE;stroke:#282E5B;stroke-width:7.091;stroke-miterlimit:10;}
	.st1{fill:#282E5B;}
	.st2{fill:#FFFFFF;}
	.st3{fill:none;stroke:#00030E;stroke-width:0.25;stroke-linecap:round;stroke-miterlimit:10;}
	.st4{fill:#CFDEFF;}
	.st5{fill:url(#Path_51217_1_);}
	.st6{fill:url(#Path_51218_1_);}
	.st7{fill:url(#Path_51219_1_);}
	.st8{fill:#FAFAFA;}
	.st9{fill:#F6F6F6;}
	.st10{fill:#993590;}
	.st11{fill:#A7B831;}
	.st12{fill:#107490;}
	.st13{fill:#5E449B;}
	.st14{fill:#42D3BB;}
	.st15{fill:#EDCC4C;}
	.st16{fill:#32D267;}
	.st17{fill:#39B5C1;}
	.st18{enable-background:new    ;}
	.st19{fill:#4495D1;}
	.st20{fill:#A3CF62;}
	.st21{fill:#F4B7BC;stroke:#F4B7BC;stroke-width:0.25;stroke-linecap:round;stroke-linejoin:round;}
	.st22{fill:#00030E;stroke:#00030E;stroke-width:0.25;stroke-miterlimit:10;}
	.st23{fill:none;stroke:#00030E;stroke-width:0.25;stroke-linecap:round;stroke-linejoin:round;}
	.st24{fill:url(#Path_51238_1_);stroke:#00030E;stroke-width:0.25;stroke-linecap:round;stroke-linejoin:round;}
	.st25{fill:url(#Path_51240_1_);}
	.st26{fill:#00030E;stroke:#00030E;stroke-width:0.25;stroke-linecap:round;stroke-linejoin:round;}
	.st27{fill:url(#Path_51243_1_);}
	.st28{fill:url(#Path_51246_1_);}
	.st29{fill:#00030E;stroke:#00030E;stroke-width:0.25;stroke-linecap:round;stroke-miterlimit:10;}
	.st30{fill:url(#Path_51251_1_);}
	.st31{fill:url(#Path_51253_1_);}
	.st32{fill:url(#Path_51258_1_);}
	.st33{fill:url(#Path_51260_1_);}
	.st34{fill:url(#Path_51262_1_);stroke:#00030E;stroke-width:0.25;stroke-linecap:round;stroke-linejoin:round;}
	.st35{fill:url(#Path_51263_1_);stroke:#00030E;stroke-width:0.25;stroke-linecap:round;stroke-linejoin:round;}
	.st36{fill:none;stroke:#00030E;stroke-width:0.25;stroke-miterlimit:10;}
</style>
<g id="Group_48034" transform="translate(6815.891 2443.923)">
	<circle id="Ellipse_979" class="st0" cx="-6333.5" cy="-2267.4" r="57.9"/>
	<g id="Group_48033" transform="translate(11.375 10.861)">
		<path id="Path_51287" class="st1" d="M-6345.9-2239.2v6.1c0,0.6,0.5,1.1,1.1,1c0.6,0,1-0.5,1-1v-6.1c0-0.6-0.5-1.1-1.1-1
			C-6345.4-2240.2-6345.8-2239.8-6345.9-2239.2z"/>
		<path id="Path_51288" class="st1" d="M-6326.1-2243.9l3.2,5.2c0.7,1.2,2.6,0.1,1.9-1.1l-3.2-5.2
			C-6325-2246.1-6326.9-2245.1-6326.1-2243.9z"/>
		<path id="Path_51289" class="st1" d="M-6311.1-2258.1l5.3,3.2c0.5,0.3,1.2,0.1,1.5-0.4c0.3-0.5,0.1-1.1-0.4-1.4l-5.3-3.2
			c-0.5-0.3-1.2-0.1-1.5,0.4C-6311.8-2259-6311.6-2258.4-6311.1-2258.1z"/>
		<path id="Path_51290" class="st1" d="M-6305.2-2277.6h6c0.6,0,1.1-0.5,1-1.1c0-0.6-0.5-1-1-1h-6c-0.6,0-1.1,0.5-1,1.1
			C-6306.2-2278.1-6305.8-2277.6-6305.2-2277.6z"/>
		<path id="Path_51291" class="st1" d="M-6310.1-2297.6l5.4-3c1.2-0.7,0.1-2.5-1.1-1.9l-5.4,3
			C-6312.4-2298.7-6311.3-2296.9-6310.1-2297.6z"/>
		<path id="Path_51292" class="st1" d="M-6324-2312.4l2.9-5.2c0.3-0.5,0.1-1.2-0.4-1.5c-0.5-0.3-1.1-0.1-1.4,0.4l-2.9,5.2
			c-0.3,0.5-0.1,1.2,0.4,1.5C-6324.9-2311.8-6324.3-2312-6324-2312.4z"/>
		<path id="Path_51293" class="st1" d="M-6343.7-2318.2v-6c0-0.6-0.5-1.1-1.1-1c-0.6,0-1,0.5-1,1v6c0,0.6,0.5,1.1,1.1,1
			C-6344.2-2317.2-6343.7-2317.7-6343.7-2318.2z"/>
		<path id="Path_51294" class="st1" d="M-6363.8-2313.4l-2.9-5.4c-0.7-1.2-2.5-0.1-1.9,1.1l2.9,5.4
			C-6365-2311.1-6363.1-2312.1-6363.8-2313.4z"/>
		<path id="Path_51295" class="st1" d="M-6378.4-2299.2l-5.3-3.2c-0.5-0.3-1.2-0.1-1.5,0.4c-0.3,0.5-0.1,1.1,0.4,1.4l5.3,3.2
			c0.5,0.3,1.2,0.1,1.4-0.5C-6377.8-2298.3-6378-2298.9-6378.4-2299.2z"/>
		<path id="Path_51296" class="st1" d="M-6384.2-2279.7h-6.1c-0.6,0-1.1,0.5-1,1.1c0,0.6,0.5,1,1,1h6.1c0.6,0,1.1-0.5,1-1.1
			C-6383.2-2279.3-6383.7-2279.7-6384.2-2279.7z"/>
		<path id="Path_51297" class="st1" d="M-6379.6-2259.8l-5.2,3c-0.5,0.3-0.7,1-0.3,1.5c0.3,0.5,0.9,0.6,1.4,0.4l5.2-3
			c0.5-0.3,0.7-1,0.4-1.5C-6378.4-2259.9-6379.1-2260.1-6379.6-2259.8z"/>
		<path id="Path_51298" class="st1" d="M-6365.5-2245.1l-3,5.4c-0.3,0.5-0.1,1.2,0.4,1.5c0.5,0.3,1.1,0.1,1.4-0.4l3-5.4
			c0.3-0.5,0.1-1.2-0.4-1.5C-6364.5-2245.8-6365.2-2245.6-6365.5-2245.1z"/>
		<path id="Path_51299" class="st1" d="M-6347.7-2278.7c0,1.5,1.2,2.7,2.7,2.7h0.2c1.5,0,2.7-1.2,2.7-2.7c0-1.5-1.2-2.7-2.7-2.7
			h-0.2C-6346.5-2281.4-6347.7-2280.2-6347.7-2278.7z"/>
		<path id="Path_51300" class="st1" d="M-6344.3-2278.6v-24.1c0-0.3-0.2-0.5-0.5-0.5c-0.3,0-0.5,0.2-0.5,0.5v24.1
			c0,0.3,0.2,0.5,0.5,0.5C-6344.6-2278-6344.3-2278.3-6344.3-2278.6z"/>
		<path id="Path_51301" class="st1" d="M-6345.1-2279c-0.1,0.3-0.1,0.6,0.2,0.7c0.3,0.1,0.6,0.1,0.7-0.2l17.2-29.7
			c0.1-0.3,0.1-0.6-0.2-0.7c-0.3-0.1-0.6-0.1-0.7,0.2L-6345.1-2279z"/>
	</g>
</g>
<g id="Group_47980" transform="translate(6676.407 2329.817)">
	<g id="Group_47978">
		<path id="Rectangle_1780" class="st2" d="M-6386.3-2325.3h44.1c2.8,0,5.1,2.3,5.1,5.1v63c0,2.8-2.3,5.1-5.1,5.1h-44.1
			c-2.8,0-5.1-2.3-5.1-5.1v-63C-6391.4-2323-6389.1-2325.3-6386.3-2325.3z"/>
		<path id="Path_51216" class="st3" d="M-6341.9-2325.3h-44.7c-2.7,0-4.8,2.2-4.8,4.8c0,0,0,0,0,0v63.6c0,2.7,2.2,4.8,4.8,4.8
			c0,0,0,0,0,0"/>
	</g>
	<g id="Group_47979" transform="translate(14.008 19.668)">
		<rect id="Rectangle_1781" x="-6391.4" y="-2325.3" class="st4" width="31.8" height="2.6"/>
		<rect id="Rectangle_1782" x="-6391.4" y="-2315.3" class="st4" width="31.8" height="2.6"/>
		<rect id="Rectangle_1783" x="-6391.4" y="-2305.2" class="st4" width="31.8" height="2.6"/>
		<rect id="Rectangle_1784" x="-6391.4" y="-2295.2" class="st4" width="31.8" height="2.6"/>
		<rect id="Rectangle_1785" x="-6391.4" y="-2285.2" class="st4" width="31.8" height="2.6"/>
	</g>
	<path id="Rectangle_1786" class="st3" d="M-6384.8-2306.9h3.1c0.5,0,1,0.4,1,1v3.1c0,0.5-0.4,1-1,1h-3.1c-0.5,0-1-0.4-1-1v-3.1
		C-6385.8-2306.4-6385.4-2306.9-6384.8-2306.9z"/>
	<path id="Rectangle_1787" class="st3" d="M-6384.8-2296.8h3.1c0.5,0,1,0.4,1,1v3.1c0,0.5-0.4,1-1,1h-3.1c-0.5,0-1-0.4-1-1v-3.1
		C-6385.8-2296.4-6385.4-2296.8-6384.8-2296.8z"/>
	<path id="Rectangle_1788" class="st3" d="M-6384.8-2286.8h3.1c0.5,0,1,0.4,1,1v3.1c0,0.5-0.4,1-1,1h-3.1c-0.5,0-1-0.4-1-1v-3.1
		C-6385.8-2286.4-6385.4-2286.8-6384.8-2286.8z"/>
	<path id="Rectangle_1789" class="st3" d="M-6384.8-2276.8h3.1c0.5,0,1,0.4,1,1v3.1c0,0.5-0.4,1-1,1h-3.1c-0.5,0-1-0.4-1-1v-3.1
		C-6385.8-2276.3-6385.4-2276.8-6384.8-2276.8z"/>
	<path id="Rectangle_1790" class="st3" d="M-6384.8-2266.7h3.1c0.5,0,1,0.4,1,1v3.1c0,0.5-0.4,1-1,1h-3.1c-0.5,0-1-0.4-1-1v-3.1
		C-6385.8-2266.3-6385.4-2266.7-6384.8-2266.7z"/>
	
		<linearGradient id="Path_51217_1_" gradientUnits="userSpaceOnUse" x1="-6698.1362" y1="-1701.2737" x2="-6699.1362" y2="-1701.2737" gradientTransform="matrix(3.213 0 0 -3.183 15139.3086 -7719.5352)">
		<stop  offset="0" style="stop-color:#13469F"/>
		<stop  offset="1" style="stop-color:#0E55CB"/>
	</linearGradient>
	<path id="Path_51217" class="st5" d="M-6381.7-2302.8l0-3.2l-3.2,0l0,3.2L-6381.7-2302.8z"/>
	
		<linearGradient id="Path_51218_1_" gradientUnits="userSpaceOnUse" x1="-6698.1362" y1="-1701.2616" x2="-6699.1362" y2="-1701.2616" gradientTransform="matrix(3.213 0 0 -3.184 15139.3086 -7711.1484)">
		<stop  offset="0" style="stop-color:#13469F"/>
		<stop  offset="1" style="stop-color:#0E55CB"/>
	</linearGradient>
	<path id="Path_51218" class="st6" d="M-6381.7-2292.7l0-3.2l-3.2,0l0,3.2H-6381.7z"/>
	
		<linearGradient id="Path_51219_1_" gradientUnits="userSpaceOnUse" x1="-6698.1362" y1="-1701.2616" x2="-6699.1362" y2="-1701.2616" gradientTransform="matrix(3.213 0 0 -3.184 15139.3086 -7701.1113)">
		<stop  offset="0" style="stop-color:#13469F"/>
		<stop  offset="1" style="stop-color:#0E55CB"/>
	</linearGradient>
	<path id="Path_51219" class="st7" d="M-6381.7-2282.7l0-3.2l-3.2,0l0,3.2L-6381.7-2282.7z"/>
</g>
<g id="Group_377" transform="matrix(0.391, -0.921, 0.921, 0.391, 5814.93, 2963.898)">
	<g id="Group_376" transform="translate(609.721 355.858)">
		<g id="Group_358" transform="translate(0 45.071)">
			<g id="Group_357" transform="translate(0 0)">
				<path id="Path_1619" class="st8" d="M-345-6754.7l2.2-8.1v8.1h31.2v-8.1l2.2,8.1h12.1l-7.5-27.9c-0.9-3.2-3.8-5.5-7.1-5.5h-6.2
					c-5.5,3.6-12.6,3.6-18.1,0h-6.2c-3.3,0-6.3,2.2-7.1,5.5l-7.5,27.9L-345-6754.7z"/>
			</g>
		</g>
		<g id="Group_375" transform="translate(5.377 0)">
			<g id="Group_359" transform="translate(13.568 14.039)">
				<path id="Path_1620" class="st8" d="M-335.3-6777.2c0-6-4.9-10.9-10.9-10.9c-6,0-10.9,4.9-10.9,10.9c0,2.3,0.7,4.6,2.1,6.5
					c2.1,2.8,3.5,6.2,3.9,9.7l0,0c0.2,1.9,1.8,3.3,3.7,3.3h2c2,0,3.8-1.5,4-3.6l0,0c0.3-3.3,1.6-6.5,3.7-9.1
					C-336.1-6772.4-335.3-6774.7-335.3-6777.2z"/>
			</g>
			<g id="Group_374" transform="translate(0)">
				<g id="Group_361" transform="translate(22.333)">
					<g id="Group_360" transform="translate(0)">
						<path id="Path_1621" class="st8" d="M-354.9-6777.6c-1.2,0-2.1-1-2.1-2.1c0,0,0,0,0,0v-6.2c0-1.2,0.9-2.1,2.1-2.2
							c1.2,0,2.1,0.9,2.2,2.1c0,0,0,0.1,0,0.1v6.2C-352.8-6778.6-353.7-6777.6-354.9-6777.6z"/>
					</g>
				</g>
				<g id="Group_363" transform="translate(0 22.332)">
					<g id="Group_362" transform="translate(0 0)">
						<path id="Path_1622" class="st8" d="M-348.7-6783.8h-6.2c-1.2,0-2.1-1-2.1-2.2c0-1.1,0.9-2.1,2.1-2.1h6.2c1.2,0,2.1,1,2.1,2.2
							C-346.7-6784.8-347.6-6783.9-348.7-6783.8z"/>
					</g>
				</g>
				<g id="Group_365" transform="translate(38.469 22.332)">
					<g id="Group_364" transform="translate(0 0)">
						<path id="Path_1623" class="st8" d="M-348.7-6783.8h-6.2c-1.2,0-2.1-1-2.1-2.2c0-1.1,0.9-2.1,2.1-2.1h6.2c1.2,0,2.1,1,2.1,2.2
							C-346.7-6784.8-347.6-6783.9-348.7-6783.8z"/>
					</g>
				</g>
				<g id="Group_367" transform="translate(6.545 6.541)">
					<g id="Group_366" transform="translate(0 0)">
						<path id="Path_1624" class="st8" d="M-350.5-6779.5c-0.6,0-1.1-0.2-1.5-0.6l-4.4-4.4c-0.8-0.8-0.9-2.2-0.1-3
							c0.8-0.8,2.2-0.9,3-0.1c0,0,0.1,0.1,0.1,0.1l4.4,4.4c0.8,0.8,0.8,2.2,0,3C-349.4-6779.7-350-6779.5-350.5-6779.5
							L-350.5-6779.5z"/>
					</g>
				</g>
				<g id="Group_369" transform="translate(33.748 33.743)">
					<g id="Group_368" transform="translate(0 0)">
						<path id="Path_1625" class="st8" d="M-350.5-6779.5c-0.6,0-1.1-0.2-1.5-0.6l-4.4-4.4c-0.8-0.8-0.8-2.2,0.1-3
							c0.8-0.8,2.1-0.8,2.9,0l4.4,4.4c0.8,0.8,0.8,2.2,0,3C-349.4-6779.7-350-6779.5-350.5-6779.5L-350.5-6779.5z"/>
					</g>
				</g>
				<g id="Group_371" transform="translate(6.539 33.743)">
					<g id="Group_370" transform="translate(0 0)">
						<path id="Path_1626" class="st8" d="M-354.9-6779.5c-1.2,0-2.1-1-2.1-2.1c0-0.6,0.2-1.1,0.6-1.5l4.4-4.4c0.8-0.8,2.2-0.8,3,0
							c0.8,0.8,0.8,2.2,0,3l-4.4,4.4C-353.8-6779.7-354.3-6779.5-354.9-6779.5L-354.9-6779.5z"/>
					</g>
				</g>
				<g id="Group_373" transform="translate(33.747 6.541)">
					<g id="Group_372" transform="translate(0 0)">
						<path id="Path_1627" class="st8" d="M-354.9-6779.5c-1.2,0-2.1-1-2.1-2.1c0-0.6,0.2-1.1,0.6-1.5l4.4-4.4
							c0.8-0.8,2.2-0.9,3-0.1s0.9,2.2,0.1,3c0,0,0,0.1-0.1,0.1l-4.4,4.4C-353.8-6779.7-354.3-6779.5-354.9-6779.5z"/>
					</g>
				</g>
			</g>
		</g>
	</g>
</g>
<g id="Group_48390" transform="translate(5420 1697)">
	<path id="Path_51213" class="st2" d="M-5006.5-1607.6c0-1.6,0.2-3.3,0.5-4.8c0.2-1.1-0.2-2.2-1.2-2.7l-2.2-1.3
		c-1.2-0.7-1.6-2.2-0.9-3.4c0,0,0,0,0,0l2.3-4c0.7-1.2,2.2-1.6,3.4-0.9c0,0,0,0,0,0l2.2,1.3c1,0.5,2.2,0.4,3-0.3
		c2.4-2.2,5.3-3.9,8.4-4.8c1.1-0.3,1.8-1.3,1.8-2.4v-2.5c0-1.4,1.1-2.5,2.5-2.5h4.6c1.4,0,2.5,1.1,2.5,2.5v2.5
		c0,1.1,0.7,2.1,1.8,2.4c3.1,1,6,2.6,8.4,4.8c0.8,0.8,2,0.9,3,0.3l2.2-1.3c1.2-0.7,2.7-0.3,3.4,0.9c0,0,0,0,0,0l2.3,4
		c0.7,1.2,0.3,2.7-0.9,3.4c0,0,0,0,0,0l-2.2,1.3c-1,0.6-1.4,1.7-1.2,2.7c0.7,3.2,0.7,6.5,0,9.7c-0.2,1.1,0.2,2.2,1.2,2.7l2.2,1.3
		c1.2,0.7,1.6,2.2,0.9,3.4c0,0,0,0,0,0l-2.3,4c-0.7,1.2-2.2,1.6-3.4,0.9c0,0,0,0,0,0l-2.2-1.3c-1-0.5-2.2-0.4-3,0.3
		c-2.4,2.2-5.3,3.9-8.4,4.8c-1.1,0.3-1.8,1.3-1.8,2.4v2.5c0,1.4-1.1,2.5-2.5,2.5h-4.6c-1.4,0-2.5-1.1-2.5-2.5v-2.5
		c0-1.1-0.7-2.1-1.8-2.4c-3.1-1-6-2.6-8.4-4.8c-0.8-0.8-2-0.9-3-0.3l-2.2,1.3c-1.2,0.7-2.7,0.3-3.4-0.9c0,0,0,0,0,0l-2.3-4
		c-0.7-1.2-0.3-2.7,0.9-3.4c0,0,0,0,0,0l2.2-1.3c1-0.6,1.4-1.7,1.2-2.7C-5006.3-1604.4-5006.5-1606-5006.5-1607.6z M-4984.4-1596.3
		c6.2,0,11.3-5.1,11.3-11.3c0-6.2-5.1-11.3-11.3-11.3c-6.3,0-11.3,5.1-11.3,11.3c0,0,0,0,0,0
		C-4995.7-1601.4-4990.6-1596.3-4984.4-1596.3z"/>
	<path id="Path_51214" class="st9" d="M-5049.3-1617.8c0-1.3,0.1-2.5,0.4-3.7c0.2-0.8-0.2-1.7-0.9-2.1l-1.7-1
		c-0.9-0.5-1.2-1.7-0.7-2.6c0,0,0,0,0,0l1.8-3.1c0.5-0.9,1.7-1.2,2.6-0.7c0,0,0,0,0,0l1.7,1c0.7,0.4,1.7,0.3,2.3-0.3
		c1.9-1.7,4.1-3,6.5-3.7c0.8-0.2,1.4-1,1.4-1.8v-2c0-1.1,0.9-1.9,1.9-1.9h3.6c1.1,0,1.9,0.9,1.9,1.9v2c0,0.8,0.6,1.6,1.4,1.8
		c2.4,0.8,4.6,2,6.5,3.7c0.6,0.6,1.5,0.7,2.3,0.3l1.7-1c0.9-0.5,2.1-0.2,2.6,0.7c0,0,0,0,0,0l1.8,3.1c0.5,0.9,0.2,2.1-0.7,2.6
		l-1.7,1c-0.7,0.4-1.1,1.3-0.9,2.1c0.5,2.5,0.5,5,0,7.5c-0.2,0.8,0.2,1.7,0.9,2.1l1.7,1c0.9,0.5,1.2,1.7,0.7,2.6l-1.8,3.1
		c-0.5,0.9-1.7,1.2-2.6,0.7l-1.7-1c-0.7-0.4-1.7-0.3-2.3,0.3c-1.9,1.7-4.1,3-6.5,3.7c-0.8,0.2-1.4,1-1.4,1.8v2
		c0,1.1-0.9,1.9-1.9,1.9h-3.6c-1.1,0-1.9-0.9-1.9-1.9v-2c0-0.8-0.6-1.6-1.4-1.8c-2.4-0.8-4.6-2-6.5-3.7c-0.6-0.6-1.5-0.7-2.3-0.3
		l-1.7,1c-0.9,0.5-2.1,0.2-2.6-0.7l-1.8-3.1c-0.5-0.9-0.2-2.1,0.7-2.6c0,0,0,0,0,0l1.7-1c0.7-0.4,1.1-1.3,0.9-2.1
		C-5049.1-1615.3-5049.3-1616.5-5049.3-1617.8z M-5032.2-1609c4.8,0,8.7-3.9,8.7-8.7s-3.9-8.7-8.7-8.7s-8.7,3.9-8.7,8.7l0,0
		C-5040.9-1612.9-5037-1609-5032.2-1609L-5032.2-1609z"/>
</g>
<g id="Group_327" transform="translate(6061.189 2060.548)">
	<g id="Group_325" transform="translate(362.481 358.767)">
		<path id="Path_1603" class="st8" d="M-6376.8-2273.6c-3.1-3.1-5.4-7-6.8-11.1c-0.5-1.5,0.4-3.2,1.9-3.6c0.1,0,0.2-0.1,0.3-0.1l0,0
			c1.5-0.3,2.9,0.6,3.4,2c1.1,3.3,2.9,6.3,5.3,8.8c1,1.1,1.1,2.7,0.2,3.9l0,0c-1,1.3-2.8,1.5-4.1,0.5
			C-6376.7-2273.4-6376.7-2273.5-6376.8-2273.6L-6376.8-2273.6z M-6336.1-2273.6c3.1-3.1,5.4-7,6.8-11.1c0.5-1.5-0.4-3.2-1.9-3.6
			c0,0,0,0,0,0c-0.1,0-0.2-0.1-0.3-0.1l0,0c-1.5-0.3-2.9,0.6-3.4,2c-1.1,3.3-2.9,6.3-5.3,8.8c-1.1,1.1-1.1,3,0,4.1
			S-6337.2-2272.4-6336.1-2273.6C-6336.1-2273.6-6336.1-2273.6-6336.1-2273.6L-6336.1-2273.6z M-6348-2317.5
			c0.5-1.5-0.2-3.2-1.7-3.7c-0.1,0-0.2-0.1-0.3-0.1c-4.2-1-8.6-1-12.8,0c-1.6,0.4-2.5,2-2.1,3.5c0.4,1.5,1.9,2.5,3.4,2.2
			c3.4-0.8,6.9-0.8,10.2,0C-6349.9-2315.3-6348.4-2316.1-6348-2317.5L-6348-2317.5z M-6341.5-2317.6c0,4.2,3.4,7.7,7.7,7.7
			c4.2,0,7.7-3.4,7.7-7.7c0-4.2-3.4-7.7-7.7-7.7c0,0,0,0,0,0h0C-6338.1-2325.3-6341.5-2321.9-6341.5-2317.6L-6341.5-2317.6z
			 M-6339.4-2308.4c-4,1.2-6.8,4.9-6.8,9.1v2.2c0,1.2,1,2.2,2.2,2.2h20.3c1.2,0,2.2-1,2.2-2.2l0,0v-2.2c0-4.2-2.8-7.9-6.8-9.1
			L-6339.4-2308.4z M-6379-2309.9c4.2,0,7.7-3.4,7.7-7.7c0-4.2-3.4-7.7-7.7-7.7c-4.2,0-7.7,3.4-7.7,7.7l0,0
			C-6386.7-2313.4-6383.3-2309.9-6379-2309.9L-6379-2309.9z M-6384.6-2308.4c-4,1.2-6.8,4.9-6.8,9.1v2.2c0,1.2,1,2.2,2.2,2.2
			c0,0,0,0,0,0v0h20.3c1.2,0,2.2-1,2.2-2.2l0,0v-2.2c0-4.2-2.8-7.9-6.8-9.1L-6384.6-2308.4z M-6356.4-2290c-4.2,0-7.7,3.4-7.7,7.7
			c0,4.2,3.4,7.7,7.7,7.7c4.2,0,7.7-3.4,7.7-7.7v0C-6348.8-2286.5-6352.2-2290-6356.4-2290L-6356.4-2290z M-6362-2273.1
			c-4,1.2-6.8,4.9-6.8,9.1v2.2c0,1.2,1,2.2,2.2,2.2h20.3c1.2,0,2.2-1,2.2-2.2l0,0v-2.2c0-4.2-2.8-7.9-6.8-9.1L-6362-2273.1z"/>
	</g>
	<g id="Group_326" transform="translate(388.484 374.802)">
		<path id="Path_1604" class="st8" d="M-6379.6-2316.3L-6379.6-2316.3c-0.8,2.4-3.5,3.8-5.9,2.9s-3.8-3.5-2.9-5.9
			c0.8-2.4,3.5-3.8,5.9-2.9C-6380.1-2321.4-6378.8-2318.8-6379.6-2316.3L-6379.6-2316.3z M-6375.6-2320.9l-0.8,1.1
			c0.3,0.5,0.5,1.1,0.7,1.7l1.3,0.2c0.5,0.1,0.9,0.5,0.9,1v1.1c0,0.5-0.4,0.9-0.9,1l-1.3,0.2c-0.2,0.6-0.4,1.1-0.7,1.7l0.8,1.1
			c0.3,0.4,0.3,1-0.1,1.3l-0.8,0.8c-0.4,0.4-0.9,0.4-1.3,0.1l-1.1-0.8c-0.5,0.3-1.1,0.5-1.7,0.7l-0.2,1.3c-0.1,0.5-0.5,0.9-1,0.9
			h-1.1c-0.5,0-0.9-0.4-1-0.9l-0.2-1.3c-0.6-0.2-1.1-0.4-1.7-0.7l-1.1,0.8c-0.4,0.3-1,0.2-1.3-0.1l-0.8-0.8
			c-0.4-0.4-0.4-0.9-0.1-1.3l0.8-1.1c-0.3-0.5-0.5-1.1-0.7-1.7l-1.3-0.2c-0.5-0.1-0.9-0.5-0.9-1v-1.2c0-0.5,0.4-0.9,0.9-1l1.3-0.2
			c0.2-0.6,0.4-1.1,0.7-1.7l-0.8-1.1c-0.3-0.4-0.2-1,0.1-1.3l0.8-0.8c0.4-0.4,0.9-0.4,1.3-0.1l1.1,0.8c0.5-0.3,1.1-0.5,1.7-0.7
			l0.2-1.3c0.1-0.5,0.5-0.9,1-0.9h1.1c0.5,0,0.9,0.4,1,0.9l0.2,1.3c0.6,0.2,1.1,0.4,1.7,0.7l1.1-0.8c0.4-0.3,1-0.2,1.3,0.1l0.8,0.8
			C-6375.4-2321.9-6375.3-2321.4-6375.6-2320.9L-6375.6-2320.9z"/>
	</g>
</g>
<g id="Group_356" transform="translate(5900.633 1766.008)">
	<g id="Group_329" transform="translate(600.23 642.843)">
		<g id="Group_328" transform="translate(0)">
			<path id="Path_1605" class="st8" d="M-6376.2-2320.9c-5.2-0.1-10.8-0.8-14.8-4.3c0,0,0,0-0.1,0c-0.2,0.5-0.4,1.1-0.4,1.6
				c0,2.7,2.9,5,7.2,6.3c1.9,0.6,3.8,0.9,5.8,1c0.6,0,1.1,0.1,1.7,0.1c1.9,0,3.9-0.2,5.8-0.6c0.6-0.1,1.1-0.3,1.7-0.4
				c-0.2-1.4,0.1-2.9,0.8-4.2c-0.1-0.2-0.2-0.3-0.3-0.5C-6371.2-2321.3-6373.7-2321-6376.2-2320.9L-6376.2-2320.9z"/>
		</g>
	</g>
	<g id="Group_331" transform="translate(624.461 648.436)">
		<g id="Group_330" transform="translate(0 0)">
			<path id="Path_1606" class="st8" d="M-6362.5-2325.3c-3.8,3.1-8.8,4.3-13.7,4.4c-5.2,0-10.9-0.8-14.9-4.4h0
				c-0.3,0.5-0.4,1.1-0.4,1.6c0,2.7,2.9,5,7.2,6.3c1.9,0.6,3.8,0.9,5.8,1c0.6,0,1.1,0.1,1.7,0.1c1.9,0,3.9-0.2,5.8-0.6
				c0.6-0.1,1.2-0.3,1.8-0.5c0,0,0.1,0,0.1,0c0.1,0,0.3-0.1,0.4-0.1c4-1.3,6.6-3.6,6.6-6.1
				C-6362.1-2324.2-6362.2-2324.8-6362.5-2325.3L-6362.5-2325.3z"/>
		</g>
	</g>
	<g id="Group_333" transform="translate(600.229 649.624)">
		<g id="Group_332">
			<path id="Path_1607" class="st8" d="M-6368.7-2322c-2.6,0.8-5.3,1.1-8,1.1c-5-0.1-10.4-0.9-14.3-4.4h0c-0.2,0.5-0.4,1.1-0.4,1.7
				c0,2.7,2.9,5,7.2,6.3c1.9,0.6,3.8,0.9,5.8,1c0.6,0,1.1,0.1,1.7,0.1c1.9,0,3.9-0.2,5.8-0.6c0.6-0.1,1.1-0.3,1.7-0.4
				c-0.2-1.4,0.1-2.9,0.8-4.2C-6368.5-2321.7-6368.6-2321.8-6368.7-2322z"/>
		</g>
	</g>
	<g id="Group_335" transform="translate(624.464 655.212)">
		<g id="Group_334" transform="translate(0 0)">
			<path id="Path_1608" class="st8" d="M-6391-2325.3L-6391-2325.3c-0.3,0.5-0.5,1-0.5,1.6c0,2.7,2.9,5,7.2,6.3
				c1.9,0.6,3.8,0.9,5.8,1c0.6,0,1.1,0.1,1.7,0.1c1.9,0,3.9-0.2,5.8-0.6c0.6-0.1,1.2-0.3,1.8-0.5c0,0,0.1,0,0.1,0
				c0.1,0,0.3-0.1,0.4-0.1c4-1.3,6.6-3.5,6.6-6.1c0-0.6-0.1-1.1-0.3-1.6c-3.8,3.2-8.9,4.3-13.7,4.4
				C-6381.4-2321-6387-2321.7-6391-2325.3z"/>
		</g>
	</g>
	<g id="Group_337" transform="translate(600.221 623.586)">
		<g id="Group_336" transform="translate(0 0)">
			<path id="Path_1609" class="st8" d="M-6384.2-2311.7c1.9,0.6,3.8,0.9,5.8,1c0.6,0,1.1,0.1,1.7,0.1c2,0,3.9-0.2,5.8-0.6
				c0.6-0.1,1.2-0.3,1.8-0.4c0,0,0,0,0.1-0.1c0.1,0,0.3-0.1,0.4-0.1c4-1.3,6.6-3.5,6.6-6.1c0-4-6.6-7.3-14.7-7.3
				c-8.1,0-14.6,3.3-14.6,7.3C-6391.4-2315.3-6388.5-2313-6384.2-2311.7z"/>
		</g>
	</g>
	<g id="Group_339" transform="translate(648.716 616.805)">
		<g id="Group_338" transform="translate(0 0)">
			<path id="Path_1610" class="st8" d="M-6384.3-2311.7c1.9,0.6,3.8,0.9,5.8,1c0.6,0,1.1,0.1,1.7,0.1c2,0,3.9-0.2,5.8-0.6
				c0.6-0.1,1.2-0.3,1.7-0.5c0,0,0.1,0,0.1,0c0.1,0,0.3-0.1,0.4-0.1c4-1.3,6.6-3.6,6.6-6.1c0-4-6.6-7.3-14.7-7.3
				c-8.1,0-14.6,3.3-14.6,7.3C-6391.4-2315.3-6388.5-2313-6384.3-2311.7z"/>
		</g>
	</g>
	<g id="Group_341" transform="translate(654.882 642.874)">
		<g id="Group_340" transform="translate(0 0)">
			<path id="Path_1611" class="st8" d="M-6382.9-2321c-2.7,0-5.5-0.4-8.1-1.1c-0.1,0.2-0.3,0.5-0.4,0.7c0.9,1.1,1.2,2.6,1,4
				c1.9,0.6,3.8,0.9,5.8,1c0.6,0,1.1,0.1,1.7,0.1c2,0,3.9-0.2,5.8-0.6c0.6-0.1,1.2-0.3,1.7-0.5c0,0,0.1,0,0.1,0
				c0.1,0,0.3-0.1,0.4-0.1c4-1.3,6.6-3.6,6.6-6.1c0-0.6-0.1-1.1-0.4-1.6C-6372.6-2322.1-6377.9-2320.9-6382.9-2321z"/>
		</g>
	</g>
	<g id="Group_343" transform="translate(654.83 649.658)">
		<g id="Group_342" transform="translate(0 0)">
			<path id="Path_1612" class="st8" d="M-6382.3-2321c-2.9,0-5.8-0.3-8.7-1.1c-0.1,0.2-0.3,0.5-0.4,0.7c0.9,1.1,1.3,2.6,1.1,4
				c1.9,0.6,3.8,0.9,5.8,1c0.6,0,1.1,0.1,1.7,0.1c2,0,3.9-0.2,5.8-0.6c0.6-0.1,1.2-0.3,1.7-0.4c0,0,0.1,0,0.1-0.1
				c0.1,0,0.3-0.1,0.4-0.1c4-1.3,6.6-3.5,6.6-6.1c0-0.6-0.1-1.1-0.4-1.6C-6372.4-2322.2-6377.5-2321-6382.3-2321z"/>
		</g>
	</g>
	<g id="Group_345" transform="translate(600.229 636.062)">
		<g id="Group_344" transform="translate(0 0)">
			<path id="Path_1613" class="st8" d="M-6391-2325.3L-6391-2325.3c-0.3,0.5-0.4,1.1-0.4,1.6c0,2.7,2.9,5,7.2,6.3
				c1.9,0.6,3.8,0.9,5.8,1c0.6,0,1.1,0,1.7,0c1.9,0,3.9-0.2,5.8-0.6c0.6-0.1,1.1-0.2,1.7-0.4c-0.2-1.8,0.4-3.6,1.5-4.9
				c0,0,0.1-0.1,0.1-0.1c-2.7,0.9-5.6,1.4-8.5,1.5C-6381.3-2321-6387-2321.8-6391-2325.3z"/>
		</g>
	</g>
	<g id="Group_347" transform="translate(648.723 629.254)">
		<g id="Group_346">
			<path id="Path_1614" class="st8" d="M-6376.1-2320.9c-5.2,0-10.9-0.8-14.9-4.3c0,0,0,0,0,0c-0.2,0.5-0.4,1.1-0.4,1.7
				c0,2.7,2.9,5,7.2,6.3c1.9,0.6,3.8,0.9,5.8,1c0.6,0,1.1,0.1,1.7,0.1c2,0,3.9-0.2,5.8-0.6c0.6-0.1,1.2-0.3,1.7-0.4
				c0,0,0.1,0,0.1-0.1c0.1,0,0.3-0.1,0.4-0.1c4-1.3,6.6-3.5,6.6-6.1c0-0.6-0.1-1.1-0.4-1.6
				C-6366.2-2322.2-6371.3-2321-6376.1-2320.9z"/>
		</g>
	</g>
	<g id="Group_349" transform="translate(654.31 636.069)">
		<g id="Group_348" transform="translate(0 0)">
			<path id="Path_1615" class="st8" d="M-6381.8-2320.9c-3.3,0-6.5-0.4-9.6-1.4c1.2,1.4,1.8,3.2,1.6,5c1.9,0.6,3.8,0.9,5.8,1
				c0.6,0,1.1,0.1,1.7,0.1c2,0,3.9-0.2,5.8-0.6c0.6-0.1,1.2-0.3,1.7-0.4c0,0,0.1,0,0.1,0c0.1,0,0.3-0.1,0.4-0.1
				c4-1.3,6.6-3.6,6.6-6.1c0-0.6-0.1-1.1-0.4-1.6C-6371.9-2322.2-6377-2321-6381.8-2320.9z"/>
		</g>
	</g>
	<g id="Group_351" transform="translate(624.49 635.981)">
		<g id="Group_350">
			<path id="Path_1616" class="st8" d="M-6376.8-2325.3c-8.1,0-14.6,3.3-14.6,7.3c0,2.7,2.9,5,7.2,6.3c1.9,0.6,3.8,0.9,5.8,1
				c0.6,0,1.1,0.1,1.7,0.1c1.9,0,3.9-0.2,5.8-0.6c0.6-0.1,1.2-0.3,1.8-0.4c0,0,0.1,0,0.1-0.1c0.1,0,0.3-0.1,0.4-0.1
				c4-1.3,6.6-3.5,6.6-6.1C-6362.1-2322-6368.7-2325.3-6376.8-2325.3z"/>
		</g>
	</g>
	<g id="Group_353" transform="translate(624.464 661.998)">
		<g id="Group_352" transform="translate(0)">
			<path id="Path_1617" class="st8" d="M-6376.2-2320.9c-5.2-0.1-10.8-0.8-14.8-4.3c0,0,0,0-0.1-0.1c-0.3,0.5-0.4,1.1-0.4,1.7
				c0,2.7,2.9,5,7.2,6.3c1.9,0.6,3.8,0.9,5.8,1c0.6,0,1.1,0.1,1.7,0.1c1.9,0,3.9-0.2,5.8-0.6c0.6-0.1,1.2-0.3,1.8-0.4
				c0,0,0.1,0,0.1-0.1c0.1,0,0.3-0.1,0.4-0.1c4-1.3,6.6-3.5,6.6-6.1c0-0.6-0.1-1.1-0.4-1.6
				C-6366.2-2322.1-6371.3-2321-6376.2-2320.9z"/>
		</g>
	</g>
	<g id="Group_355" transform="translate(627.095 592.473)">
		<g id="Group_354" transform="translate(0 0)">
			<path id="Path_1618" class="st8" d="M-6390.8-2295.6c0.4,0.2,0.8,0.1,1.1-0.2l4.9-5.3l5,12.1c0.2,0.4,0.5,0.6,0.9,0.6
				c0.1,0,0.3,0,0.4-0.1l4.9-2c0.5-0.2,0.8-0.8,0.5-1.3c0,0,0,0,0,0l-5-12l7.2,0.2c0.6,0,1-0.4,1-1c0-0.3-0.1-0.6-0.3-0.8
				l-19.6-19.6c-0.4-0.4-1-0.4-1.4,0c-0.2,0.2-0.3,0.5-0.3,0.7v27.8C-6391.4-2296.1-6391.2-2295.8-6390.8-2295.6z"/>
		</g>
	</g>
</g>
<circle id="Ellipse_3" class="st2" cx="269.6" cy="261.7" r="213"/>
<g transform="matrix(1, 0, 0, 1, 6391.42, 2325.31)">
	<path id="Path_340-2" class="st10" d="M-5974.5-1918.3l-146.9-146.9l-0.5,207.6h0l0.2,0c13.3,0,26.6-1.3,39.7-3.8
		c13.2-2.5,26.1-6.3,38.6-11.4c12.7-5.1,24.8-11.5,36.2-18.9C-5995.4-1899.5-5984.5-1908.3-5974.5-1918.3z"/>
</g>
<g transform="matrix(1, 0, 0, 1, 6391.42, 2325.31)">
	<path id="Path_339-2" class="st11" d="M-6268.8-1918.3l146.9-146.9l0.5,207.6h0l-0.2,0c-13.3,0-26.6-1.3-39.7-3.8
		c-13.2-2.5-26.1-6.3-38.6-11.4c-12.7-5.1-24.8-11.5-36.2-18.9C-6247.8-1899.5-6258.8-1908.3-6268.8-1918.3z"/>
</g>
<g transform="matrix(1, 0, 0, 1, 6391.42, 2325.31)">
	<path id="Path_337-2" class="st12" d="M-6329.1-2064.3h207.8l-146.4,147.1l0,0l-0.1-0.1c-19-19-34.1-41.4-44.6-66.1
		c-5.3-12.6-9.4-25.6-12.2-39C-6327.6-2036.2-6329.1-2050.2-6329.1-2064.3z"/>
</g>
<g transform="matrix(1, 0, 0, 1, 6391.42, 2325.31)">
	<path id="Path_335-2" class="st13" d="M-6329.1-2063.5h207.8l-146.4-147.1l0,0l-0.1,0.1c-19,19-34.1,41.4-44.6,66.1
		c-5.3,12.6-9.4,25.6-12.2,39C-6327.6-2091.6-6329.1-2077.6-6329.1-2063.5z"/>
</g>
<g transform="matrix(1, 0, 0, 1, 6391.42, 2325.31)">
	<path id="Path_338-2" class="st14" d="M-5914.1-2064.3h-207.8l146.4,147.1l0,0l0.1-0.1c9.4-9.4,17.9-19.7,25.4-30.8
		c7.5-11.1,14-22.9,19.2-35.3c5.3-12.6,9.4-25.6,12.2-39C-5915.6-2036.2-5914.2-2050.2-5914.1-2064.3z"/>
</g>
<g transform="matrix(1, 0, 0, 1, 6391.42, 2325.31)">
	<path id="Path_334-2" class="st15" d="M-5914.1-2063.5h-207.8l146.4-147.1l0,0l0.1,0.1c9.4,9.4,17.9,19.7,25.4,30.8
		c7.5,11.1,14,22.9,19.2,35.3c5.3,12.6,9.4,25.6,12.2,39C-5915.6-2091.6-5914.2-2077.6-5914.1-2063.5z"/>
</g>
<g transform="matrix(1, 0, 0, 1, 6391.42, 2325.31)">
	<path id="Path_333-2" class="st16" d="M-5974.5-2209.5l-146.9,146.9l-0.5-207.6h0l0.2,0c13.3,0,26.6,1.3,39.7,3.8
		c13.2,2.5,26.1,6.3,38.6,11.4c12.7,5.1,24.8,11.5,36.2,18.9C-5995.4-2228.3-5984.5-2219.4-5974.5-2209.5z"/>
</g>
<g transform="matrix(1, 0, 0, 1, 6391.42, 2325.31)">
	<path id="Path_336-2" class="st17" d="M-6268.8-2209.5l146.9,146.9l0.5-207.6h0l-0.2,0c-13.3,0-26.6,1.3-39.7,3.8
		c-13.2,2.5-26.1,6.3-38.6,11.4c-12.7,5.1-24.8,11.5-36.2,18.9C-6247.8-2228.3-6258.8-2219.4-6268.8-2209.5z"/>
</g>
<g class="st18">
	<path class="st2" d="M179.9,121.7l-0.8-2.7h-4.2l-0.8,2.7h-2.6l4-11.5h3l4,11.5H179.9z M178.5,116.9c-0.8-2.5-1.2-3.9-1.3-4.2
		c-0.1-0.3-0.2-0.6-0.2-0.8c-0.2,0.7-0.7,2.3-1.5,4.9H178.5z"/>
	<path class="st2" d="M191.8,121.7h-2.4v-5.1c0-0.6-0.1-1.1-0.3-1.4c-0.2-0.3-0.6-0.5-1.1-0.5c-0.7,0-1.1,0.2-1.4,0.7
		s-0.4,1.2-0.4,2.2v4.1h-2.4V113h1.8l0.3,1.1h0.1c0.3-0.4,0.6-0.7,1.1-1c0.5-0.2,1-0.3,1.6-0.3c1,0,1.8,0.3,2.3,0.8
		c0.5,0.5,0.8,1.3,0.8,2.4V121.7z"/>
	<path class="st2" d="M199.8,121.7l-0.5-1.2h-0.1c-0.4,0.5-0.8,0.9-1.2,1.1c-0.4,0.2-1,0.3-1.7,0.3c-0.8,0-1.5-0.2-2-0.7
		c-0.5-0.5-0.7-1.2-0.7-2c0-0.9,0.3-1.6,1-2.1s1.6-0.7,2.9-0.7l1.5,0v-0.4c0-0.9-0.5-1.3-1.4-1.3c-0.7,0-1.5,0.2-2.5,0.6l-0.8-1.6
		c1-0.5,2.1-0.8,3.3-0.8c1.2,0,2.1,0.3,2.7,0.8s0.9,1.3,0.9,2.3v5.8H199.8z M199.1,117.6l-0.9,0c-0.7,0-1.2,0.1-1.5,0.4
		c-0.3,0.2-0.5,0.6-0.5,1c0,0.7,0.4,1,1.2,1c0.6,0,1-0.2,1.3-0.5c0.3-0.3,0.5-0.7,0.5-1.3V117.6z"/>
	<path class="st2" d="M206.3,121.7H204v-12.2h2.4V121.7z"/>
	<path class="st2" d="M207.6,113h2.6l1.6,4.9c0.1,0.4,0.2,0.9,0.3,1.5h0c0.1-0.5,0.2-1,0.3-1.5l1.6-4.9h2.6l-3.7,9.9
		c-0.3,0.9-0.8,1.6-1.4,2c-0.6,0.5-1.4,0.7-2.2,0.7c-0.4,0-0.8,0-1.2-0.1v-1.9c0.3,0.1,0.6,0.1,0.9,0.1c0.4,0,0.8-0.1,1.1-0.4
		c0.3-0.3,0.6-0.6,0.7-1.2l0.1-0.4L207.6,113z"/>
	<path class="st2" d="M221.6,119.9c0.4,0,0.9-0.1,1.5-0.3v1.8c-0.6,0.3-1.3,0.4-2.2,0.4c-1,0-1.6-0.2-2.1-0.7
		c-0.4-0.5-0.7-1.2-0.7-2.2v-4.2h-1.1v-1l1.3-0.8l0.7-1.8h1.5v1.9h2.4v1.8h-2.4v4.2c0,0.3,0.1,0.6,0.3,0.8
		C221.1,119.9,221.3,119.9,221.6,119.9z"/>
	<path class="st2" d="M224.8,110.7c0-0.8,0.4-1.2,1.3-1.2c0.9,0,1.3,0.4,1.3,1.2c0,0.4-0.1,0.7-0.3,0.9c-0.2,0.2-0.5,0.3-1,0.3
		C225.2,111.9,224.8,111.5,224.8,110.7z M227.3,121.7h-2.4V113h2.4V121.7z"/>
	<path class="st2" d="M233.3,121.8c-2.7,0-4.1-1.5-4.1-4.5c0-1.5,0.4-2.6,1.1-3.4c0.7-0.8,1.8-1.2,3.2-1.2c1,0,1.9,0.2,2.7,0.6
		l-0.7,1.8c-0.4-0.2-0.7-0.3-1-0.4c-0.3-0.1-0.6-0.1-1-0.1c-1.2,0-1.9,0.9-1.9,2.6c0,1.7,0.6,2.6,1.9,2.6c0.5,0,0.9-0.1,1.3-0.2
		s0.8-0.3,1.2-0.6v2c-0.4,0.2-0.8,0.4-1.2,0.5C234.4,121.8,233.9,121.8,233.3,121.8z"/>
	<path class="st2" d="M244.1,119.1c0,0.9-0.3,1.6-0.9,2c-0.6,0.5-1.6,0.7-2.8,0.7c-0.6,0-1.2,0-1.6-0.1c-0.4-0.1-0.9-0.2-1.3-0.4v-2
		c0.4,0.2,0.9,0.4,1.5,0.5s1,0.2,1.5,0.2c0.9,0,1.3-0.3,1.3-0.8c0-0.2-0.1-0.3-0.2-0.5c-0.1-0.1-0.3-0.3-0.6-0.4s-0.7-0.3-1.1-0.5
		c-0.7-0.3-1.2-0.5-1.5-0.8c-0.3-0.2-0.5-0.5-0.7-0.8c-0.1-0.3-0.2-0.7-0.2-1.1c0-0.8,0.3-1.4,0.9-1.8s1.5-0.6,2.6-0.6
		c1.1,0,2.1,0.2,3.1,0.7l-0.7,1.7c-0.4-0.2-0.8-0.3-1.2-0.5c-0.4-0.1-0.8-0.2-1.2-0.2c-0.7,0-1.1,0.2-1.1,0.6c0,0.2,0.1,0.4,0.3,0.6
		s0.7,0.4,1.5,0.7c0.7,0.3,1.2,0.5,1.5,0.8c0.3,0.2,0.6,0.5,0.7,0.8C244,118.3,244.1,118.7,244.1,119.1z"/>
</g>
<g class="st18">
	<path class="st2" d="M294.1,121.7v-11.4h2.4v11.4H294.1z"/>
	<path class="st2" d="M303.8,121.7h-2.4v-9.4h-3.1v-2h8.6v2h-3.1V121.7z"/>
	<path class="st2" d="M319.5,118.5c0,1-0.4,1.8-1.1,2.4s-1.8,0.9-3.1,0.9c-1.2,0-2.3-0.2-3.2-0.7v-2.3c0.8,0.3,1.4,0.6,2,0.7
		c0.5,0.1,1,0.2,1.5,0.2c0.5,0,0.9-0.1,1.2-0.3c0.3-0.2,0.4-0.5,0.4-0.9c0-0.2-0.1-0.4-0.2-0.6s-0.3-0.3-0.6-0.5s-0.7-0.4-1.5-0.8
		c-0.7-0.3-1.2-0.6-1.6-0.9c-0.3-0.3-0.6-0.7-0.8-1.1c-0.2-0.4-0.3-0.9-0.3-1.4c0-1,0.3-1.8,1-2.4c0.7-0.6,1.6-0.9,2.8-0.9
		c0.6,0,1.2,0.1,1.7,0.2s1.1,0.3,1.7,0.6l-0.8,1.9c-0.6-0.3-1.1-0.4-1.5-0.5s-0.8-0.1-1.2-0.1c-0.5,0-0.8,0.1-1.1,0.3
		c-0.2,0.2-0.4,0.5-0.4,0.8c0,0.2,0,0.4,0.1,0.6c0.1,0.2,0.3,0.3,0.5,0.5c0.2,0.1,0.7,0.4,1.5,0.8c1.1,0.5,1.8,1,2.2,1.5
		C319.3,117.1,319.5,117.8,319.5,118.5z"/>
	<path class="st2" d="M325.4,121.8c-1.4,0-2.5-0.4-3.3-1.2c-0.8-0.8-1.2-1.9-1.2-3.3c0-1.5,0.4-2.6,1.1-3.4c0.7-0.8,1.7-1.2,3-1.2
		c1.2,0,2.2,0.4,2.9,1.1s1,1.7,1,2.9v1.2h-5.6c0,0.7,0.2,1.2,0.6,1.6s0.9,0.6,1.6,0.6c0.5,0,1-0.1,1.5-0.2s1-0.3,1.5-0.5v1.8
		c-0.4,0.2-0.9,0.4-1.3,0.5C326.6,121.8,326.1,121.8,325.4,121.8z M325,114.5c-0.5,0-0.9,0.2-1.2,0.5c-0.3,0.3-0.5,0.8-0.5,1.4h3.3
		c0-0.6-0.2-1-0.5-1.4S325.5,114.5,325,114.5z"/>
	<path class="st2" d="M335.8,112.8c0.3,0,0.6,0,0.8,0.1l-0.2,2.2c-0.2-0.1-0.4-0.1-0.7-0.1c-0.8,0-1.4,0.2-1.8,0.6
		c-0.4,0.4-0.6,0.9-0.6,1.6v4.4h-2.4V113h1.8l0.4,1.5h0.1c0.3-0.5,0.6-0.9,1.1-1.2S335.2,112.8,335.8,112.8z"/>
	<path class="st2" d="M340.2,121.7l-3.3-8.7h2.5l1.7,5c0.2,0.6,0.3,1.2,0.4,1.8h0c0-0.5,0.1-1.1,0.4-1.8l1.7-5h2.5l-3.3,8.7H340.2z"
		/>
	<path class="st2" d="M347.1,110.7c0-0.8,0.4-1.2,1.3-1.2c0.9,0,1.3,0.4,1.3,1.2c0,0.4-0.1,0.7-0.3,0.9c-0.2,0.2-0.5,0.3-1,0.3
		C347.6,111.9,347.1,111.5,347.1,110.7z M349.6,121.7h-2.4V113h2.4V121.7z"/>
	<path class="st2" d="M355.7,121.8c-2.7,0-4.1-1.5-4.1-4.5c0-1.5,0.4-2.6,1.1-3.4c0.7-0.8,1.8-1.2,3.2-1.2c1,0,1.9,0.2,2.7,0.6
		l-0.7,1.8c-0.4-0.2-0.7-0.3-1-0.4c-0.3-0.1-0.6-0.1-1-0.1c-1.2,0-1.9,0.9-1.9,2.6c0,1.7,0.6,2.6,1.9,2.6c0.5,0,0.9-0.1,1.3-0.2
		s0.8-0.3,1.2-0.6v2c-0.4,0.2-0.8,0.4-1.2,0.5C356.8,121.8,356.3,121.8,355.7,121.8z"/>
	<path class="st2" d="M364.3,121.8c-1.4,0-2.5-0.4-3.3-1.2c-0.8-0.8-1.2-1.9-1.2-3.3c0-1.5,0.4-2.6,1.1-3.4c0.7-0.8,1.7-1.2,3-1.2
		c1.2,0,2.2,0.4,2.9,1.1s1,1.7,1,2.9v1.2h-5.6c0,0.7,0.2,1.2,0.6,1.6s0.9,0.6,1.6,0.6c0.5,0,1-0.1,1.5-0.2s1-0.3,1.5-0.5v1.8
		c-0.4,0.2-0.9,0.4-1.3,0.5C365.6,121.8,365,121.8,364.3,121.8z M364,114.5c-0.5,0-0.9,0.2-1.2,0.5c-0.3,0.3-0.5,0.8-0.5,1.4h3.3
		c0-0.6-0.2-1-0.5-1.4S364.5,114.5,364,114.5z"/>
</g>
<g class="st18">
	<path class="st2" d="M324,137.9c0,1.9-0.5,3.3-1.6,4.3s-2.6,1.5-4.6,1.5h-3.2v-11.4h3.6c1.9,0,3.3,0.5,4.3,1.5S324,136.1,324,137.9
		z M321.5,137.9c0-2.5-1.1-3.7-3.3-3.7H317v7.4h1C320.3,141.7,321.5,140.4,321.5,137.9z"/>
	<path class="st2" d="M330.1,143.8c-1.4,0-2.5-0.4-3.3-1.2s-1.2-1.9-1.2-3.3c0-1.5,0.4-2.6,1.1-3.4s1.7-1.2,3-1.2
		c1.2,0,2.2,0.4,2.9,1.1s1,1.7,1,2.9v1.2h-5.6c0,0.7,0.2,1.2,0.6,1.6s0.9,0.6,1.6,0.6c0.5,0,1-0.1,1.5-0.2s1-0.3,1.5-0.5v1.8
		c-0.4,0.2-0.9,0.4-1.3,0.5S330.8,143.8,330.1,143.8z M329.8,136.5c-0.5,0-0.9,0.2-1.2,0.5s-0.5,0.8-0.5,1.4h3.3
		c0-0.6-0.2-1-0.5-1.4S330.3,136.5,329.8,136.5z"/>
	<path class="st2" d="M341.7,141.1c0,0.9-0.3,1.6-0.9,2s-1.6,0.7-2.8,0.7c-0.6,0-1.2,0-1.6-0.1s-0.9-0.2-1.3-0.4v-2
		c0.4,0.2,0.9,0.4,1.5,0.5s1,0.2,1.5,0.2c0.9,0,1.3-0.3,1.3-0.8c0-0.2-0.1-0.3-0.2-0.5s-0.3-0.3-0.6-0.4s-0.7-0.3-1.1-0.5
		c-0.7-0.3-1.2-0.5-1.5-0.8s-0.5-0.5-0.7-0.8s-0.2-0.7-0.2-1.1c0-0.8,0.3-1.4,0.9-1.8s1.5-0.6,2.6-0.6c1.1,0,2.1,0.2,3.1,0.7
		l-0.7,1.7c-0.4-0.2-0.8-0.3-1.2-0.5s-0.8-0.2-1.2-0.2c-0.7,0-1.1,0.2-1.1,0.6c0,0.2,0.1,0.4,0.3,0.6s0.7,0.4,1.5,0.7
		c0.7,0.3,1.2,0.5,1.5,0.8s0.6,0.5,0.7,0.8S341.7,140.7,341.7,141.1z"/>
	<path class="st2" d="M345.9,138.9l1-1.3l2.4-2.7h2.7l-3.5,3.8l3.7,4.9h-2.8l-2.5-3.5l-1,0.8v2.7h-2.4v-12.2h2.4v5.4L345.9,138.9
		L345.9,138.9z"/>
</g>
<g class="st18">
	<path class="st2" d="M377.3,209.5c0,1-0.4,1.8-1.1,2.4s-1.8,0.9-3.1,0.9c-1.2,0-2.3-0.2-3.2-0.7v-2.3c0.8,0.3,1.4,0.6,2,0.7
		s1,0.2,1.5,0.2c0.5,0,0.9-0.1,1.2-0.3s0.4-0.5,0.4-0.9c0-0.2-0.1-0.4-0.2-0.6s-0.3-0.3-0.6-0.5s-0.7-0.4-1.5-0.8
		c-0.7-0.3-1.2-0.6-1.6-0.9s-0.6-0.7-0.8-1.1s-0.3-0.9-0.3-1.4c0-1,0.3-1.8,1-2.4s1.6-0.9,2.8-0.9c0.6,0,1.2,0.1,1.7,0.2
		s1.1,0.3,1.7,0.6l-0.8,1.9c-0.6-0.3-1.1-0.4-1.5-0.5s-0.8-0.1-1.2-0.1c-0.5,0-0.8,0.1-1.1,0.3s-0.4,0.5-0.4,0.8
		c0,0.2,0,0.4,0.1,0.6s0.3,0.3,0.5,0.5s0.7,0.4,1.5,0.8c1.1,0.5,1.8,1,2.2,1.5S377.3,208.8,377.3,209.5z"/>
	<path class="st2" d="M383.1,212.8c-1.4,0-2.5-0.4-3.3-1.2s-1.2-1.9-1.2-3.3c0-1.5,0.4-2.6,1.1-3.4s1.7-1.2,3-1.2
		c1.2,0,2.2,0.4,2.9,1.1s1,1.7,1,2.9v1.2h-5.6c0,0.7,0.2,1.2,0.6,1.6s0.9,0.6,1.6,0.6c0.5,0,1-0.1,1.5-0.2s1-0.3,1.5-0.5v1.8
		c-0.4,0.2-0.9,0.4-1.3,0.5S383.8,212.8,383.1,212.8z M382.8,205.5c-0.5,0-0.9,0.2-1.2,0.5s-0.5,0.8-0.5,1.4h3.3
		c0-0.6-0.2-1-0.5-1.4S383.3,205.5,382.8,205.5z"/>
	<path class="st2" d="M393.5,203.8c0.3,0,0.6,0,0.8,0.1l-0.2,2.2c-0.2-0.1-0.4-0.1-0.7-0.1c-0.8,0-1.4,0.2-1.8,0.6s-0.6,0.9-0.6,1.6
		v4.4h-2.4V204h1.8l0.4,1.5h0.1c0.3-0.5,0.6-0.9,1.1-1.2S393,203.8,393.5,203.8z"/>
	<path class="st2" d="M398,212.7l-3.3-8.7h2.5l1.7,5c0.2,0.6,0.3,1.2,0.4,1.8h0c0-0.5,0.1-1.1,0.4-1.8l1.7-5h2.5l-3.3,8.7H398z"/>
	<path class="st2" d="M404.9,201.7c0-0.8,0.4-1.2,1.3-1.2s1.3,0.4,1.3,1.2c0,0.4-0.1,0.7-0.3,0.9s-0.5,0.3-1,0.3
		C405.3,202.9,404.9,202.5,404.9,201.7z M407.4,212.7H405V204h2.4V212.7z"/>
	<path class="st2" d="M413.4,212.8c-2.7,0-4.1-1.5-4.1-4.5c0-1.5,0.4-2.6,1.1-3.4s1.8-1.2,3.2-1.2c1,0,1.9,0.2,2.7,0.6l-0.7,1.8
		c-0.4-0.2-0.7-0.3-1-0.4s-0.6-0.1-1-0.1c-1.2,0-1.9,0.9-1.9,2.6c0,1.7,0.6,2.6,1.9,2.6c0.5,0,0.9-0.1,1.3-0.2s0.8-0.3,1.2-0.6v2
		c-0.4,0.2-0.8,0.4-1.2,0.5S414,212.8,413.4,212.8z"/>
	<path class="st2" d="M422.1,212.8c-1.4,0-2.5-0.4-3.3-1.2s-1.2-1.9-1.2-3.3c0-1.5,0.4-2.6,1.1-3.4s1.7-1.2,3-1.2
		c1.2,0,2.2,0.4,2.9,1.1s1,1.7,1,2.9v1.2H420c0,0.7,0.2,1.2,0.6,1.6s0.9,0.6,1.6,0.6c0.5,0,1-0.1,1.5-0.2s1-0.3,1.5-0.5v1.8
		c-0.4,0.2-0.9,0.4-1.3,0.5S422.8,212.8,422.1,212.8z M421.7,205.5c-0.5,0-0.9,0.2-1.2,0.5s-0.5,0.8-0.5,1.4h3.3
		c0-0.6-0.2-1-0.5-1.4S422.2,205.5,421.7,205.5z"/>
</g>
<g class="st18">
	<path class="st2" d="M375.9,225.1c-0.9,0-1.6,0.3-2.1,1s-0.8,1.6-0.8,2.9c0,2.5,1,3.8,2.9,3.8c0.8,0,1.8-0.2,2.9-0.6v2
		c-0.9,0.4-2,0.6-3.1,0.6c-1.7,0-2.9-0.5-3.8-1.5c-0.9-1-1.3-2.5-1.3-4.3c0-1.2,0.2-2.2,0.6-3.1c0.4-0.9,1.1-1.6,1.9-2.1
		c0.8-0.5,1.8-0.7,2.8-0.7c1.1,0,2.2,0.3,3.3,0.8l-0.8,2c-0.4-0.2-0.9-0.4-1.3-0.5C376.8,225.2,376.4,225.1,375.9,225.1z"/>
	<path class="st2" d="M386.7,234.7l-0.5-1.2h-0.1c-0.4,0.5-0.8,0.9-1.2,1.1c-0.4,0.2-1,0.3-1.7,0.3c-0.8,0-1.5-0.2-2-0.7
		c-0.5-0.5-0.7-1.2-0.7-2c0-0.9,0.3-1.6,1-2.1s1.6-0.7,2.9-0.7l1.5,0v-0.4c0-0.9-0.5-1.3-1.4-1.3c-0.7,0-1.5,0.2-2.5,0.6l-0.8-1.6
		c1-0.5,2.1-0.8,3.3-0.8c1.2,0,2.1,0.3,2.7,0.8s0.9,1.3,0.9,2.3v5.8H386.7z M385.9,230.6l-0.9,0c-0.7,0-1.2,0.1-1.5,0.4
		c-0.3,0.2-0.5,0.6-0.5,1c0,0.7,0.4,1,1.2,1c0.6,0,1-0.2,1.3-0.5c0.3-0.3,0.5-0.7,0.5-1.3V230.6z"/>
	<path class="st2" d="M394.4,232.9c0.4,0,0.9-0.1,1.5-0.3v1.8c-0.6,0.3-1.3,0.4-2.2,0.4c-1,0-1.6-0.2-2.1-0.7
		c-0.4-0.5-0.7-1.2-0.7-2.2v-4.2h-1.1v-1l1.3-0.8l0.7-1.8h1.5v1.9h2.4v1.8h-2.4v4.2c0,0.3,0.1,0.6,0.3,0.8
		C393.9,232.9,394.1,232.9,394.4,232.9z"/>
	<path class="st2" d="M403.3,234.7l-0.5-1.2h-0.1c-0.4,0.5-0.8,0.9-1.2,1.1c-0.4,0.2-1,0.3-1.7,0.3c-0.8,0-1.5-0.2-2-0.7
		c-0.5-0.5-0.7-1.2-0.7-2c0-0.9,0.3-1.6,1-2.1s1.6-0.7,2.9-0.7l1.5,0v-0.4c0-0.9-0.5-1.3-1.4-1.3c-0.7,0-1.5,0.2-2.5,0.6l-0.8-1.6
		c1-0.5,2.1-0.8,3.3-0.8c1.2,0,2.1,0.3,2.7,0.8s0.9,1.3,0.9,2.3v5.8H403.3z M402.6,230.6l-0.9,0c-0.7,0-1.2,0.1-1.5,0.4
		c-0.3,0.2-0.5,0.6-0.5,1c0,0.7,0.4,1,1.2,1c0.6,0,1-0.2,1.3-0.5c0.3-0.3,0.5-0.7,0.5-1.3V230.6z"/>
	<path class="st2" d="M409.8,234.7h-2.4v-12.2h2.4V234.7z"/>
	<path class="st2" d="M420.2,230.3c0,1.4-0.4,2.5-1.1,3.3s-1.8,1.2-3.1,1.2c-0.8,0-1.6-0.2-2.2-0.6s-1.1-0.9-1.5-1.6
		s-0.5-1.5-0.5-2.4c0-1.4,0.4-2.5,1.1-3.3c0.7-0.8,1.8-1.2,3.1-1.2c0.8,0,1.6,0.2,2.2,0.5s1.1,0.9,1.5,1.6S420.2,229.4,420.2,230.3z
		 M414.2,230.3c0,0.9,0.1,1.5,0.4,2c0.3,0.4,0.7,0.7,1.4,0.7c0.6,0,1.1-0.2,1.4-0.7c0.3-0.4,0.4-1.1,0.4-2c0-0.9-0.1-1.5-0.4-1.9
		s-0.7-0.6-1.4-0.6c-0.6,0-1.1,0.2-1.4,0.6S414.2,229.4,414.2,230.3z"/>
	<path class="st2" d="M429.8,226v1.2l-1.4,0.4c0.3,0.4,0.4,0.8,0.4,1.3c0,0.9-0.3,1.7-1,2.2c-0.7,0.5-1.6,0.8-2.7,0.8l-0.4,0l-0.4,0
		c-0.2,0.2-0.4,0.4-0.4,0.6c0,0.3,0.4,0.5,1.3,0.5h1.5c1,0,1.7,0.2,2.2,0.6c0.5,0.4,0.8,1,0.8,1.8c0,1-0.4,1.8-1.3,2.4
		s-2.1,0.8-3.7,0.8c-1.2,0-2.2-0.2-2.8-0.6c-0.6-0.4-1-1-1-1.8c0-0.5,0.2-1,0.5-1.3s0.8-0.6,1.4-0.8c-0.2-0.1-0.5-0.3-0.6-0.5
		c-0.2-0.2-0.3-0.5-0.3-0.8c0-0.3,0.1-0.6,0.3-0.8c0.2-0.2,0.5-0.4,0.8-0.7c-0.5-0.2-0.8-0.5-1.1-1c-0.3-0.4-0.4-1-0.4-1.5
		c0-1,0.3-1.7,0.9-2.2c0.6-0.5,1.5-0.8,2.7-0.8c0.2,0,0.5,0,0.9,0.1s0.6,0.1,0.6,0.1H429.8z M423,235.9c0,0.3,0.2,0.6,0.5,0.8
		c0.3,0.2,0.8,0.3,1.3,0.3c0.9,0,1.5-0.1,2-0.4s0.7-0.6,0.7-1c0-0.3-0.1-0.6-0.4-0.7c-0.3-0.1-0.7-0.2-1.3-0.2h-1.2
		c-0.4,0-0.8,0.1-1.1,0.3C423.2,235.3,423,235.6,423,235.9z M423.9,228.8c0,0.5,0.1,0.8,0.3,1.1c0.2,0.3,0.5,0.4,1,0.4
		c0.4,0,0.8-0.1,1-0.4c0.2-0.3,0.3-0.7,0.3-1.1c0-1.1-0.4-1.6-1.3-1.6C424.3,227.2,423.9,227.8,423.9,228.8z"/>
</g>
<g class="st18">
	<path class="st2" d="M373.7,287.6c0,1.2-0.4,2.2-1.2,2.8c-0.8,0.7-1.9,1-3.3,1h-1v4.1h-2.4V284h3.6c1.4,0,2.4,0.3,3.2,0.9
		C373.3,285.5,373.7,286.4,373.7,287.6z M368.2,289.4h0.8c0.7,0,1.3-0.1,1.7-0.4c0.4-0.3,0.6-0.7,0.6-1.3c0-0.6-0.2-1-0.5-1.3
		c-0.3-0.3-0.8-0.4-1.5-0.4h-1.1V289.4z"/>
	<path class="st2" d="M380.5,286.5c0.3,0,0.6,0,0.8,0.1l-0.2,2.2c-0.2-0.1-0.4-0.1-0.7-0.1c-0.8,0-1.4,0.2-1.8,0.6
		c-0.4,0.4-0.6,0.9-0.6,1.6v4.4h-2.4v-8.7h1.8l0.4,1.5h0.1c0.3-0.5,0.6-0.9,1.1-1.2S380,286.5,380.5,286.5z"/>
	<path class="st2" d="M390.8,291.1c0,1.4-0.4,2.5-1.1,3.3s-1.8,1.2-3.1,1.2c-0.8,0-1.6-0.2-2.2-0.6s-1.1-0.9-1.5-1.6
		s-0.5-1.5-0.5-2.4c0-1.4,0.4-2.5,1.1-3.3c0.7-0.8,1.8-1.2,3.1-1.2c0.8,0,1.6,0.2,2.2,0.5s1.1,0.9,1.5,1.6S390.8,290.1,390.8,291.1z
		 M384.8,291.1c0,0.9,0.1,1.5,0.4,2c0.3,0.4,0.7,0.7,1.4,0.7c0.6,0,1.1-0.2,1.4-0.7c0.3-0.4,0.4-1.1,0.4-2c0-0.9-0.1-1.5-0.4-1.9
		s-0.7-0.6-1.4-0.6c-0.6,0-1.1,0.2-1.4,0.6S384.8,290.2,384.8,291.1z"/>
	<path class="st2" d="M392.1,299.3c-0.6,0-1.1-0.1-1.6-0.2v-1.9c0.4,0.1,0.7,0.1,1.1,0.1c0.4,0,0.7-0.1,0.9-0.3
		c0.2-0.2,0.3-0.6,0.3-1v-9.3h2.4v9.7c0,0.9-0.3,1.6-0.8,2.1C393.8,299,393.1,299.3,392.1,299.3z M392.7,284.5
		c0-0.8,0.4-1.2,1.3-1.2c0.9,0,1.3,0.4,1.3,1.2c0,0.4-0.1,0.7-0.3,0.9c-0.2,0.2-0.5,0.3-1,0.3C393.1,285.6,392.7,285.2,392.7,284.5z
		"/>
	<path class="st2" d="M401.6,295.6c-1.4,0-2.5-0.4-3.3-1.2c-0.8-0.8-1.2-1.9-1.2-3.3c0-1.5,0.4-2.6,1.1-3.4c0.7-0.8,1.7-1.2,3-1.2
		c1.2,0,2.2,0.4,2.9,1.1s1,1.7,1,2.9v1.2h-5.6c0,0.7,0.2,1.2,0.6,1.6s0.9,0.6,1.6,0.6c0.5,0,1-0.1,1.5-0.2s1-0.3,1.5-0.5v1.8
		c-0.4,0.2-0.9,0.4-1.3,0.5C402.9,295.5,402.3,295.6,401.6,295.6z M401.3,288.2c-0.5,0-0.9,0.2-1.2,0.5c-0.3,0.3-0.5,0.8-0.5,1.4
		h3.3c0-0.6-0.2-1-0.5-1.4S401.8,288.2,401.3,288.2z"/>
	<path class="st2" d="M410.7,295.6c-2.7,0-4.1-1.5-4.1-4.5c0-1.5,0.4-2.6,1.1-3.4c0.7-0.8,1.8-1.2,3.2-1.2c1,0,1.9,0.2,2.7,0.6
		l-0.7,1.8c-0.4-0.2-0.7-0.3-1-0.4c-0.3-0.1-0.6-0.1-1-0.1c-1.2,0-1.9,0.9-1.9,2.6c0,1.7,0.6,2.6,1.9,2.6c0.5,0,0.9-0.1,1.3-0.2
		s0.8-0.3,1.2-0.6v2c-0.4,0.2-0.8,0.4-1.2,0.5C411.8,295.6,411.3,295.6,410.7,295.6z"/>
	<path class="st2" d="M419,293.7c0.4,0,0.9-0.1,1.5-0.3v1.8c-0.6,0.3-1.3,0.4-2.2,0.4c-1,0-1.6-0.2-2.1-0.7
		c-0.4-0.5-0.7-1.2-0.7-2.2v-4.2h-1.1v-1l1.3-0.8l0.7-1.8h1.5v1.9h2.4v1.8H418v4.2c0,0.3,0.1,0.6,0.3,0.8
		C418.5,293.6,418.7,293.7,419,293.7z"/>
</g>
<g class="st18">
	<path class="st2" d="M348,317.4l-2.8-9h-0.1c0.1,1.8,0.1,3,0.1,3.6v5.3h-2.2V306h3.3l2.7,8.7h0l2.9-8.7h3.3v11.4h-2.3V312
		c0-0.3,0-0.5,0-0.9s0-1.2,0.1-2.7h-0.1l-2.9,8.9H348z"/>
	<path class="st2" d="M363.6,317.4l-0.5-1.2h-0.1c-0.4,0.5-0.8,0.9-1.2,1.1c-0.4,0.2-1,0.3-1.7,0.3c-0.8,0-1.5-0.2-2-0.7
		c-0.5-0.5-0.7-1.2-0.7-2c0-0.9,0.3-1.6,1-2.1s1.6-0.7,2.9-0.7l1.5,0v-0.4c0-0.9-0.5-1.3-1.4-1.3c-0.7,0-1.5,0.2-2.5,0.6l-0.8-1.6
		c1-0.5,2.1-0.8,3.3-0.8c1.2,0,2.1,0.3,2.7,0.8s0.9,1.3,0.9,2.3v5.8H363.6z M362.9,313.4l-0.9,0c-0.7,0-1.2,0.1-1.5,0.4
		c-0.3,0.2-0.5,0.6-0.5,1c0,0.7,0.4,1,1.2,1c0.6,0,1-0.2,1.3-0.5c0.3-0.3,0.5-0.7,0.5-1.3V313.4z"/>
	<path class="st2" d="M375.8,317.4h-2.4v-5.1c0-0.6-0.1-1.1-0.3-1.4c-0.2-0.3-0.6-0.5-1.1-0.5c-0.7,0-1.1,0.2-1.4,0.7
		s-0.4,1.2-0.4,2.2v4.1h-2.4v-8.7h1.8l0.3,1.1h0.1c0.3-0.4,0.6-0.7,1.1-1c0.5-0.2,1-0.3,1.6-0.3c1,0,1.8,0.3,2.3,0.8
		c0.5,0.5,0.8,1.3,0.8,2.4V317.4z"/>
	<path class="st2" d="M383.8,317.4l-0.5-1.2h-0.1c-0.4,0.5-0.8,0.9-1.2,1.1c-0.4,0.2-1,0.3-1.7,0.3c-0.8,0-1.5-0.2-2-0.7
		c-0.5-0.5-0.7-1.2-0.7-2c0-0.9,0.3-1.6,1-2.1s1.6-0.7,2.9-0.7l1.5,0v-0.4c0-0.9-0.5-1.3-1.4-1.3c-0.7,0-1.5,0.2-2.5,0.6l-0.8-1.6
		c1-0.5,2.1-0.8,3.3-0.8c1.2,0,2.1,0.3,2.7,0.8s0.9,1.3,0.9,2.3v5.8H383.8z M383.1,313.4l-0.9,0c-0.7,0-1.2,0.1-1.5,0.4
		c-0.3,0.2-0.5,0.6-0.5,1c0,0.7,0.4,1,1.2,1c0.6,0,1-0.2,1.3-0.5c0.3-0.3,0.5-0.7,0.5-1.3V313.4z"/>
	<path class="st2" d="M395.5,308.7v1.2l-1.4,0.4c0.3,0.4,0.4,0.8,0.4,1.3c0,0.9-0.3,1.7-1,2.2c-0.7,0.5-1.6,0.8-2.7,0.8l-0.4,0
		l-0.4,0c-0.2,0.2-0.4,0.4-0.4,0.6c0,0.3,0.4,0.5,1.3,0.5h1.5c1,0,1.7,0.2,2.2,0.6c0.5,0.4,0.8,1,0.8,1.8c0,1-0.4,1.8-1.3,2.4
		s-2.1,0.8-3.7,0.8c-1.2,0-2.2-0.2-2.8-0.6c-0.6-0.4-1-1-1-1.8c0-0.5,0.2-1,0.5-1.3s0.8-0.6,1.4-0.8c-0.2-0.1-0.5-0.3-0.6-0.5
		c-0.2-0.2-0.3-0.5-0.3-0.8c0-0.3,0.1-0.6,0.3-0.8c0.2-0.2,0.5-0.4,0.8-0.7c-0.5-0.2-0.8-0.5-1.1-1c-0.3-0.4-0.4-1-0.4-1.5
		c0-1,0.3-1.7,0.9-2.2c0.6-0.5,1.5-0.8,2.7-0.8c0.2,0,0.5,0,0.9,0.1s0.6,0.1,0.6,0.1H395.5z M388.8,318.7c0,0.3,0.2,0.6,0.5,0.8
		c0.3,0.2,0.8,0.3,1.3,0.3c0.9,0,1.5-0.1,2-0.4s0.7-0.6,0.7-1c0-0.3-0.1-0.6-0.4-0.7c-0.3-0.1-0.7-0.2-1.3-0.2h-1.2
		c-0.4,0-0.8,0.1-1.1,0.3C388.9,318.1,388.8,318.3,388.8,318.7z M389.7,311.6c0,0.5,0.1,0.8,0.3,1.1c0.2,0.3,0.5,0.4,1,0.4
		c0.4,0,0.8-0.1,1-0.4c0.2-0.3,0.3-0.7,0.3-1.1c0-1.1-0.4-1.6-1.3-1.6C390.1,310,389.7,310.5,389.7,311.6z"/>
	<path class="st2" d="M400.9,317.6c-1.4,0-2.5-0.4-3.3-1.2c-0.8-0.8-1.2-1.9-1.2-3.3c0-1.5,0.4-2.6,1.1-3.4c0.7-0.8,1.7-1.2,3-1.2
		c1.2,0,2.2,0.4,2.9,1.1s1,1.7,1,2.9v1.2h-5.6c0,0.7,0.2,1.2,0.6,1.6s0.9,0.6,1.6,0.6c0.5,0,1-0.1,1.5-0.2s1-0.3,1.5-0.5v1.8
		c-0.4,0.2-0.9,0.4-1.3,0.5C402.2,317.5,401.6,317.6,400.9,317.6z M400.6,310.2c-0.5,0-0.9,0.2-1.2,0.5c-0.3,0.3-0.5,0.8-0.5,1.4
		h3.3c0-0.6-0.2-1-0.5-1.4S401.1,310.2,400.6,310.2z"/>
	<path class="st2" d="M414.2,317.4h-2.4v-5.1c0-0.6-0.1-1.1-0.3-1.4s-0.5-0.5-1-0.5c-0.6,0-1.1,0.2-1.3,0.7
		c-0.3,0.4-0.4,1.2-0.4,2.2v4.1h-2.4v-8.7h1.8l0.3,1.1h0.1c0.2-0.4,0.6-0.7,1-0.9c0.4-0.2,1-0.3,1.5-0.3c1.3,0,2.2,0.4,2.7,1.3h0.2
		c0.2-0.4,0.6-0.7,1-0.9c0.5-0.2,1-0.3,1.5-0.3c1,0,1.7,0.3,2.2,0.8s0.8,1.3,0.8,2.4v5.7h-2.4v-5.1c0-0.6-0.1-1.1-0.3-1.4
		s-0.5-0.5-1-0.5c-0.6,0-1,0.2-1.3,0.6s-0.4,1.1-0.4,2V317.4z"/>
	<path class="st2" d="M426.1,317.6c-1.4,0-2.5-0.4-3.3-1.2c-0.8-0.8-1.2-1.9-1.2-3.3c0-1.5,0.4-2.6,1.1-3.4c0.7-0.8,1.7-1.2,3-1.2
		c1.2,0,2.2,0.4,2.9,1.1s1,1.7,1,2.9v1.2H424c0,0.7,0.2,1.2,0.6,1.6s0.9,0.6,1.6,0.6c0.5,0,1-0.1,1.5-0.2s1-0.3,1.5-0.5v1.8
		c-0.4,0.2-0.9,0.4-1.3,0.5C427.3,317.5,426.8,317.6,426.1,317.6z M425.7,310.2c-0.5,0-0.9,0.2-1.2,0.5c-0.3,0.3-0.5,0.8-0.5,1.4
		h3.3c0-0.6-0.2-1-0.5-1.4S426.3,310.2,425.7,310.2z"/>
	<path class="st2" d="M439.6,317.4h-2.4v-5.1c0-0.6-0.1-1.1-0.3-1.4c-0.2-0.3-0.6-0.5-1.1-0.5c-0.7,0-1.1,0.2-1.4,0.7
		s-0.4,1.2-0.4,2.2v4.1h-2.4v-8.7h1.8l0.3,1.1h0.1c0.3-0.4,0.6-0.7,1.1-1c0.5-0.2,1-0.3,1.6-0.3c1,0,1.8,0.3,2.3,0.8
		c0.5,0.5,0.8,1.3,0.8,2.4V317.4z"/>
	<path class="st2" d="M445.8,315.7c0.4,0,0.9-0.1,1.5-0.3v1.8c-0.6,0.3-1.3,0.4-2.2,0.4c-1,0-1.6-0.2-2.1-0.7
		c-0.4-0.5-0.7-1.2-0.7-2.2v-4.2h-1.1v-1l1.3-0.8l0.7-1.8h1.5v1.9h2.4v1.8h-2.4v4.2c0,0.3,0.1,0.6,0.3,0.8
		C445.2,315.6,445.5,315.7,445.8,315.7z"/>
</g>
<g class="st18">
	<path class="st2" d="M304.8,387.7c0,1.2-0.4,2.2-1.2,2.8c-0.8,0.7-1.9,1-3.3,1h-1v4.1h-2.4v-11.4h3.6c1.4,0,2.4,0.3,3.2,0.9
		C304.5,385.7,304.8,386.6,304.8,387.7z M299.3,389.6h0.8c0.7,0,1.3-0.1,1.7-0.4c0.4-0.3,0.6-0.7,0.6-1.3c0-0.6-0.2-1-0.5-1.3
		c-0.3-0.3-0.8-0.4-1.5-0.4h-1.1V389.6z"/>
	<path class="st2" d="M314.7,391.2c0,1.4-0.4,2.5-1.1,3.3c-0.8,0.8-1.8,1.2-3.1,1.2c-0.8,0-1.6-0.2-2.2-0.6s-1.1-0.9-1.5-1.6
		s-0.5-1.5-0.5-2.4c0-1.4,0.4-2.5,1.1-3.3c0.7-0.8,1.8-1.2,3.1-1.2c0.8,0,1.6,0.2,2.2,0.5c0.6,0.4,1.1,0.9,1.5,1.6
		C314.5,389.5,314.7,390.3,314.7,391.2z M308.7,391.2c0,0.9,0.1,1.5,0.4,2c0.3,0.4,0.7,0.7,1.4,0.7c0.6,0,1.1-0.2,1.4-0.7
		c0.3-0.4,0.4-1.1,0.4-2c0-0.9-0.1-1.5-0.4-1.9c-0.3-0.4-0.7-0.6-1.4-0.6c-0.6,0-1.1,0.2-1.4,0.6S308.7,390.4,308.7,391.2z"/>
	<path class="st2" d="M321.6,386.7c0.3,0,0.6,0,0.8,0.1l-0.2,2.2c-0.2-0.1-0.4-0.1-0.7-0.1c-0.8,0-1.4,0.2-1.8,0.6
		c-0.4,0.4-0.6,0.9-0.6,1.6v4.4h-2.4v-8.7h1.8l0.4,1.5h0.1c0.3-0.5,0.6-0.9,1.1-1.2C320.5,386.9,321,386.7,321.6,386.7z"/>
	<path class="st2" d="M327.6,393.9c0.4,0,0.9-0.1,1.5-0.3v1.8c-0.6,0.3-1.3,0.4-2.2,0.4c-1,0-1.6-0.2-2.1-0.7
		c-0.4-0.5-0.7-1.2-0.7-2.2v-4.2h-1.1v-1l1.3-0.8l0.7-1.8h1.5v1.9h2.4v1.8h-2.4v4.2c0,0.3,0.1,0.6,0.3,0.8
		C327.1,393.8,327.3,393.9,327.6,393.9z"/>
	<path class="st2" d="M335.7,388.7h-2.1v6.9h-2.4v-6.9H330v-1.1l1.3-0.6v-0.6c0-1,0.2-1.7,0.7-2.2c0.5-0.5,1.3-0.7,2.4-0.7
		c0.8,0,1.6,0.1,2.2,0.4l-0.6,1.8c-0.5-0.2-0.9-0.2-1.3-0.2c-0.3,0-0.6,0.1-0.7,0.3c-0.2,0.2-0.2,0.5-0.2,0.8v0.5h2.1V388.7z"/>
	<path class="st2" d="M345,391.2c0,1.4-0.4,2.5-1.1,3.3c-0.8,0.8-1.8,1.2-3.1,1.2c-0.8,0-1.6-0.2-2.2-0.6s-1.1-0.9-1.5-1.6
		s-0.5-1.5-0.5-2.4c0-1.4,0.4-2.5,1.1-3.3c0.7-0.8,1.8-1.2,3.1-1.2c0.8,0,1.6,0.2,2.2,0.5c0.6,0.4,1.1,0.9,1.5,1.6
		C344.9,389.5,345,390.3,345,391.2z M339,391.2c0,0.9,0.1,1.5,0.4,2c0.3,0.4,0.7,0.7,1.4,0.7c0.6,0,1.1-0.2,1.4-0.7
		c0.3-0.4,0.4-1.1,0.4-2c0-0.9-0.1-1.5-0.4-1.9c-0.3-0.4-0.7-0.6-1.4-0.6c-0.6,0-1.1,0.2-1.4,0.6S339,390.4,339,391.2z"/>
	<path class="st2" d="M349.4,395.6H347v-12.2h2.4V395.6z"/>
	<path class="st2" d="M351.8,384.6c0-0.8,0.4-1.2,1.3-1.2c0.9,0,1.3,0.4,1.3,1.2c0,0.4-0.1,0.7-0.3,0.9c-0.2,0.2-0.5,0.3-1,0.3
		C352.2,385.8,351.8,385.4,351.8,384.6z M354.3,395.6h-2.4v-8.7h2.4V395.6z"/>
	<path class="st2" d="M364.7,391.2c0,1.4-0.4,2.5-1.1,3.3c-0.8,0.8-1.8,1.2-3.1,1.2c-0.8,0-1.6-0.2-2.2-0.6s-1.1-0.9-1.5-1.6
		s-0.5-1.5-0.5-2.4c0-1.4,0.4-2.5,1.1-3.3c0.7-0.8,1.8-1.2,3.1-1.2c0.8,0,1.6,0.2,2.2,0.5c0.6,0.4,1.1,0.9,1.5,1.6
		C364.5,389.5,364.7,390.3,364.7,391.2z M358.7,391.2c0,0.9,0.1,1.5,0.4,2c0.3,0.4,0.7,0.7,1.4,0.7c0.6,0,1.1-0.2,1.4-0.7
		c0.3-0.4,0.4-1.1,0.4-2c0-0.9-0.1-1.5-0.4-1.9c-0.3-0.4-0.7-0.6-1.4-0.6c-0.6,0-1.1,0.2-1.4,0.6S358.7,390.4,358.7,391.2z"/>
</g>
<g class="st18">
	<path class="st2" d="M285.8,417.6l-2.8-9H283c0.1,1.8,0.1,3,0.1,3.6v5.3h-2.2v-11.4h3.3l2.7,8.7h0l2.9-8.7h3.3v11.4h-2.3v-5.4
		c0-0.3,0-0.6,0-0.9c0-0.3,0-1.2,0.1-2.7h-0.1l-2.9,8.9H285.8z"/>
	<path class="st2" d="M301.4,417.6l-0.5-1.2h-0.1c-0.4,0.5-0.8,0.9-1.2,1.1s-1,0.3-1.7,0.3c-0.8,0-1.5-0.2-2-0.7
		c-0.5-0.5-0.7-1.2-0.7-2c0-0.9,0.3-1.6,1-2.1c0.6-0.4,1.6-0.7,2.9-0.7l1.5,0v-0.4c0-0.9-0.5-1.3-1.4-1.3c-0.7,0-1.5,0.2-2.5,0.6
		l-0.8-1.6c1-0.5,2.1-0.8,3.3-0.8c1.2,0,2.1,0.3,2.7,0.8c0.6,0.5,0.9,1.3,0.9,2.3v5.8H301.4z M300.7,413.6l-0.9,0
		c-0.7,0-1.2,0.1-1.5,0.4c-0.3,0.2-0.5,0.6-0.5,1c0,0.7,0.4,1,1.2,1c0.6,0,1-0.2,1.3-0.5c0.3-0.3,0.5-0.7,0.5-1.3V413.6z"/>
	<path class="st2" d="M313.6,417.6h-2.4v-5.1c0-0.6-0.1-1.1-0.3-1.4c-0.2-0.3-0.6-0.5-1.1-0.5c-0.7,0-1.1,0.2-1.4,0.7
		s-0.4,1.2-0.4,2.2v4.1h-2.4v-8.7h1.8l0.3,1.1h0.1c0.3-0.4,0.6-0.7,1.1-1c0.5-0.2,1-0.3,1.6-0.3c1,0,1.8,0.3,2.3,0.8
		c0.5,0.5,0.8,1.3,0.8,2.4V417.6z"/>
	<path class="st2" d="M321.6,417.6l-0.5-1.2H321c-0.4,0.5-0.8,0.9-1.2,1.1s-1,0.3-1.7,0.3c-0.8,0-1.5-0.2-2-0.7
		c-0.5-0.5-0.7-1.2-0.7-2c0-0.9,0.3-1.6,1-2.1c0.6-0.4,1.6-0.7,2.9-0.7l1.5,0v-0.4c0-0.9-0.5-1.3-1.4-1.3c-0.7,0-1.5,0.2-2.5,0.6
		l-0.8-1.6c1-0.5,2.1-0.8,3.3-0.8c1.2,0,2.1,0.3,2.7,0.8c0.6,0.5,0.9,1.3,0.9,2.3v5.8H321.6z M320.9,413.6l-0.9,0
		c-0.7,0-1.2,0.1-1.5,0.4c-0.3,0.2-0.5,0.6-0.5,1c0,0.7,0.4,1,1.2,1c0.6,0,1-0.2,1.3-0.5c0.3-0.3,0.5-0.7,0.5-1.3V413.6z"/>
	<path class="st2" d="M333.3,408.9v1.2l-1.4,0.4c0.3,0.4,0.4,0.8,0.4,1.3c0,0.9-0.3,1.7-1,2.2s-1.6,0.8-2.7,0.8l-0.4,0l-0.4,0
		c-0.2,0.2-0.4,0.4-0.4,0.6c0,0.3,0.4,0.5,1.3,0.5h1.5c1,0,1.7,0.2,2.2,0.6c0.5,0.4,0.8,1,0.8,1.8c0,1-0.4,1.8-1.3,2.4
		s-2.1,0.8-3.7,0.8c-1.2,0-2.1-0.2-2.8-0.6c-0.6-0.4-1-1-1-1.8c0-0.5,0.2-1,0.5-1.3c0.3-0.4,0.8-0.6,1.4-0.8
		c-0.2-0.1-0.5-0.3-0.6-0.5c-0.2-0.2-0.3-0.5-0.3-0.8c0-0.3,0.1-0.6,0.3-0.8c0.2-0.2,0.5-0.4,0.8-0.7c-0.5-0.2-0.8-0.5-1.1-1
		s-0.4-1-0.4-1.5c0-1,0.3-1.7,0.9-2.2c0.6-0.5,1.5-0.8,2.7-0.8c0.2,0,0.5,0,0.9,0.1c0.3,0,0.6,0.1,0.6,0.1H333.3z M326.5,418.8
		c0,0.3,0.2,0.6,0.5,0.8s0.8,0.3,1.3,0.3c0.9,0,1.5-0.1,2-0.4s0.7-0.6,0.7-1c0-0.3-0.1-0.6-0.4-0.7s-0.7-0.2-1.3-0.2h-1.2
		c-0.4,0-0.8,0.1-1.1,0.3C326.7,418.2,326.5,418.5,326.5,418.8z M327.4,411.7c0,0.5,0.1,0.8,0.3,1.1c0.2,0.3,0.5,0.4,1,0.4
		c0.4,0,0.8-0.1,1-0.4c0.2-0.3,0.3-0.7,0.3-1.1c0-1.1-0.4-1.6-1.3-1.6C327.9,410.2,327.4,410.7,327.4,411.7z"/>
	<path class="st2" d="M338.7,417.8c-1.4,0-2.5-0.4-3.3-1.2c-0.8-0.8-1.2-1.9-1.2-3.3c0-1.5,0.4-2.6,1.1-3.4c0.7-0.8,1.7-1.2,3-1.2
		c1.2,0,2.2,0.4,2.9,1.1s1,1.7,1,2.9v1.2h-5.6c0,0.7,0.2,1.2,0.6,1.6c0.4,0.4,0.9,0.6,1.6,0.6c0.5,0,1-0.1,1.5-0.2s1-0.3,1.5-0.5
		v1.8c-0.4,0.2-0.9,0.4-1.3,0.5S339.4,417.8,338.7,417.8z M338.3,410.4c-0.5,0-0.9,0.2-1.2,0.5s-0.5,0.8-0.5,1.4h3.3
		c0-0.6-0.2-1-0.5-1.4S338.9,410.4,338.3,410.4z"/>
	<path class="st2" d="M352,417.6h-2.4v-5.1c0-0.6-0.1-1.1-0.3-1.4c-0.2-0.3-0.5-0.5-1-0.5c-0.6,0-1.1,0.2-1.3,0.7
		c-0.3,0.4-0.4,1.2-0.4,2.2v4.1h-2.4v-8.7h1.8l0.3,1.1h0.1c0.2-0.4,0.6-0.7,1-0.9s1-0.3,1.5-0.3c1.3,0,2.2,0.4,2.7,1.3h0.2
		c0.2-0.4,0.6-0.7,1-0.9c0.5-0.2,1-0.3,1.5-0.3c1,0,1.7,0.3,2.2,0.8s0.8,1.3,0.8,2.4v5.7h-2.4v-5.1c0-0.6-0.1-1.1-0.3-1.4
		c-0.2-0.3-0.5-0.5-1-0.5c-0.6,0-1,0.2-1.3,0.6c-0.3,0.4-0.4,1.1-0.4,2V417.6z"/>
	<path class="st2" d="M363.8,417.8c-1.4,0-2.5-0.4-3.3-1.2c-0.8-0.8-1.2-1.9-1.2-3.3c0-1.5,0.4-2.6,1.1-3.4c0.7-0.8,1.7-1.2,3-1.2
		c1.2,0,2.2,0.4,2.9,1.1s1,1.7,1,2.9v1.2h-5.6c0,0.7,0.2,1.2,0.6,1.6c0.4,0.4,0.9,0.6,1.6,0.6c0.5,0,1-0.1,1.5-0.2s1-0.3,1.5-0.5
		v1.8c-0.4,0.2-0.9,0.4-1.3,0.5S364.5,417.8,363.8,417.8z M363.5,410.4c-0.5,0-0.9,0.2-1.2,0.5s-0.5,0.8-0.5,1.4h3.3
		c0-0.6-0.2-1-0.5-1.4S364,410.4,363.5,410.4z"/>
	<path class="st2" d="M377.4,417.6H375v-5.1c0-0.6-0.1-1.1-0.3-1.4c-0.2-0.3-0.6-0.5-1.1-0.5c-0.7,0-1.1,0.2-1.4,0.7
		s-0.4,1.2-0.4,2.2v4.1h-2.4v-8.7h1.8l0.3,1.1h0.1c0.3-0.4,0.6-0.7,1.1-1c0.5-0.2,1-0.3,1.6-0.3c1,0,1.8,0.3,2.3,0.8
		c0.5,0.5,0.8,1.3,0.8,2.4V417.6z"/>
	<path class="st2" d="M383.5,415.9c0.4,0,0.9-0.1,1.5-0.3v1.8c-0.6,0.3-1.3,0.4-2.2,0.4c-1,0-1.6-0.2-2.1-0.7
		c-0.4-0.5-0.7-1.2-0.7-2.2v-4.2H379v-1l1.3-0.8l0.7-1.8h1.5v1.9h2.4v1.8h-2.4v4.2c0,0.3,0.1,0.6,0.3,0.8
		C383,415.8,383.2,415.9,383.5,415.9z"/>
</g>
<g class="st18">
	<path class="st2" d="M170.2,391.2v4.4h-2.4v-11.4h3.3c1.6,0,2.7,0.3,3.4,0.8c0.7,0.6,1.1,1.4,1.1,2.6c0,0.7-0.2,1.3-0.6,1.8
		c-0.4,0.5-0.9,0.9-1.6,1.2c1.7,2.6,2.8,4.2,3.4,5h-2.7l-2.7-4.4H170.2z M170.2,389.3h0.8c0.8,0,1.3-0.1,1.7-0.4
		c0.4-0.3,0.5-0.7,0.5-1.2c0-0.5-0.2-0.9-0.6-1.2c-0.4-0.2-0.9-0.3-1.7-0.3h-0.7V389.3z"/>
	<path class="st2" d="M182.1,395.8c-1.4,0-2.5-0.4-3.3-1.2c-0.8-0.8-1.2-1.9-1.2-3.3c0-1.5,0.4-2.6,1.1-3.4c0.7-0.8,1.7-1.2,3-1.2
		c1.2,0,2.2,0.4,2.9,1.1s1,1.7,1,2.9v1.2h-5.6c0,0.7,0.2,1.2,0.6,1.6c0.4,0.4,0.9,0.6,1.6,0.6c0.5,0,1-0.1,1.5-0.2s1-0.3,1.5-0.5
		v1.8c-0.4,0.2-0.9,0.4-1.3,0.5C183.4,395.7,182.8,395.8,182.1,395.8z M181.8,388.4c-0.5,0-0.9,0.2-1.2,0.5
		c-0.3,0.3-0.5,0.8-0.5,1.4h3.3c0-0.6-0.2-1-0.5-1.4S182.3,388.4,181.8,388.4z"/>
	<path class="st2" d="M193.7,393c0,0.9-0.3,1.6-0.9,2c-0.6,0.5-1.6,0.7-2.8,0.7c-0.6,0-1.2,0-1.6-0.1c-0.4-0.1-0.9-0.2-1.3-0.4v-2
		c0.4,0.2,0.9,0.4,1.5,0.5s1,0.2,1.5,0.2c0.9,0,1.3-0.3,1.3-0.8c0-0.2-0.1-0.3-0.2-0.5c-0.1-0.1-0.3-0.3-0.6-0.4s-0.7-0.3-1.1-0.5
		c-0.7-0.3-1.2-0.5-1.5-0.8c-0.3-0.2-0.5-0.5-0.7-0.8c-0.1-0.3-0.2-0.7-0.2-1.1c0-0.8,0.3-1.4,0.9-1.8c0.6-0.4,1.5-0.6,2.6-0.6
		c1.1,0,2.1,0.2,3.1,0.7l-0.7,1.7c-0.4-0.2-0.8-0.3-1.2-0.5c-0.4-0.1-0.8-0.2-1.2-0.2c-0.7,0-1.1,0.2-1.1,0.6c0,0.2,0.1,0.4,0.3,0.6
		s0.7,0.4,1.5,0.7c0.7,0.3,1.2,0.5,1.5,0.8c0.3,0.2,0.6,0.5,0.7,0.8C193.6,392.2,193.7,392.6,193.7,393z"/>
	<path class="st2" d="M203.5,391.2c0,1.4-0.4,2.5-1.1,3.3c-0.8,0.8-1.8,1.2-3.1,1.2c-0.8,0-1.6-0.2-2.2-0.6s-1.1-0.9-1.5-1.6
		s-0.5-1.5-0.5-2.4c0-1.4,0.4-2.5,1.1-3.3c0.7-0.8,1.8-1.2,3.1-1.2c0.8,0,1.6,0.2,2.2,0.5c0.6,0.4,1.1,0.9,1.5,1.6
		C203.3,389.5,203.5,390.3,203.5,391.2z M197.5,391.2c0,0.9,0.1,1.5,0.4,2c0.3,0.4,0.7,0.7,1.4,0.7c0.6,0,1.1-0.2,1.4-0.7
		c0.3-0.4,0.4-1.1,0.4-2c0-0.9-0.1-1.5-0.4-1.9c-0.3-0.4-0.7-0.6-1.4-0.6c-0.6,0-1.1,0.2-1.4,0.6S197.5,390.4,197.5,391.2z"/>
	<path class="st2" d="M211.7,395.6l-0.3-1.1h-0.1c-0.3,0.4-0.6,0.7-1.1,0.9c-0.5,0.2-1,0.3-1.6,0.3c-1,0-1.8-0.3-2.3-0.8
		c-0.5-0.6-0.8-1.3-0.8-2.4v-5.7h2.4v5.1c0,0.6,0.1,1.1,0.3,1.4c0.2,0.3,0.6,0.5,1.1,0.5c0.7,0,1.1-0.2,1.4-0.7s0.4-1.2,0.4-2.2
		v-4.1h2.4v8.7H211.7z"/>
	<path class="st2" d="M220.9,386.7c0.3,0,0.6,0,0.8,0.1l-0.2,2.2c-0.2-0.1-0.4-0.1-0.7-0.1c-0.8,0-1.4,0.2-1.8,0.6
		c-0.4,0.4-0.6,0.9-0.6,1.6v4.4H216v-8.7h1.8l0.4,1.5h0.1c0.3-0.5,0.6-0.9,1.1-1.2C219.8,386.9,220.3,386.7,220.9,386.7z"/>
	<path class="st2" d="M226.8,395.8c-2.7,0-4.1-1.5-4.1-4.5c0-1.5,0.4-2.6,1.1-3.4c0.7-0.8,1.8-1.2,3.2-1.2c1,0,1.9,0.2,2.7,0.6
		l-0.7,1.8c-0.4-0.2-0.7-0.3-1-0.4c-0.3-0.1-0.6-0.1-1-0.1c-1.2,0-1.9,0.9-1.9,2.6c0,1.7,0.6,2.6,1.9,2.6c0.5,0,0.9-0.1,1.3-0.2
		c0.4-0.1,0.8-0.3,1.2-0.6v2c-0.4,0.2-0.8,0.4-1.2,0.5C227.9,395.7,227.4,395.8,226.8,395.8z"/>
	<path class="st2" d="M235.4,395.8c-1.4,0-2.5-0.4-3.3-1.2c-0.8-0.8-1.2-1.9-1.2-3.3c0-1.5,0.4-2.6,1.1-3.4c0.7-0.8,1.7-1.2,3-1.2
		c1.2,0,2.2,0.4,2.9,1.1s1,1.7,1,2.9v1.2h-5.6c0,0.7,0.2,1.2,0.6,1.6c0.4,0.4,0.9,0.6,1.6,0.6c0.5,0,1-0.1,1.5-0.2s1-0.3,1.5-0.5
		v1.8c-0.4,0.2-0.9,0.4-1.3,0.5C236.7,395.7,236.1,395.8,235.4,395.8z M235.1,388.4c-0.5,0-0.9,0.2-1.2,0.5
		c-0.3,0.3-0.5,0.8-0.5,1.4h3.3c0-0.6-0.2-1-0.5-1.4S235.6,388.4,235.1,388.4z"/>
</g>
<g class="st18">
	<path class="st2" d="M158.4,417.6l-2.8-9h-0.1c0.1,1.8,0.1,3,0.1,3.6v5.3h-2.2v-11.4h3.3l2.7,8.7h0l2.9-8.7h3.3v11.4h-2.3v-5.4
		c0-0.3,0-0.6,0-0.9c0-0.3,0-1.2,0.1-2.7h-0.1l-2.9,8.9H158.4z"/>
	<path class="st2" d="M174,417.6l-0.5-1.2h-0.1c-0.4,0.5-0.8,0.9-1.2,1.1c-0.4,0.2-1,0.3-1.7,0.3c-0.8,0-1.5-0.2-2-0.7
		c-0.5-0.5-0.7-1.2-0.7-2c0-0.9,0.3-1.6,1-2.1c0.6-0.4,1.6-0.7,2.9-0.7l1.5,0v-0.4c0-0.9-0.5-1.3-1.4-1.3c-0.7,0-1.5,0.2-2.5,0.6
		l-0.8-1.6c1-0.5,2.1-0.8,3.3-0.8c1.2,0,2.1,0.3,2.7,0.8c0.6,0.5,0.9,1.3,0.9,2.3v5.8H174z M173.3,413.6l-0.9,0
		c-0.7,0-1.2,0.1-1.5,0.4c-0.3,0.2-0.5,0.6-0.5,1c0,0.7,0.4,1,1.2,1c0.6,0,1-0.2,1.3-0.5c0.3-0.3,0.5-0.7,0.5-1.3V413.6z"/>
	<path class="st2" d="M186.1,417.6h-2.4v-5.1c0-0.6-0.1-1.1-0.3-1.4c-0.2-0.3-0.6-0.5-1.1-0.5c-0.7,0-1.1,0.2-1.4,0.7
		s-0.4,1.2-0.4,2.2v4.1h-2.4v-8.7h1.8l0.3,1.1h0.1c0.3-0.4,0.6-0.7,1.1-1c0.5-0.2,1-0.3,1.6-0.3c1,0,1.8,0.3,2.3,0.8
		c0.5,0.5,0.8,1.3,0.8,2.4V417.6z"/>
	<path class="st2" d="M194.1,417.6l-0.5-1.2h-0.1c-0.4,0.5-0.8,0.9-1.2,1.1c-0.4,0.2-1,0.3-1.7,0.3c-0.8,0-1.5-0.2-2-0.7
		c-0.5-0.5-0.7-1.2-0.7-2c0-0.9,0.3-1.6,1-2.1c0.6-0.4,1.6-0.7,2.9-0.7l1.5,0v-0.4c0-0.9-0.5-1.3-1.4-1.3c-0.7,0-1.5,0.2-2.5,0.6
		l-0.8-1.6c1-0.5,2.1-0.8,3.3-0.8c1.2,0,2.1,0.3,2.7,0.8c0.6,0.5,0.9,1.3,0.9,2.3v5.8H194.1z M193.4,413.6l-0.9,0
		c-0.7,0-1.2,0.1-1.5,0.4c-0.3,0.2-0.5,0.6-0.5,1c0,0.7,0.4,1,1.2,1c0.6,0,1-0.2,1.3-0.5c0.3-0.3,0.5-0.7,0.5-1.3V413.6z"/>
	<path class="st2" d="M205.9,408.9v1.2l-1.4,0.4c0.3,0.4,0.4,0.8,0.4,1.3c0,0.9-0.3,1.7-1,2.2c-0.7,0.5-1.6,0.8-2.7,0.8l-0.4,0
		l-0.4,0c-0.2,0.2-0.4,0.4-0.4,0.6c0,0.3,0.4,0.5,1.3,0.5h1.5c1,0,1.7,0.2,2.2,0.6c0.5,0.4,0.8,1,0.8,1.8c0,1-0.4,1.8-1.3,2.4
		s-2.1,0.8-3.7,0.8c-1.2,0-2.1-0.2-2.8-0.6c-0.6-0.4-1-1-1-1.8c0-0.5,0.2-1,0.5-1.3c0.3-0.4,0.8-0.6,1.4-0.8
		c-0.2-0.1-0.5-0.3-0.6-0.5c-0.2-0.2-0.3-0.5-0.3-0.8c0-0.3,0.1-0.6,0.3-0.8c0.2-0.2,0.5-0.4,0.8-0.7c-0.5-0.2-0.8-0.5-1.1-1
		c-0.3-0.4-0.4-1-0.4-1.5c0-1,0.3-1.7,0.9-2.2c0.6-0.5,1.5-0.8,2.7-0.8c0.2,0,0.5,0,0.9,0.1c0.3,0,0.6,0.1,0.6,0.1H205.9z
		 M199.1,418.8c0,0.3,0.2,0.6,0.5,0.8c0.3,0.2,0.8,0.3,1.3,0.3c0.9,0,1.5-0.1,2-0.4s0.7-0.6,0.7-1c0-0.3-0.1-0.6-0.4-0.7
		c-0.3-0.1-0.7-0.2-1.3-0.2h-1.2c-0.4,0-0.8,0.1-1.1,0.3C199.3,418.2,199.1,418.5,199.1,418.8z M200,411.7c0,0.5,0.1,0.8,0.3,1.1
		c0.2,0.3,0.5,0.4,1,0.4c0.4,0,0.8-0.1,1-0.4c0.2-0.3,0.3-0.7,0.3-1.1c0-1.1-0.4-1.6-1.3-1.6C200.4,410.2,200,410.7,200,411.7z"/>
	<path class="st2" d="M211.3,417.8c-1.4,0-2.5-0.4-3.3-1.2c-0.8-0.8-1.2-1.9-1.2-3.3c0-1.5,0.4-2.6,1.1-3.4c0.7-0.8,1.7-1.2,3-1.2
		c1.2,0,2.2,0.4,2.9,1.1s1,1.7,1,2.9v1.2h-5.6c0,0.7,0.2,1.2,0.6,1.6c0.4,0.4,0.9,0.6,1.6,0.6c0.5,0,1-0.1,1.5-0.2s1-0.3,1.5-0.5
		v1.8c-0.4,0.2-0.9,0.4-1.3,0.5C212.5,417.7,211.9,417.8,211.3,417.8z M210.9,410.4c-0.5,0-0.9,0.2-1.2,0.5
		c-0.3,0.3-0.5,0.8-0.5,1.4h3.3c0-0.6-0.2-1-0.5-1.4S211.4,410.4,210.9,410.4z"/>
	<path class="st2" d="M224.6,417.6h-2.4v-5.1c0-0.6-0.1-1.1-0.3-1.4c-0.2-0.3-0.5-0.5-1-0.5c-0.6,0-1.1,0.2-1.3,0.7
		c-0.3,0.4-0.4,1.2-0.4,2.2v4.1h-2.4v-8.7h1.8l0.3,1.1h0.1c0.2-0.4,0.6-0.7,1-0.9c0.4-0.2,1-0.3,1.5-0.3c1.3,0,2.2,0.4,2.7,1.3h0.2
		c0.2-0.4,0.6-0.7,1-0.9c0.5-0.2,1-0.3,1.5-0.3c1,0,1.7,0.3,2.2,0.8s0.8,1.3,0.8,2.4v5.7h-2.4v-5.1c0-0.6-0.1-1.1-0.3-1.4
		c-0.2-0.3-0.5-0.5-1-0.5c-0.6,0-1,0.2-1.3,0.6c-0.3,0.4-0.4,1.1-0.4,2V417.6z"/>
	<path class="st2" d="M236.4,417.8c-1.4,0-2.5-0.4-3.3-1.2c-0.8-0.8-1.2-1.9-1.2-3.3c0-1.5,0.4-2.6,1.1-3.4c0.7-0.8,1.7-1.2,3-1.2
		c1.2,0,2.2,0.4,2.9,1.1s1,1.7,1,2.9v1.2h-5.6c0,0.7,0.2,1.2,0.6,1.6c0.4,0.4,0.9,0.6,1.6,0.6c0.5,0,1-0.1,1.5-0.2s1-0.3,1.5-0.5
		v1.8c-0.4,0.2-0.9,0.4-1.3,0.5C237.7,417.7,237.1,417.8,236.4,417.8z M236.1,410.4c-0.5,0-0.9,0.2-1.2,0.5
		c-0.3,0.3-0.5,0.8-0.5,1.4h3.3c0-0.6-0.2-1-0.5-1.4S236.6,410.4,236.1,410.4z"/>
	<path class="st2" d="M250,417.6h-2.4v-5.1c0-0.6-0.1-1.1-0.3-1.4c-0.2-0.3-0.6-0.5-1.1-0.5c-0.7,0-1.1,0.2-1.4,0.7
		s-0.4,1.2-0.4,2.2v4.1h-2.4v-8.7h1.8l0.3,1.1h0.1c0.3-0.4,0.6-0.7,1.1-1c0.5-0.2,1-0.3,1.6-0.3c1,0,1.8,0.3,2.3,0.8
		c0.5,0.5,0.8,1.3,0.8,2.4V417.6z"/>
	<path class="st2" d="M256.1,415.9c0.4,0,0.9-0.1,1.5-0.3v1.8c-0.6,0.3-1.3,0.4-2.2,0.4c-1,0-1.6-0.2-2.1-0.7
		c-0.4-0.5-0.7-1.2-0.7-2.2v-4.2h-1.1v-1l1.3-0.8l0.7-1.8h1.5v1.9h2.4v1.8h-2.4v4.2c0,0.3,0.1,0.6,0.3,0.8
		C255.5,415.8,255.8,415.9,256.1,415.9z"/>
</g>
<g class="st18">
	<path class="st2" d="M102.5,298.5h-2.8l-3-4.8l-1,0.7v4.1h-2.4v-11.4h2.4v5.2l1-1.3l3.1-3.9h2.7l-4,5.1L102.5,298.5z"/>
	<path class="st2" d="M111.8,298.5h-2.4v-5.1c0-0.6-0.1-1.1-0.3-1.4c-0.2-0.3-0.6-0.5-1.1-0.5c-0.7,0-1.1,0.2-1.4,0.7
		s-0.4,1.2-0.4,2.2v4.1h-2.4v-8.7h1.8l0.3,1.1h0.1c0.3-0.4,0.6-0.7,1.1-1c0.5-0.2,1-0.3,1.6-0.3c1,0,1.8,0.3,2.3,0.8
		c0.5,0.5,0.8,1.3,0.8,2.4V298.5z"/>
	<path class="st2" d="M122.2,294.1c0,1.4-0.4,2.5-1.1,3.3c-0.8,0.8-1.8,1.2-3.1,1.2c-0.8,0-1.6-0.2-2.2-0.6s-1.1-0.9-1.5-1.6
		s-0.5-1.5-0.5-2.4c0-1.4,0.4-2.5,1.1-3.3c0.7-0.8,1.8-1.2,3.1-1.2c0.8,0,1.6,0.2,2.2,0.5c0.6,0.4,1.1,0.9,1.5,1.6
		C122,292.4,122.2,293.2,122.2,294.1z M116.2,294.1c0,0.9,0.1,1.5,0.4,2c0.3,0.4,0.7,0.7,1.4,0.7c0.6,0,1.1-0.2,1.4-0.7
		c0.3-0.4,0.4-1.1,0.4-2c0-0.9-0.1-1.5-0.4-1.9c-0.3-0.4-0.7-0.6-1.4-0.6c-0.6,0-1.1,0.2-1.4,0.6S116.2,293.2,116.2,294.1z"/>
	<path class="st2" d="M131.3,298.5l-0.7-3.1l-0.9-3.9h-0.1l-1.6,6.9h-2.6l-2.5-8.7h2.4l1,3.9c0.2,0.7,0.3,1.6,0.5,2.9h0
		c0-0.4,0.1-1,0.3-1.9l0.1-0.7l1.1-4.2h2.6l1,4.2c0,0.1,0.1,0.3,0.1,0.5c0,0.2,0.1,0.5,0.1,0.7c0,0.3,0.1,0.5,0.1,0.7
		c0,0.2,0.1,0.4,0.1,0.6h0c0-0.4,0.1-0.9,0.3-1.5c0.1-0.7,0.2-1.1,0.3-1.3l1-3.9h2.3l-2.5,8.7H131.3z"/>
	<path class="st2" d="M140.2,298.5h-2.4v-12.2h2.4V298.5z"/>
	<path class="st2" d="M146.7,298.6c-1.4,0-2.5-0.4-3.3-1.2c-0.8-0.8-1.2-1.9-1.2-3.3c0-1.5,0.4-2.6,1.1-3.4c0.7-0.8,1.7-1.2,3-1.2
		c1.2,0,2.2,0.4,2.9,1.1s1,1.7,1,2.9v1.2h-5.6c0,0.7,0.2,1.2,0.6,1.6c0.4,0.4,0.9,0.6,1.6,0.6c0.5,0,1-0.1,1.5-0.2s1-0.3,1.5-0.5
		v1.8c-0.4,0.2-0.9,0.4-1.3,0.5C148,298.6,147.4,298.6,146.7,298.6z M146.4,291.3c-0.5,0-0.9,0.2-1.2,0.5c-0.3,0.3-0.5,0.8-0.5,1.4
		h3.3c0-0.6-0.2-1-0.5-1.4S146.9,291.3,146.4,291.3z"/>
	<path class="st2" d="M155,298.6c-1,0-1.8-0.4-2.4-1.2s-0.9-1.9-0.9-3.3c0-1.4,0.3-2.5,0.9-3.3c0.6-0.8,1.4-1.2,2.5-1.2
		c1.1,0,1.9,0.4,2.5,1.3h0.1c-0.1-0.7-0.2-1.2-0.2-1.7v-2.8h2.4v12.2H158l-0.5-1.1h-0.1C156.9,298.2,156.1,298.6,155,298.6z
		 M155.8,296.7c0.6,0,1.1-0.2,1.3-0.5c0.3-0.4,0.4-1,0.5-1.8v-0.3c0-0.9-0.1-1.6-0.4-2s-0.8-0.6-1.4-0.6c-0.5,0-0.9,0.2-1.2,0.7
		c-0.3,0.4-0.4,1.1-0.4,2s0.1,1.5,0.4,1.9S155.2,296.7,155.8,296.7z"/>
	<path class="st2" d="M169.9,289.7v1.2l-1.4,0.4c0.3,0.4,0.4,0.8,0.4,1.3c0,0.9-0.3,1.7-1,2.2c-0.7,0.5-1.6,0.8-2.7,0.8l-0.4,0
		l-0.4,0c-0.2,0.2-0.4,0.4-0.4,0.6c0,0.3,0.4,0.5,1.3,0.5h1.5c1,0,1.7,0.2,2.2,0.6c0.5,0.4,0.8,1,0.8,1.8c0,1-0.4,1.8-1.3,2.4
		s-2.1,0.8-3.7,0.8c-1.2,0-2.1-0.2-2.8-0.6c-0.6-0.4-1-1-1-1.8c0-0.5,0.2-1,0.5-1.3c0.3-0.4,0.8-0.6,1.4-0.8
		c-0.2-0.1-0.5-0.3-0.6-0.5c-0.2-0.2-0.3-0.5-0.3-0.8c0-0.3,0.1-0.6,0.3-0.8c0.2-0.2,0.5-0.4,0.8-0.7c-0.5-0.2-0.8-0.5-1.1-1
		c-0.3-0.4-0.4-1-0.4-1.5c0-1,0.3-1.7,0.9-2.2c0.6-0.5,1.5-0.8,2.7-0.8c0.2,0,0.5,0,0.9,0.1c0.3,0,0.6,0.1,0.6,0.1H169.9z
		 M163.2,299.7c0,0.3,0.2,0.6,0.5,0.8c0.3,0.2,0.8,0.3,1.3,0.3c0.9,0,1.5-0.1,2-0.4s0.7-0.6,0.7-1c0-0.3-0.1-0.6-0.4-0.7
		c-0.3-0.1-0.7-0.2-1.3-0.2h-1.2c-0.4,0-0.8,0.1-1.1,0.3C163.3,299.1,163.2,299.4,163.2,299.7z M164.1,292.6c0,0.5,0.1,0.8,0.3,1.1
		c0.2,0.3,0.5,0.4,1,0.4c0.4,0,0.8-0.1,1-0.4c0.2-0.3,0.3-0.7,0.3-1.1c0-1.1-0.4-1.6-1.3-1.6C164.5,291,164.1,291.6,164.1,292.6z"/>
	<path class="st2" d="M175.3,298.6c-1.4,0-2.5-0.4-3.3-1.2c-0.8-0.8-1.2-1.9-1.2-3.3c0-1.5,0.4-2.6,1.1-3.4c0.7-0.8,1.7-1.2,3-1.2
		c1.2,0,2.2,0.4,2.9,1.1s1,1.7,1,2.9v1.2h-5.6c0,0.7,0.2,1.2,0.6,1.6c0.4,0.4,0.9,0.6,1.6,0.6c0.5,0,1-0.1,1.5-0.2s1-0.3,1.5-0.5
		v1.8c-0.4,0.2-0.9,0.4-1.3,0.5C176.6,298.6,176,298.6,175.3,298.6z M175,291.3c-0.5,0-0.9,0.2-1.2,0.5c-0.3,0.3-0.5,0.8-0.5,1.4
		h3.3c0-0.6-0.2-1-0.5-1.4S175.5,291.3,175,291.3z"/>
</g>
<g class="st18">
	<path class="st2" d="M91,320.5l-2.8-9h-0.1c0.1,1.8,0.1,3,0.1,3.6v5.3h-2.2v-11.4h3.3l2.7,8.7h0l2.9-8.7h3.3v11.4h-2.3v-5.4
		c0-0.3,0-0.6,0-0.9c0-0.3,0-1.2,0.1-2.7h-0.1l-2.9,8.9H91z"/>
	<path class="st2" d="M106.7,320.5l-0.5-1.2h-0.1c-0.4,0.5-0.8,0.9-1.2,1.1c-0.4,0.2-1,0.3-1.7,0.3c-0.8,0-1.5-0.2-2-0.7
		c-0.5-0.5-0.7-1.2-0.7-2c0-0.9,0.3-1.6,1-2.1c0.6-0.4,1.6-0.7,2.9-0.7l1.5,0v-0.4c0-0.9-0.5-1.3-1.4-1.3c-0.7,0-1.5,0.2-2.5,0.6
		l-0.8-1.6c1-0.5,2.1-0.8,3.3-0.8c1.2,0,2.1,0.3,2.7,0.8c0.6,0.5,0.9,1.3,0.9,2.3v5.8H106.7z M106,316.4l-0.9,0
		c-0.7,0-1.2,0.1-1.5,0.4c-0.3,0.2-0.5,0.6-0.5,1c0,0.7,0.4,1,1.2,1c0.6,0,1-0.2,1.3-0.5c0.3-0.3,0.5-0.7,0.5-1.3V316.4z"/>
	<path class="st2" d="M118.8,320.5h-2.4v-5.1c0-0.6-0.1-1.1-0.3-1.4c-0.2-0.3-0.6-0.5-1.1-0.5c-0.7,0-1.1,0.2-1.4,0.7
		s-0.4,1.2-0.4,2.2v4.1h-2.4v-8.7h1.8l0.3,1.1h0.1c0.3-0.4,0.6-0.7,1.1-1c0.5-0.2,1-0.3,1.6-0.3c1,0,1.8,0.3,2.3,0.8
		c0.5,0.5,0.8,1.3,0.8,2.4V320.5z"/>
	<path class="st2" d="M126.8,320.5l-0.5-1.2h-0.1c-0.4,0.5-0.8,0.9-1.2,1.1c-0.4,0.2-1,0.3-1.7,0.3c-0.8,0-1.5-0.2-2-0.7
		c-0.5-0.5-0.7-1.2-0.7-2c0-0.9,0.3-1.6,1-2.1c0.6-0.4,1.6-0.7,2.9-0.7l1.5,0v-0.4c0-0.9-0.5-1.3-1.4-1.3c-0.7,0-1.5,0.2-2.5,0.6
		l-0.8-1.6c1-0.5,2.1-0.8,3.3-0.8c1.2,0,2.1,0.3,2.7,0.8c0.6,0.5,0.9,1.3,0.9,2.3v5.8H126.8z M126.1,316.4l-0.9,0
		c-0.7,0-1.2,0.1-1.5,0.4c-0.3,0.2-0.5,0.6-0.5,1c0,0.7,0.4,1,1.2,1c0.6,0,1-0.2,1.3-0.5c0.3-0.3,0.5-0.7,0.5-1.3V316.4z"/>
	<path class="st2" d="M138.6,311.7v1.2l-1.4,0.4c0.3,0.4,0.4,0.8,0.4,1.3c0,0.9-0.3,1.7-1,2.2c-0.7,0.5-1.6,0.8-2.7,0.8l-0.4,0
		l-0.4,0c-0.2,0.2-0.4,0.4-0.4,0.6c0,0.3,0.4,0.5,1.3,0.5h1.5c1,0,1.7,0.2,2.2,0.6c0.5,0.4,0.8,1,0.8,1.8c0,1-0.4,1.8-1.3,2.4
		s-2.1,0.8-3.7,0.8c-1.2,0-2.1-0.2-2.8-0.6c-0.6-0.4-1-1-1-1.8c0-0.5,0.2-1,0.5-1.3c0.3-0.4,0.8-0.6,1.4-0.8
		c-0.2-0.1-0.5-0.3-0.6-0.5c-0.2-0.2-0.3-0.5-0.3-0.8c0-0.3,0.1-0.6,0.3-0.8c0.2-0.2,0.5-0.4,0.8-0.7c-0.5-0.2-0.8-0.5-1.1-1
		c-0.3-0.4-0.4-1-0.4-1.5c0-1,0.3-1.7,0.9-2.2c0.6-0.5,1.5-0.8,2.7-0.8c0.2,0,0.5,0,0.9,0.1c0.3,0,0.6,0.1,0.6,0.1H138.6z
		 M131.8,321.7c0,0.3,0.2,0.6,0.5,0.8c0.3,0.2,0.8,0.3,1.3,0.3c0.9,0,1.5-0.1,2-0.4s0.7-0.6,0.7-1c0-0.3-0.1-0.6-0.4-0.7
		c-0.3-0.1-0.7-0.2-1.3-0.2h-1.2c-0.4,0-0.8,0.1-1.1,0.3C132,321.1,131.8,321.4,131.8,321.7z M132.7,314.6c0,0.5,0.1,0.8,0.3,1.1
		c0.2,0.3,0.5,0.4,1,0.4c0.4,0,0.8-0.1,1-0.4c0.2-0.3,0.3-0.7,0.3-1.1c0-1.1-0.4-1.6-1.3-1.6C133.1,313,132.7,313.6,132.7,314.6z"/>
	<path class="st2" d="M143.9,320.6c-1.4,0-2.5-0.4-3.3-1.2c-0.8-0.8-1.2-1.9-1.2-3.3c0-1.5,0.4-2.6,1.1-3.4c0.7-0.8,1.7-1.2,3-1.2
		c1.2,0,2.2,0.4,2.9,1.1s1,1.7,1,2.9v1.2h-5.6c0,0.7,0.2,1.2,0.6,1.6c0.4,0.4,0.9,0.6,1.6,0.6c0.5,0,1-0.1,1.5-0.2s1-0.3,1.5-0.5
		v1.8c-0.4,0.2-0.9,0.4-1.3,0.5C145.2,320.6,144.6,320.6,143.9,320.6z M143.6,313.3c-0.5,0-0.9,0.2-1.2,0.5
		c-0.3,0.3-0.5,0.8-0.5,1.4h3.3c0-0.6-0.2-1-0.5-1.4S144.1,313.3,143.6,313.3z"/>
	<path class="st2" d="M157.3,320.5h-2.4v-5.1c0-0.6-0.1-1.1-0.3-1.4c-0.2-0.3-0.5-0.5-1-0.5c-0.6,0-1.1,0.2-1.3,0.7
		c-0.3,0.4-0.4,1.2-0.4,2.2v4.1h-2.4v-8.7h1.8l0.3,1.1h0.1c0.2-0.4,0.6-0.7,1-0.9c0.4-0.2,1-0.3,1.5-0.3c1.3,0,2.2,0.4,2.7,1.3h0.2
		c0.2-0.4,0.6-0.7,1-0.9c0.5-0.2,1-0.3,1.5-0.3c1,0,1.7,0.3,2.2,0.8s0.8,1.3,0.8,2.4v5.7h-2.4v-5.1c0-0.6-0.1-1.1-0.3-1.4
		c-0.2-0.3-0.5-0.5-1-0.5c-0.6,0-1,0.2-1.3,0.6c-0.3,0.4-0.4,1.1-0.4,2V320.5z"/>
	<path class="st2" d="M169.1,320.6c-1.4,0-2.5-0.4-3.3-1.2c-0.8-0.8-1.2-1.9-1.2-3.3c0-1.5,0.4-2.6,1.1-3.4c0.7-0.8,1.7-1.2,3-1.2
		c1.2,0,2.2,0.4,2.9,1.1s1,1.7,1,2.9v1.2H167c0,0.7,0.2,1.2,0.6,1.6c0.4,0.4,0.9,0.6,1.6,0.6c0.5,0,1-0.1,1.5-0.2s1-0.3,1.5-0.5v1.8
		c-0.4,0.2-0.9,0.4-1.3,0.5C170.4,320.6,169.8,320.6,169.1,320.6z M168.8,313.3c-0.5,0-0.9,0.2-1.2,0.5c-0.3,0.3-0.5,0.8-0.5,1.4
		h3.3c0-0.6-0.2-1-0.5-1.4S169.3,313.3,168.8,313.3z"/>
	<path class="st2" d="M182.7,320.5h-2.4v-5.1c0-0.6-0.1-1.1-0.3-1.4c-0.2-0.3-0.6-0.5-1.1-0.5c-0.7,0-1.1,0.2-1.4,0.7
		s-0.4,1.2-0.4,2.2v4.1h-2.4v-8.7h1.8l0.3,1.1h0.1c0.3-0.4,0.6-0.7,1.1-1c0.5-0.2,1-0.3,1.6-0.3c1,0,1.8,0.3,2.3,0.8
		c0.5,0.5,0.8,1.3,0.8,2.4V320.5z"/>
	<path class="st2" d="M188.8,318.7c0.4,0,0.9-0.1,1.5-0.3v1.8c-0.6,0.3-1.3,0.4-2.2,0.4c-1,0-1.6-0.2-2.1-0.7
		c-0.4-0.5-0.7-1.2-0.7-2.2v-4.2h-1.1v-1l1.3-0.8l0.7-1.8h1.5v1.9h2.4v1.8h-2.4v4.2c0,0.3,0.1,0.6,0.3,0.8
		C188.2,318.7,188.5,318.7,188.8,318.7z"/>
</g>
<g class="st18">
	<path class="st2" d="M87.9,212.7v-11.4h2.4v11.4H87.9z"/>
	<path class="st2" d="M97.6,212.7h-2.4v-9.4h-3.1v-2h8.6v2h-3.1V212.7z"/>
	<path class="st2" d="M106.6,201.3h3.6c1.6,0,2.8,0.2,3.5,0.7c0.7,0.5,1.1,1.2,1.1,2.2c0,0.7-0.2,1.2-0.5,1.7s-0.7,0.7-1.3,0.8v0.1
		c0.7,0.2,1.2,0.5,1.6,0.9s0.5,1,0.5,1.8c0,1-0.4,1.9-1.1,2.4c-0.8,0.6-1.8,0.9-3.1,0.9h-4.3V201.3z M109,205.8h1.4
		c0.7,0,1.1-0.1,1.4-0.3c0.3-0.2,0.4-0.5,0.4-1c0-0.4-0.2-0.8-0.5-0.9s-0.8-0.3-1.5-0.3H109V205.8z M109,207.7v3h1.6
		c0.7,0,1.2-0.1,1.5-0.4c0.3-0.3,0.5-0.6,0.5-1.2c0-0.9-0.7-1.4-2-1.4H109z"/>
	<path class="st2" d="M123.3,212.7l-0.3-1.1h-0.1c-0.3,0.4-0.6,0.7-1.1,0.9s-1,0.3-1.6,0.3c-1,0-1.8-0.3-2.3-0.8
		c-0.5-0.5-0.8-1.3-0.8-2.4V204h2.4v5.1c0,0.6,0.1,1.1,0.3,1.4c0.2,0.3,0.6,0.5,1.1,0.5c0.7,0,1.1-0.2,1.4-0.7s0.4-1.2,0.4-2.2V204
		h2.4v8.7H123.3z"/>
	<path class="st2" d="M130.4,212.8c-1,0-1.8-0.4-2.4-1.2s-0.9-1.9-0.9-3.3c0-1.4,0.3-2.5,0.9-3.3c0.6-0.8,1.4-1.2,2.5-1.2
		c1.1,0,1.9,0.4,2.5,1.3h0.1c-0.1-0.7-0.2-1.2-0.2-1.7v-2.8h2.4v12.2h-1.8l-0.5-1.1h-0.1C132.4,212.4,131.5,212.8,130.4,212.8z
		 M131.3,210.9c0.6,0,1.1-0.2,1.3-0.5c0.3-0.4,0.4-1,0.5-1.8v-0.3c0-0.9-0.1-1.6-0.4-2s-0.8-0.6-1.4-0.6c-0.5,0-0.9,0.2-1.2,0.7
		c-0.3,0.5-0.4,1.1-0.4,2s0.1,1.5,0.4,1.9S130.7,210.9,131.3,210.9z"/>
	<path class="st2" d="M145.4,204v1.2l-1.4,0.4c0.3,0.4,0.4,0.8,0.4,1.3c0,0.9-0.3,1.7-1,2.2c-0.7,0.5-1.6,0.8-2.7,0.8l-0.4,0l-0.4,0
		c-0.2,0.2-0.4,0.4-0.4,0.6c0,0.3,0.4,0.5,1.3,0.5h1.5c1,0,1.7,0.2,2.2,0.6c0.5,0.4,0.8,1,0.8,1.8c0,1-0.4,1.8-1.3,2.4
		s-2.1,0.8-3.7,0.8c-1.2,0-2.1-0.2-2.8-0.6c-0.6-0.4-1-1-1-1.8c0-0.5,0.2-1,0.5-1.3s0.8-0.6,1.4-0.8c-0.2-0.1-0.5-0.3-0.6-0.5
		c-0.2-0.2-0.3-0.5-0.3-0.8c0-0.3,0.1-0.6,0.3-0.8c0.2-0.2,0.5-0.4,0.8-0.7c-0.5-0.2-0.8-0.5-1.1-1c-0.3-0.4-0.4-1-0.4-1.5
		c0-1,0.3-1.7,0.9-2.2c0.6-0.5,1.5-0.8,2.7-0.8c0.2,0,0.5,0,0.9,0.1s0.6,0.1,0.6,0.1H145.4z M138.7,213.9c0,0.3,0.2,0.6,0.5,0.8
		c0.3,0.2,0.8,0.3,1.3,0.3c0.9,0,1.5-0.1,2-0.4s0.7-0.6,0.7-1c0-0.3-0.1-0.6-0.4-0.7c-0.3-0.1-0.7-0.2-1.3-0.2h-1.2
		c-0.4,0-0.8,0.1-1.1,0.3C138.8,213.3,138.7,213.6,138.7,213.9z M139.5,206.8c0,0.5,0.1,0.8,0.3,1.1c0.2,0.3,0.5,0.4,1,0.4
		c0.4,0,0.8-0.1,1-0.4c0.2-0.3,0.3-0.7,0.3-1.1c0-1.1-0.4-1.6-1.3-1.6C140,205.2,139.5,205.8,139.5,206.8z"/>
	<path class="st2" d="M150.8,212.8c-1.4,0-2.5-0.4-3.3-1.2c-0.8-0.8-1.2-1.9-1.2-3.3c0-1.5,0.4-2.6,1.1-3.4c0.7-0.8,1.7-1.2,3-1.2
		c1.2,0,2.2,0.4,2.9,1.1s1,1.7,1,2.9v1.2h-5.6c0,0.7,0.2,1.2,0.6,1.6s0.9,0.6,1.6,0.6c0.5,0,1-0.1,1.5-0.2s1-0.3,1.5-0.5v1.8
		c-0.4,0.2-0.9,0.4-1.3,0.5C152,212.8,151.5,212.8,150.8,212.8z M150.4,205.5c-0.5,0-0.9,0.2-1.2,0.5c-0.3,0.3-0.5,0.8-0.5,1.4h3.3
		c0-0.6-0.2-1-0.5-1.4S151,205.5,150.4,205.5z"/>
	<path class="st2" d="M160,210.9c0.4,0,0.9-0.1,1.5-0.3v1.8c-0.6,0.3-1.3,0.4-2.2,0.4c-1,0-1.6-0.2-2.1-0.7
		c-0.4-0.5-0.7-1.2-0.7-2.2v-4.2h-1.1v-1l1.3-0.8l0.7-1.8h1.5v1.9h2.4v1.8h-2.4v4.2c0,0.3,0.1,0.6,0.3,0.8
		C159.4,210.9,159.7,210.9,160,210.9z"/>
	<path class="st2" d="M169.3,210.1c0,0.9-0.3,1.6-0.9,2c-0.6,0.5-1.6,0.7-2.8,0.7c-0.6,0-1.2,0-1.6-0.1c-0.4-0.1-0.9-0.2-1.3-0.4v-2
		c0.4,0.2,0.9,0.4,1.5,0.5s1,0.2,1.5,0.2c0.9,0,1.3-0.3,1.3-0.8c0-0.2-0.1-0.3-0.2-0.5c-0.1-0.1-0.3-0.3-0.6-0.4s-0.7-0.3-1.1-0.5
		c-0.7-0.3-1.2-0.5-1.5-0.8c-0.3-0.2-0.5-0.5-0.7-0.8c-0.1-0.3-0.2-0.7-0.2-1.1c0-0.8,0.3-1.4,0.9-1.8s1.5-0.6,2.6-0.6
		c1.1,0,2.1,0.2,3.1,0.7l-0.7,1.7c-0.4-0.2-0.8-0.3-1.2-0.5c-0.4-0.1-0.8-0.2-1.2-0.2c-0.7,0-1.1,0.2-1.1,0.6c0,0.2,0.1,0.4,0.3,0.6
		s0.7,0.4,1.5,0.7c0.7,0.3,1.2,0.5,1.5,0.8c0.3,0.2,0.6,0.5,0.7,0.8C169.2,209.3,169.3,209.7,169.3,210.1z"/>
	<path class="st2" d="M186.1,212.7h-2.9l-0.9-0.9c-1,0.7-2.1,1-3.4,1c-1.3,0-2.3-0.3-3-0.9c-0.7-0.6-1.1-1.4-1.1-2.4
		c0-0.7,0.2-1.3,0.5-1.8c0.3-0.5,0.9-1,1.6-1.4c-0.4-0.4-0.7-0.9-0.9-1.3c-0.2-0.4-0.3-0.9-0.3-1.3c0-0.8,0.3-1.4,0.9-1.9
		c0.6-0.5,1.4-0.7,2.4-0.7c1,0,1.7,0.2,2.3,0.7c0.6,0.5,0.9,1.1,0.9,1.8c0,0.6-0.2,1.2-0.5,1.7s-0.9,1-1.7,1.5l2.2,2.2
		c0.4-0.6,0.7-1.4,1-2.4h2.5c-0.2,0.7-0.4,1.4-0.8,2.1s-0.7,1.3-1.1,1.8L186.1,212.7z M177.2,209.4c0,0.4,0.2,0.8,0.5,1.1
		s0.8,0.4,1.3,0.4c0.7,0,1.2-0.2,1.8-0.5l-2.6-2.6c-0.3,0.2-0.5,0.5-0.7,0.7C177.3,208.8,177.2,209,177.2,209.4z M180,203.8
		c0-0.3-0.1-0.5-0.3-0.7s-0.4-0.2-0.7-0.2c-0.3,0-0.6,0.1-0.8,0.3c-0.2,0.2-0.3,0.4-0.3,0.7c0,0.5,0.2,1,0.7,1.5
		c0.4-0.3,0.8-0.5,1-0.7C179.9,204.4,180,204.2,180,203.8z"/>
</g>
<g class="st18">
	<path class="st2" d="M122,231.5c0,1-0.4,1.8-1.1,2.4s-1.8,0.9-3.1,0.9c-1.2,0-2.3-0.2-3.2-0.7v-2.3c0.8,0.3,1.4,0.6,2,0.7
		c0.5,0.1,1,0.2,1.5,0.2c0.5,0,0.9-0.1,1.2-0.3c0.3-0.2,0.4-0.5,0.4-0.9c0-0.2-0.1-0.4-0.2-0.6s-0.3-0.3-0.6-0.5s-0.7-0.4-1.5-0.8
		c-0.7-0.3-1.2-0.6-1.6-0.9c-0.3-0.3-0.6-0.7-0.8-1.1c-0.2-0.4-0.3-0.9-0.3-1.4c0-1,0.3-1.8,1-2.4c0.7-0.6,1.6-0.9,2.8-0.9
		c0.6,0,1.2,0.1,1.7,0.2s1.1,0.3,1.7,0.6l-0.8,1.9c-0.6-0.3-1.1-0.4-1.5-0.5s-0.8-0.1-1.2-0.1c-0.5,0-0.8,0.1-1.1,0.3
		c-0.2,0.2-0.4,0.5-0.4,0.8c0,0.2,0,0.4,0.1,0.6c0.1,0.2,0.3,0.3,0.5,0.5c0.2,0.1,0.7,0.4,1.5,0.8c1.1,0.5,1.8,1,2.2,1.5
		C121.8,230.1,122,230.8,122,231.5z"/>
	<path class="st2" d="M128.7,234.8c-1,0-1.8-0.4-2.4-1.1h-0.1c0.1,0.7,0.1,1.2,0.1,1.3v3.5h-2.4V226h1.9l0.3,1.1h0.1
		c0.6-0.9,1.4-1.3,2.5-1.3c1,0,1.8,0.4,2.4,1.2c0.6,0.8,0.9,1.9,0.9,3.3c0,0.9-0.1,1.7-0.4,2.4s-0.7,1.2-1.2,1.6
		C130,234.7,129.4,234.8,128.7,234.8z M128,227.7c-0.6,0-1,0.2-1.3,0.5c-0.3,0.4-0.4,1-0.4,1.8v0.3c0,0.9,0.1,1.6,0.4,2
		c0.3,0.4,0.7,0.6,1.3,0.6c1.1,0,1.6-0.9,1.6-2.6c0-0.9-0.1-1.5-0.4-1.9C129,227.9,128.5,227.7,128,227.7z"/>
	<path class="st2" d="M138,234.8c-1.4,0-2.5-0.4-3.3-1.2c-0.8-0.8-1.2-1.9-1.2-3.3c0-1.5,0.4-2.6,1.1-3.4c0.7-0.8,1.7-1.2,3-1.2
		c1.2,0,2.2,0.4,2.9,1.1s1,1.7,1,2.9v1.2h-5.6c0,0.7,0.2,1.2,0.6,1.6s0.9,0.6,1.6,0.6c0.5,0,1-0.1,1.5-0.2s1-0.3,1.5-0.5v1.8
		c-0.4,0.2-0.9,0.4-1.3,0.5C139.2,234.8,138.6,234.8,138,234.8z M137.6,227.5c-0.5,0-0.9,0.2-1.2,0.5c-0.3,0.3-0.5,0.8-0.5,1.4h3.3
		c0-0.6-0.2-1-0.5-1.4S138.1,227.5,137.6,227.5z"/>
	<path class="st2" d="M151.5,234.7h-2.4v-5.1c0-0.6-0.1-1.1-0.3-1.4c-0.2-0.3-0.6-0.5-1.1-0.5c-0.7,0-1.1,0.2-1.4,0.7
		s-0.4,1.2-0.4,2.2v4.1h-2.4V226h1.8l0.3,1.1h0.1c0.3-0.4,0.6-0.7,1.1-1c0.5-0.2,1-0.3,1.6-0.3c1,0,1.8,0.3,2.3,0.8
		c0.5,0.5,0.8,1.3,0.8,2.4V234.7z"/>
	<path class="st2" d="M156.7,234.8c-1,0-1.8-0.4-2.4-1.2s-0.9-1.9-0.9-3.3c0-1.4,0.3-2.5,0.9-3.3c0.6-0.8,1.4-1.2,2.5-1.2
		c1.1,0,1.9,0.4,2.5,1.3h0.1c-0.1-0.7-0.2-1.2-0.2-1.7v-2.8h2.4v12.2h-1.8l-0.5-1.1h-0.1C158.7,234.4,157.9,234.8,156.7,234.8z
		 M157.6,232.9c0.6,0,1.1-0.2,1.3-0.5c0.3-0.4,0.4-1,0.5-1.8v-0.3c0-0.9-0.1-1.6-0.4-2s-0.8-0.6-1.4-0.6c-0.5,0-0.9,0.2-1.2,0.7
		c-0.3,0.5-0.4,1.1-0.4,2s0.1,1.5,0.4,1.9S157,232.9,157.6,232.9z"/>
</g>
<g id="Group_3" transform="translate(6577.736 2505.2)">
	<circle id="Ellipse_2" class="st2" cx="-6307.8" cy="-2241.7" r="54.6"/>
</g>
<g id="Group_48392" transform="translate(6641.308 2569.158)">
	<path id="Path_1162" class="st19" d="M-6380-2300.3l-8-11.1l8-11.1h16.6l7.4,10.3l1.8-2.2l-7.8-10.9h-19.4l-10,13.9l10,13.9h18.7
		l-2.9-2.8H-6380z"/>
	<path id="Path_1163" class="st19" d="M-6362.1-2314.4h-18.7l2.9,2.8h14.3l8,11.1l-8,11.1h-16.6l-7.4-10.3l-1.9,2.2l7.9,10.9h19.4
		l10-13.9L-6362.1-2314.4z"/>
	<path id="Path_1164" class="st20" d="M-6361-2302.6h-16.8l-4.8-7h16.8L-6361-2302.6z"/>
</g>
<g id="Group_47998" transform="translate(6805.895 2649.173)">
	<g id="Group_47994" transform="translate(29.042)">
		<path id="Path_51234" class="st21" d="M-6372.9-2297.3l-3.9-10.9h-11.5l2.6,9.2L-6372.9-2297.3z"/>
		<path id="Path_51235" class="st22" d="M-6386.1-2303.5l0.4,4.6l-1.2-4.4L-6386.1-2303.5z"/>
		<ellipse id="Ellipse_978" class="st21" cx="-6380.8" cy="-2314.3" rx="8.8" ry="8.8"/>
		<path id="Path_51236" class="st21" d="M-6388.7-2318.2c-2,4.2-2.4,10.8-0.3,13.7c2.1,2.9,4.9-0.2,5.5-1.8c0,0,1.9-1.7,1.6-3.1
			c-0.4-1.6-2.4-1.4-2.7,0.4"/>
		<path id="Path_51237" class="st23" d="M-6382.8-2307c-0.9,0.8-1.9,0.1-1.7-1"/>
		
			<linearGradient id="Path_51238_1_" gradientUnits="userSpaceOnUse" x1="-6866.2285" y1="-1985.9921" x2="-6865.4043" y2="-1987.901" gradientTransform="matrix(18.8062 0 0 -22.0552 122737.6875 -46144.5547)">
			<stop  offset="0" style="stop-color:#1D325F"/>
			<stop  offset="1" style="stop-color:#00030E"/>
		</linearGradient>
		<path id="Path_51238" class="st24" d="M-6383.7-2310.3c-0.9,0.5-1.3,1.9-2.5,1.7c-0.9-0.2-1.1-1.2-0.9-1.9c0.2-0.7,0.4-1.8,0-2.3
			s-1.7-1.4-0.9-2.6c0.8-1.2-0.9-2.4-1.2-3.8c-0.5-2.6,2.9-7,9-5.8c7.6,1.5,7.2,6.7,7.2,6.7c1.1,0.6,2,1.7,2.3,3
			c0.7,2.1-0.1,4.4-2.6,6.9s-1.9,3.2-1.4,3.8c0.5,0.6,0.2,1.3-1.7,1.5c-1.9,0.1-6.2,0-6.4-3.7c0.4-0.5,0.7-1.1,0.9-1.8
			c0.2-0.7-0.2-1.4-0.9-1.6C-6383-2310.5-6383.4-2310.5-6383.7-2310.3z"/>
		<path id="Path_51239" class="st23" d="M-6389.6-2316c-1.2,4-1.2,9.1,0.6,11.5c0.6,1.1,2,1.5,3.1,0.9c0.1,0,0.1-0.1,0.2-0.1"/>
		
			<linearGradient id="Path_51240_1_" gradientUnits="userSpaceOnUse" x1="-6864.9907" y1="-2014.8848" x2="-6867.0493" y2="-2006.5458" gradientTransform="matrix(15.854 0 0 -3.9154 102463.8672 -10181.9473)">
			<stop  offset="0" style="stop-color:#88B93F"/>
			<stop  offset="1" style="stop-color:#0E55CB"/>
		</linearGradient>
		<path id="Path_51240" class="st25" d="M-6371.5-2296.9l-1.4-2.9c0,0-3.9-1.9-13.8-0.6l-0.7,1.5L-6371.5-2296.9z"/>
	</g>
	<g id="Group_47996" transform="translate(0 18.991)">
		<path id="Path_51241" class="st21" d="M-6370.4-2323.6c0.8-0.6,1.7-0.9,2.7-0.9h1.3l2.8-0.8c0.4-0.1,0.9,0,1.2,0.3
			c0.8,0.7,2.3,2,3,2.7c0.2,0.2,0,0.5-0.2,0.6c-0.7,0.2-1.4,0-1.9-0.4l-0.2-0.1l-1.2,1.4c-0.8,0.9-1.3,1.9-1.7,3
			c-1.6,4.6-4.5,4-6.1,5.2l-3.7-7.8C-6372.6-2321.8-6371.3-2322.9-6370.4-2323.6z M-6363.3-2322.8l-1.1,0.4l-0.2,0.8L-6363.3-2322.8
			z"/>
		<path id="Path_51242" class="st26" d="M-6370.6-2317c0.4,0.5,2.7,0.1,5.2,0.8v0.3c-1.6,2.4-3.8,2.2-5.2,3.2l-3.7-7.8
			C-6372.9-2319.6-6371.6-2318.4-6370.6-2317z"/>
		
			<linearGradient id="Path_51243_1_" gradientUnits="userSpaceOnUse" x1="-6836.0967" y1="-2003.3297" x2="-6843.9448" y2="-2000.1926" gradientTransform="matrix(22.4288 0 0 -56.119 147011.9375 -114686.4375)">
			<stop  offset="0" style="stop-color:#88B93F"/>
			<stop  offset="1" style="stop-color:#0E55CB"/>
		</linearGradient>
		<path id="Path_51243" class="st27" d="M-6340-2315.3c11.1,2.9,20.1,27.2,19.5,31.7s-9.4,19.7-19.3,24.4l-3.1-8.5
			c0,0,10.6-10.9,10.3-15c0,0-0.6-2.8-5.1-7.4L-6340-2315.3z"/>
		<g id="Group_47995" transform="translate(48.438 19.767)">
			<path id="Path_51244" class="st26" d="M-6388.5-2289.7c-0.1,3.5,0.3,6.9,1.2,10.3c-0.3,0.2-0.6,0.3-1,0.5l-3.1-8.5
				c0,0,1.3-1.4,3-3.3C-6388.5-2290.4-6388.5-2290-6388.5-2289.7z"/>
			<path id="Path_51245" class="st26" d="M-6386.3-2309.8l-1.8-15.5c6.3,1.2,7.9,6.1,6.7,10.1c-1.4,4.4-1.6,4.9-2.6,7.9
				C-6384.7-2308.1-6385.5-2309-6386.3-2309.8z"/>
		</g>
		
			<linearGradient id="Path_51246_1_" gradientUnits="userSpaceOnUse" x1="-6837.105" y1="-2002.8286" x2="-6840.73" y2="-2000.4116" gradientTransform="matrix(48.5479 0 0 -72.8291 325600.25 -148112.0938)">
			<stop  offset="0" style="stop-color:#88B93F"/>
			<stop  offset="1" style="stop-color:#0E55CB"/>
		</linearGradient>
		<path id="Path_51246" class="st28" d="M-6340.3-2245.1c4.5-10.8-4.2-16.1,1.4-34.1c3.1-9.9,5-18.1,6.3-23.8
			c1.1-5.4-2.1-10.8-7.4-12.3c-7.3-2.1-17.7-3.9-27-1.4c-3.8,1-6.7,4.1-7.6,8c-1.9,9-7.8,29.2-5.9,63.7L-6340.3-2245.1z"/>
		<path id="Path_51247" class="st23" d="M-6340.3-2245.1c4.5-10.8-4.2-16.1,1.4-34.1c3.1-9.9,5-18.1,6.3-23.8"/>
		<path id="Path_51248" class="st3" d="M-6370.9-2293.5c0,0-6.4,24.4-1.7,48.5"/>
		<path id="Path_51249" class="st29" d="M-6365.7-2296.1c-4.7,5-13.9,14.6-13.9,14.6c0.5-5.3,1.4-10.6,2.6-15.8L-6365.7-2296.1z"/>
		<path id="Path_51250" class="st3" d="M-6351.3-2245.1c1.6-4.2,1.8-8.7,0.5-13c-3.9-12.2,15.4-54.7,5.4-58.5"/>
		
			<linearGradient id="Path_51251_1_" gradientUnits="userSpaceOnUse" x1="-6834.0952" y1="-2008.1147" x2="-6842.5601" y2="-2000.9108" gradientTransform="matrix(20.7936 0 0 -24.436 135781 -51320.543)">
			<stop  offset="0" style="stop-color:#88B93F"/>
			<stop  offset="1" style="stop-color:#0E55CB"/>
		</linearGradient>
		<path id="Path_51251" class="st30" d="M-6391.2-2296.1c-2.8-9.9,16.8-24.4,16.8-24.4c2.4,1.8,3.8,4.7,3.7,7.8L-6391.2-2296.1z"/>
		<path id="Path_51252" class="st22" d="M-6370.6-2312.7l-6.6,5.4l-6.5-0.3c3.8-3.5,7.8-6.8,12.1-9.6
			C-6370.9-2315.8-6370.6-2314.3-6370.6-2312.7z"/>
		
			<linearGradient id="Path_51253_1_" gradientUnits="userSpaceOnUse" x1="-6835.605" y1="-2007.6281" x2="-6841.3281" y2="-2000.6871" gradientTransform="matrix(30.753 0 0 -25.3582 203892.4063 -53161.4922)">
			<stop  offset="0" style="stop-color:#88B93F"/>
			<stop  offset="1" style="stop-color:#0E55CB"/>
		</linearGradient>
		<path id="Path_51253" class="st31" d="M-6365.8-2317c7.1-0.7,7,16.1,0,20.9c-7,4.9-23.5,6.8-25.4,0
			C-6393-2302.8-6374.1-2316.1-6365.8-2317z"/>
		<path id="Path_51254" class="st3" d="M-6360.9-2305c-0.7,3.6-2.3,7.1-4.9,9c-7,4.9-23.5,6.8-25.4,0"/>
		<path id="Path_51255" class="st3" d="M-6386.5-2305c5.8-5.8,15.4-11.4,20.8-12"/>
		<path id="Path_51256" class="st3" d="M-6391.2-2296.1c-2.8-9.9,16.8-24.4,16.8-24.4c1.6,1.2,2.8,3,3.4,5"/>
		<path id="Path_51257" class="st23" d="M-6340-2315.3c-6.7-2-13.8-2.9-20.8-2.5"/>
	</g>
	<g id="Group_47997" transform="translate(13.808 99.251)">
		
			<linearGradient id="Path_51258_1_" gradientUnits="userSpaceOnUse" x1="-6849.9482" y1="-2082.4766" x2="-6858.9414" y2="-2083.4126" gradientTransform="matrix(21.4487 0 0 -75.881 140576.5781 -160313.875)">
			<stop  offset="0" style="stop-color:#81BD28"/>
			<stop  offset="1" style="stop-color:#0E55CB"/>
		</linearGradient>
		<path id="Path_51258" class="st32" d="M-6372.1-2325.3h18c-0.4,1-0.9,2-1.5,3c0,0,0.5,23.8,1.6,29.9c1,5.7,5.4,13.4,2.2,42.2
			c-2.4,1.5-6.8,0.4-10.1-0.7l-10.3-65.8L-6372.1-2325.3z"/>
		<path id="Path_51259" class="st29" d="M-6367.9-2323l0.6,37.1l-4.8-30.7v-6.4H-6367.9z"/>
		
			<linearGradient id="Path_51260_1_" gradientUnits="userSpaceOnUse" x1="-6849.8091" y1="-2082.3645" x2="-6857.1323" y2="-2083.2834" gradientTransform="matrix(26.341 0 0 -77.2267 174082.6563 -163113.5625)">
			<stop  offset="0" style="stop-color:#88B93F"/>
			<stop  offset="1" style="stop-color:#0E55CB"/>
		</linearGradient>
		<path id="Path_51260" class="st33" d="M-6382-2250.1c-4.7-24.9-7.8-50-9.4-75.3h26.3c-1.4,2.2-3.4,4-5.8,5.1c0,0-8.3,22.6-5,30.6
			c4.1,10,4.9,29.1,5,39.5C-6373-2247.2-6379.2-2247.7-6382-2250.1z"/>
		<path id="Path_51261" class="st22" d="M-6391.4-2325.3h37.4c-0.2,0.4-0.4,0.9-0.6,1.4h-36.6
			C-6391.4-2324.4-6391.4-2324.9-6391.4-2325.3z"/>
		
			<linearGradient id="Path_51262_1_" gradientUnits="userSpaceOnUse" x1="-6852.9556" y1="-2084.9219" x2="-6850.3691" y2="-2099.3657" gradientTransform="matrix(19.6789 0 0 -7.044 128430.2344 -17028.666)">
			<stop  offset="0" style="stop-color:#1D325F"/>
			<stop  offset="1" style="stop-color:#00030E"/>
		</linearGradient>
		<path id="Path_51262" class="st34" d="M-6389.7-2245.3c0.4-0.7,1-1.2,1.7-1.6l5.9-3.2c2.8,2.4,9,2.9,11.2-0.1c0,1.9,0,3.5,0,4.7
			c0,1.3-1.1,2.4-2.4,2.4h-16.5c-0.4,0-0.7-0.3-0.7-0.7c0-0.1,0-0.3,0.1-0.4L-6389.7-2245.3z"/>
		
			<linearGradient id="Path_51263_1_" gradientUnits="userSpaceOnUse" x1="-6853.6904" y1="-2083.4382" x2="-6849.7466" y2="-2096.5383" gradientTransform="matrix(12.8972 0 0 -7.766 81982.8984 -18531.4238)">
			<stop  offset="0" style="stop-color:#1D325F"/>
			<stop  offset="1" style="stop-color:#00030E"/>
		</linearGradient>
		<path id="Path_51263" class="st35" d="M-6351.8-2250.2c-0.2,1.9-0.5,3.9-0.7,6.1c-0.1,0.6-0.6,1-1.2,1h-9.8
			c-0.6,0-1.2-0.5-1.2-1.2c0-0.1,0-0.2,0-0.3c0.8-2.2,1.7-4.3,2.8-6.3C-6358.6-2249.7-6354.2-2248.7-6351.8-2250.2z"/>
		<path id="Path_51264" class="st3" d="M-6366.7-2323c-1.2,1.2-2.6,2.2-4.2,2.7c0,0-8.3,22.6-5,30.6"/>
		<path id="Path_51265" class="st36" d="M-6386.4-2325.3c0.6,25.3,2.8,42,8.6,77.1"/>
		<line id="Line_15" class="st36" x1="-6386.1" y1="-2315.1" x2="-6388.2" y2="-2325.3"/>
		<line id="Line_16" class="st36" x1="-6369.7" y1="-2312.7" x2="-6360.9" y2="-2250.6"/>
	</g>
</g>
<g id="Group_324" transform="translate(6226.014 1960.936)">
	<g id="Group_312" transform="translate(346.472 364.377)">
		<path id="Path_1602" class="st8" d="M-6306.3-2294.7c-0.4-6.4-5.2-11.7-11.6-12.7c-0.8-10.7-10.2-18.7-21-17.9
			c-6,0.5-11.4,3.7-14.7,8.7c-1.5-0.3-3.1-0.5-4.6-0.5c-7.9,0-14.7,3.9-17.8,9.6c-0.6-0.1-1.2-0.1-1.7-0.1
			c-7.6,0-13.7,6.1-13.7,13.7c0,6.6,4.5,12.7,10.8,13.3c1,0.1,4.1,0.1,4.1,0.1h11.7v-7.7h-10.3c-0.4,2-2.3,3.3-4.3,2.8
			c-2-0.4-3.3-2.3-2.8-4.3c0.4-2,2.3-3.3,4.3-2.8c1.4,0.3,2.6,1.4,2.8,2.8h10.3v-4.5c-2-0.4-3.3-2.3-2.8-4.3c0.4-2,2.3-3.3,4.3-2.8
			c2,0.4,3.3,2.3,2.8,4.3c-0.3,1.4-1.4,2.6-2.8,2.8v4.5h10v-12.6c-2-0.4-3.3-2.3-2.8-4.3c0.4-2,2.3-3.3,4.3-2.8
			c2,0.4,3.3,2.3,2.8,4.3c-0.3,1.4-1.4,2.6-2.8,2.8v12.6h4.3v9.2h6.1v-11.3c-2-0.4-3.3-2.3-2.8-4.3s2.3-3.3,4.3-2.8
			c2,0.4,3.3,2.3,2.8,4.3c-0.3,1.4-1.4,2.6-2.8,2.8v11.3h9.3v-12h10.9c0.4-2,2.3-3.3,4.3-2.8c2,0.4,3.3,2.3,2.8,4.3
			c-0.4,2-2.3,3.3-4.3,2.8c-1.4-0.3-2.6-1.4-2.8-2.8h-9.4v10.6h7.6c0,0,3.3,0,4.4-0.1c5.8-0.6,10.2-5.8,10.9-11.7v0
			c0-0.1,0-0.3,0-0.4c0-0.4,0.1-0.8,0.1-1.2v-0.1C-6306.2-2294.1-6306.2-2294.4-6306.3-2294.7z"/>
	</g>
	<g id="Group_313" transform="translate(374.568 401.593)">
		<rect id="Rectangle_189" x="-6391.4" y="-2325.3" class="st8" width="14.4" height="7.7"/>
	</g>
	<g id="Group_314" transform="translate(373.107 410.792)">
		<rect id="Rectangle_190" x="-6391.4" y="-2325.3" class="st8" width="1.5" height="1.5"/>
	</g>
	<g id="Group_315" transform="translate(373.107 413.73)">
		<rect id="Rectangle_191" x="-6391.4" y="-2325.3" class="st8" width="1.5" height="1.5"/>
	</g>
	<g id="Group_316" transform="translate(373.107 416.666)">
		<rect id="Rectangle_192" x="-6391.4" y="-2325.3" class="st8" width="1.5" height="1.5"/>
	</g>
	<g id="Group_317" transform="translate(373.107 419.603)">
		<rect id="Rectangle_193" x="-6391.4" y="-2325.3" class="st8" width="1.5" height="1.5"/>
	</g>
	<g id="Group_318" transform="translate(388.962 410.792)">
		<rect id="Rectangle_194" x="-6391.4" y="-2325.3" class="st8" width="1.5" height="1.5"/>
	</g>
	<g id="Group_319" transform="translate(388.962 413.73)">
		<rect id="Rectangle_195" x="-6391.4" y="-2325.3" class="st8" width="1.5" height="1.5"/>
	</g>
	<g id="Group_320" transform="translate(388.962 416.666)">
		<rect id="Rectangle_196" x="-6391.4" y="-2325.3" class="st8" width="1.5" height="1.5"/>
	</g>
	<g id="Group_321" transform="translate(396.486 410.792)">
		<rect id="Rectangle_197" x="-6391.4" y="-2325.3" class="st8" width="1.5" height="1.5"/>
	</g>
	<g id="Group_322" transform="translate(396.486 413.73)">
		<rect id="Rectangle_198" x="-6391.4" y="-2325.3" class="st8" width="1.5" height="1.5"/>
	</g>
	<g id="Group_323" transform="translate(407.159 410.792)">
		<rect id="Rectangle_199" x="-6391.4" y="-2325.3" class="st8" width="1.5" height="1.5"/>
	</g>
</g>
</svg>
